Repro Outline.ufo
<glyph name="exclam" format="2">
  <advance width="252"/>
  <unicode hex="0021"/>
  <outline>
    <contour>
      <point x="86" y="180" type="line"/>
      <point x="60" y="529" type="line"/>
      <point x="60" y="700" type="line"/>
      <point x="192" y="700" type="line"/>
      <point x="192" y="529" type="line"/>
      <point x="165" y="180" type="line"/>
    </contour>
    <contour>
      <point x="107" y="202" type="line"/>
      <point x="144" y="202" type="line"/>
      <point x="169" y="530" type="line"/>
      <point x="169" y="678" type="line"/>
      <point x="83" y="678" type="line"/>
      <point x="82" y="530" type="line"/>
    </contour>
    <contour>
      <point x="55" y="-1" type="line"/>
      <point x="55" y="137" type="line"/>
      <point x="197" y="137" type="line"/>
      <point x="197" y="-1" type="line"/>
    </contour>
    <contour>
      <point x="78" y="21" type="line"/>
      <point x="174" y="21" type="line"/>
      <point x="174" y="115" type="line"/>
      <point x="78" y="115" type="line"/>
    </contour>
  </outline>
</glyph>
<glyph name="quotedbl" format="2">
  <advance width="388"/>
  <unicode hex="0022"/>
  <outline>
    <contour>
      <point x="69" y="421" type="line"/>
      <point x="50" y="700" type="line"/>
      <point x="172" y="700" type="line"/>
      <point x="153" y="421" type="line"/>
    </contour>
    <contour>
      <point x="236" y="421" type="line"/>
      <point x="217" y="700" type="line"/>
      <point x="338" y="700" type="line"/>
      <point x="319" y="421" type="line"/>
    </contour>
    <contour>
      <point x="91" y="443" type="line"/>
      <point x="131" y="443" type="line"/>
      <point x="147" y="678" type="line"/>
      <point x="75" y="678" type="line"/>
    </contour>
    <contour>
      <point x="257" y="443" type="line"/>
      <point x="297" y="443" type="line"/>
      <point x="313" y="678" type="line"/>
      <point x="241" y="678" type="line"/>
    </contour>
  </outline>
</glyph>
<glyph name="numbersign" format="2">
  <advance width="710"/>
  <unicode hex="0023"/>
  <outline>
    <contour>
      <point x="654" y="479" type="line"/>
      <point x="502" y="479" type="line"/>
      <point x="476" y="276" type="line"/>
      <point x="625" y="276" type="line"/>
      <point x="625" y="254" type="line"/>
      <point x="473" y="254" type="line"/>
      <point x="441" y="0" type="line"/>
      <point x="418" y="0" type="line"/>
      <point x="450" y="254" type="line"/>
      <point x="235" y="254" type="line"/>
      <point x="203" y="0" type="line"/>
      <point x="180" y="0" type="line"/>
      <point x="212" y="254" type="line"/>
      <point x="56" y="254" type="line"/>
      <point x="56" y="276" type="line"/>
      <point x="215" y="276" type="line"/>
      <point x="241" y="479" type="line"/>
      <point x="85" y="479" type="line"/>
      <point x="85" y="501" type="line"/>
      <point x="244" y="501" type="line"/>
      <point x="274" y="735" type="line"/>
      <point x="297" y="735" type="line"/>
      <point x="267" y="501" type="line"/>
      <point x="482" y="501" type="line"/>
      <point x="512" y="735" type="line"/>
      <point x="535" y="735" type="line"/>
      <point x="505" y="501" type="line"/>
      <point x="654" y="501" type="line"/>
    </contour>
    <contour>
      <point x="453" y="276" type="line"/>
      <point x="479" y="479" type="line"/>
      <point x="264" y="479" type="line"/>
      <point x="238" y="276" type="line"/>
    </contour>
  </outline>
</glyph>
<glyph name="dollar" format="2">
  <advance width="642"/>
  <unicode hex="0024"/>
  <outline>
    <contour>
      <point x="281" y="-140" type="line"/>
      <point x="281" y="-13" type="line"/>
      <point x="221" y="-8"/>
      <point x="127" y="31"/>
      <point x="94" y="64" type="qcurve"/>
      <point x="63" y="95"/>
      <point x="26" y="182"/>
      <point x="22" y="238" type="qcurve"/>
      <point x="148" y="238" type="line"/>
      <point x="151" y="209"/>
      <point x="174" y="162"/>
      <point x="191" y="145" type="qcurve"/>
      <point x="207" y="128"/>
      <point x="253" y="105"/>
      <point x="281" y="100" type="qcurve"/>
      <point x="281" y="310" type="line"/>
      <point x="218" y="320"/>
      <point x="127" y="357"/>
      <point x="99" y="385" type="qcurve"/>
      <point x="76" y="409"/>
      <point x="53" y="470"/>
      <point x="53" y="508" type="qcurve"/>
      <point x="53" y="551"/>
      <point x="79" y="621"/>
      <point x="104" y="646" type="qcurve"/>
      <point x="132" y="674"/>
      <point x="221" y="708"/>
      <point x="281" y="712" type="qcurve"/>
      <point x="281" y="831" type="line"/>
      <point x="362" y="831" type="line"/>
      <point x="362" y="710" type="line"/>
      <point x="415" y="705"/>
      <point x="500" y="670"/>
      <point x="530" y="641" type="qcurve"/>
      <point x="559" y="611"/>
      <point x="592" y="527"/>
      <point x="595" y="473" type="qcurve"/>
      <point x="470" y="473" type="line"/>
      <point x="468" y="504"/>
      <point x="452" y="552"/>
      <point x="436" y="568" type="qcurve"/>
      <point x="423" y="580"/>
      <point x="386" y="597"/>
      <point x="362" y="601" type="qcurve"/>
      <point x="362" y="412" type="line"/>
      <point x="384" y="408" type="line"/>
      <point x="442" y="398"/>
      <point x="528" y="361"/>
      <point x="556" y="333" type="qcurve"/>
      <point x="583" y="307"/>
      <point x="609" y="237"/>
      <point x="609" y="194" type="qcurve"/>
      <point x="609" y="149"/>
      <point x="583" y="80"/>
      <point x="558" y="55" type="qcurve"/>
      <point x="527" y="24"/>
      <point x="428" y="-10"/>
      <point x="362" y="-14" type="qcurve"/>
      <point x="362" y="-140" type="line"/>
    </contour>
    <contour>
      <point x="304" y="-118" type="line"/>
      <point x="339" y="-118" type="line"/>
      <point x="339" y="7" type="line"/>
      <point x="355" y="7" type="line"/>
      <point x="421" y="10"/>
      <point x="512" y="43"/>
      <point x="539" y="71" type="qcurve"/>
      <point x="563" y="94"/>
      <point x="586" y="157"/>
      <point x="586" y="194" type="qcurve"/>
      <point x="585" y="232"/>
      <point x="563" y="294"/>
      <point x="539" y="317" type="qcurve"/>
      <point x="514" y="342"/>
      <point x="434" y="377"/>
      <point x="380" y="387" type="qcurve"/>
      <point x="339" y="394" type="line"/>
      <point x="339" y="625" type="line"/>
      <point x="362" y="623" type="line"/>
      <point x="393" y="619"/>
      <point x="438" y="601"/>
      <point x="454" y="585" type="qcurve"/>
      <point x="470" y="569"/>
      <point x="488" y="525"/>
      <point x="492" y="495" type="qcurve"/>
      <point x="568" y="495" type="line"/>
      <point x="563" y="537"/>
      <point x="534" y="602"/>
      <point x="511" y="626" type="qcurve"/>
      <point x="485" y="652"/>
      <point x="409" y="683"/>
      <point x="361" y="688" type="qcurve"/>
      <point x="339" y="690" type="line"/>
      <point x="339" y="809" type="line"/>
      <point x="304" y="809" type="line"/>
      <point x="304" y="691" type="line"/>
      <point x="281" y="690" type="line"/>
      <point x="227" y="687"/>
      <point x="147" y="658"/>
      <point x="121" y="632" type="qcurve"/>
      <point x="99" y="610"/>
      <point x="76" y="548"/>
      <point x="76" y="508" type="qcurve"/>
      <point x="76" y="475"/>
      <point x="95" y="421"/>
      <point x="116" y="401" type="qcurve"/>
      <point x="141" y="376"/>
      <point x="223" y="343"/>
      <point x="281" y="333" type="qcurve"/>
      <point x="304" y="329" type="line"/>
      <point x="304" y="74" type="line"/>
      <point x="292" y="75" type="line"/>
      <point x="254" y="79"/>
      <point x="194" y="106"/>
      <point x="174" y="127" type="qcurve"/>
      <point x="157" y="143"/>
      <point x="134" y="188"/>
      <point x="129" y="216" type="qcurve"/>
      <point x="48" y="216" type="line"/>
      <point x="55" y="174"/>
      <point x="87" y="106"/>
      <point x="112" y="81" type="qcurve"/>
      <point x="142" y="51"/>
      <point x="228" y="14"/>
      <point x="282" y="9" type="qcurve"/>
      <point x="304" y="7" type="line"/>
    </contour>
    <contour>
      <point x="304" y="400" type="line"/>
      <point x="284" y="403" type="line"/>
      <point x="246" y="411"/>
      <point x="192" y="434"/>
      <point x="176" y="450" type="qcurve"/>
      <point x="163" y="463"/>
      <point x="151" y="494"/>
      <point x="151" y="513" type="qcurve"/>
      <point x="151" y="536"/>
      <point x="165" y="574"/>
      <point x="178" y="588" type="qcurve"/>
      <point x="194" y="604"/>
      <point x="245" y="622"/>
      <point x="281" y="625" type="qcurve"/>
      <point x="304" y="626" type="line"/>
    </contour>
    <contour>
      <point x="281" y="427" type="qcurve"/>
      <point x="281" y="603" type="line"/>
      <point x="251" y="601"/>
      <point x="208" y="585"/>
      <point x="195" y="572" type="qcurve"/>
      <point x="185" y="562"/>
      <point x="174" y="532"/>
      <point x="174" y="513" type="qcurve"/>
      <point x="174" y="499"/>
      <point x="183" y="475"/>
      <point x="193" y="465" type="qcurve"/>
      <point x="205" y="452"/>
      <point x="249" y="434"/>
    </contour>
    <contour>
      <point x="339" y="73" type="qcurve"/>
      <point x="339" y="323" type="line"/>
      <point x="364" y="319" type="line"/>
      <point x="401" y="313"/>
      <point x="459" y="288"/>
      <point x="477" y="270" type="qcurve"/>
      <point x="493" y="254"/>
      <point x="508" y="216"/>
      <point x="508" y="194" type="qcurve"/>
      <point x="508" y="167"/>
      <point x="493" y="127"/>
      <point x="479" y="112" type="qcurve"/>
      <point x="457" y="91"/>
      <point x="386" y="73"/>
    </contour>
    <contour>
      <point x="362" y="96" type="line"/>
      <point x="397" y="97"/>
      <point x="446" y="115"/>
      <point x="461" y="129" type="qcurve"/>
      <point x="473" y="141"/>
      <point x="484" y="173"/>
      <point x="485" y="194" type="qcurve"/>
      <point x="485" y="211"/>
      <point x="473" y="242"/>
      <point x="460" y="255" type="qcurve"/>
      <point x="445" y="270"/>
      <point x="396" y="291"/>
      <point x="362" y="297" type="qcurve"/>
    </contour>
  </outline>
</glyph>
<glyph name="percent" format="2">
  <advance width="738"/>
  <unicode hex="0025"/>
  <outline>
    <contour>
      <point x="175" y="400" type="qcurve"/>
      <point x="143" y="400"/>
      <point x="87" y="424"/>
      <point x="66" y="445" type="qcurve"/>
      <point x="45" y="466"/>
      <point x="20" y="524"/>
      <point x="20" y="557" type="qcurve"/>
      <point x="20" y="590"/>
      <point x="44" y="648"/>
      <point x="66" y="669" type="qcurve"/>
      <point x="87" y="690"/>
      <point x="143" y="714"/>
      <point x="175" y="714" type="qcurve"/>
      <point x="206" y="714"/>
      <point x="263" y="689"/>
      <point x="284" y="668" type="qcurve"/>
      <point x="305" y="647"/>
      <point x="330" y="590"/>
      <point x="330" y="557" type="qcurve"/>
      <point x="330" y="524"/>
      <point x="306" y="467"/>
      <point x="285" y="445" type="qcurve"/>
      <point x="263" y="424"/>
      <point x="207" y="400"/>
    </contour>
    <contour>
      <point x="96" y="0" type="line"/>
      <point x="522" y="700" type="line"/>
      <point x="642" y="700" type="line"/>
      <point x="216" y="0" type="line"/>
    </contour>
    <contour>
      <point x="175" y="422" type="qcurve"/>
      <point x="202" y="421"/>
      <point x="249" y="442"/>
      <point x="267" y="460" type="qcurve"/>
      <point x="286" y="478"/>
      <point x="307" y="529"/>
      <point x="307" y="557" type="qcurve"/>
      <point x="307" y="585"/>
      <point x="287" y="635"/>
      <point x="268" y="653" type="qcurve"/>
      <point x="250" y="671"/>
      <point x="202" y="692"/>
      <point x="175" y="692" type="qcurve"/>
      <point x="147" y="692"/>
      <point x="101" y="671"/>
      <point x="83" y="653" type="qcurve"/>
      <point x="64" y="635"/>
      <point x="43" y="585"/>
      <point x="43" y="557" type="qcurve"/>
      <point x="43" y="529"/>
      <point x="65" y="479"/>
      <point x="83" y="461" type="qcurve"/>
      <point x="100" y="443"/>
      <point x="148" y="422"/>
    </contour>
    <contour>
      <point x="136" y="22" type="line"/>
      <point x="203" y="22" type="line"/>
      <point x="602" y="678" type="line"/>
      <point x="535" y="678" type="line"/>
    </contour>
    <contour>
      <point x="175" y="468" type="qcurve"/>
      <point x="157" y="468"/>
      <point x="125" y="482"/>
      <point x="113" y="494" type="qcurve"/>
      <point x="101" y="506"/>
      <point x="87" y="538"/>
      <point x="87" y="557" type="qcurve"/>
      <point x="88" y="576"/>
      <point x="101" y="608"/>
      <point x="113" y="620" type="qcurve"/>
      <point x="125" y="632"/>
      <point x="157" y="646"/>
      <point x="175" y="646" type="qcurve"/>
      <point x="193" y="646"/>
      <point x="225" y="632"/>
      <point x="236" y="620" type="qcurve"/>
      <point x="249" y="608"/>
      <point x="263" y="575"/>
      <point x="263" y="557" type="qcurve"/>
      <point x="263" y="538"/>
      <point x="249" y="506"/>
      <point x="237" y="494" type="qcurve"/>
      <point x="225" y="482"/>
      <point x="193" y="468"/>
    </contour>
    <contour>
      <point x="175" y="490" type="qcurve"/>
      <point x="188" y="490"/>
      <point x="212" y="500"/>
      <point x="221" y="508" type="qcurve"/>
      <point x="229" y="518"/>
      <point x="240" y="543"/>
      <point x="240" y="557" type="qcurve"/>
      <point x="240" y="571"/>
      <point x="229" y="596"/>
      <point x="220" y="605" type="qcurve"/>
      <point x="211" y="614"/>
      <point x="188" y="624"/>
      <point x="175" y="624" type="qcurve"/>
      <point x="162" y="624"/>
      <point x="138" y="614"/>
      <point x="129" y="605" type="qcurve"/>
      <point x="120" y="596"/>
      <point x="109" y="571"/>
      <point x="110" y="557" type="qcurve"/>
      <point x="110" y="543"/>
      <point x="120" y="518"/>
      <point x="129" y="509" type="qcurve"/>
      <point x="138" y="500"/>
      <point x="162" y="490"/>
    </contour>
    <contour>
      <point x="562" y="-14" type="qcurve"/>
      <point x="531" y="-14"/>
      <point x="474" y="11"/>
      <point x="453" y="31" type="qcurve"/>
      <point x="431" y="52"/>
      <point x="407" y="110"/>
      <point x="407" y="143" type="qcurve"/>
      <point x="406" y="176"/>
      <point x="432" y="233"/>
      <point x="453" y="255" type="qcurve"/>
      <point x="474" y="276"/>
      <point x="530" y="300"/>
      <point x="562" y="300" type="qcurve"/>
      <point x="593" y="300"/>
      <point x="650" y="275"/>
      <point x="671" y="255" type="qcurve"/>
      <point x="692" y="233"/>
      <point x="717" y="176"/>
      <point x="717" y="143" type="qcurve"/>
      <point x="717" y="111"/>
      <point x="692" y="52"/>
      <point x="671" y="31" type="qcurve"/>
      <point x="650" y="10"/>
      <point x="594" y="-14"/>
    </contour>
    <contour>
      <point x="562" y="8" type="qcurve"/>
      <point x="589" y="8"/>
      <point x="636" y="29"/>
      <point x="654" y="47" type="qcurve"/>
      <point x="672" y="65"/>
      <point x="694" y="115"/>
      <point x="694" y="143" type="qcurve"/>
      <point x="694" y="171"/>
      <point x="673" y="222"/>
      <point x="654" y="240" type="qcurve"/>
      <point x="636" y="258"/>
      <point x="589" y="278"/>
      <point x="562" y="278" type="qcurve"/>
      <point x="535" y="278"/>
      <point x="487" y="258"/>
      <point x="469" y="240" type="qcurve"/>
      <point x="451" y="221"/>
      <point x="430" y="171"/>
      <point x="430" y="143" type="qcurve"/>
      <point x="431" y="115"/>
      <point x="452" y="65"/>
      <point x="470" y="47" type="qcurve"/>
      <point x="488" y="29"/>
      <point x="535" y="8"/>
    </contour>
    <contour>
      <point x="562" y="54" type="qcurve"/>
      <point x="544" y="54"/>
      <point x="512" y="68"/>
      <point x="501" y="80" type="qcurve"/>
      <point x="488" y="92"/>
      <point x="474" y="124"/>
      <point x="474" y="143" type="qcurve"/>
      <point x="474" y="162"/>
      <point x="488" y="195"/>
      <point x="500" y="206" type="qcurve"/>
      <point x="512" y="218"/>
      <point x="544" y="232"/>
      <point x="562" y="232" type="qcurve"/>
      <point x="580" y="232"/>
      <point x="611" y="218"/>
      <point x="624" y="206" type="qcurve"/>
      <point x="636" y="194"/>
      <point x="650" y="162"/>
      <point x="650" y="143" type="qcurve"/>
      <point x="650" y="124"/>
      <point x="636" y="92"/>
      <point x="624" y="80" type="qcurve"/>
      <point x="612" y="68"/>
      <point x="580" y="54"/>
    </contour>
    <contour>
      <point x="562" y="76" type="qcurve"/>
      <point x="575" y="76"/>
      <point x="598" y="86"/>
      <point x="607" y="95" type="qcurve"/>
      <point x="616" y="104"/>
      <point x="627" y="129"/>
      <point x="627" y="143" type="qcurve"/>
      <point x="627" y="156"/>
      <point x="616" y="182"/>
      <point x="607" y="191" type="qcurve"/>
      <point x="598" y="200"/>
      <point x="575" y="210"/>
      <point x="562" y="210" type="qcurve"/>
      <point x="549" y="210"/>
      <point x="526" y="200"/>
      <point x="517" y="191" type="qcurve"/>
      <point x="508" y="182"/>
      <point x="497" y="157"/>
      <point x="497" y="143" type="qcurve"/>
      <point x="497" y="129"/>
      <point x="508" y="104"/>
      <point x="517" y="95" type="qcurve"/>
      <point x="525" y="86"/>
      <point x="549" y="76"/>
    </contour>
  </outline>
</glyph>
<glyph name="ampersand" format="2">
  <advance width="636"/>
  <unicode hex="0026"/>
  <outline>
    <contour>
      <point x="541" y="143" type="qcurve"/>
      <point x="659" y="0" type="line"/>
      <point x="519" y="0" type="line"/>
      <point x="473" y="56" type="line"/>
      <point x="430" y="18"/>
      <point x="326" y="-13"/>
      <point x="266" y="-13" type="qcurve"/>
      <point x="203" y="-13"/>
      <point x="103" y="22"/>
      <point x="71" y="54" type="qcurve"/>
      <point x="46" y="79"/>
      <point x="19" y="147"/>
      <point x="18" y="188" type="qcurve"/>
      <point x="19" y="231"/>
      <point x="47" y="304"/>
      <point x="78" y="335" type="qcurve"/>
      <point x="97" y="354"/>
      <point x="149" y="389"/>
      <point x="183" y="405" type="qcurve"/>
      <point x="146" y="450"/>
      <point x="115" y="521"/>
      <point x="115" y="561" type="qcurve"/>
      <point x="115" y="592"/>
      <point x="135" y="645"/>
      <point x="155" y="665" type="qcurve"/>
      <point x="177" y="687"/>
      <point x="251" y="714"/>
      <point x="302" y="714" type="qcurve"/>
      <point x="349" y="714"/>
      <point x="421" y="688"/>
      <point x="445" y="665" type="qcurve"/>
      <point x="466" y="644"/>
      <point x="487" y="586"/>
      <point x="488" y="552" type="qcurve"/>
      <point x="488" y="519"/>
      <point x="465" y="463"/>
      <point x="440" y="438" type="qcurve"/>
      <point x="423" y="422"/>
      <point x="376" y="390"/>
      <point x="346" y="377" type="qcurve"/>
      <point x="462" y="236" type="line"/>
      <point x="469" y="256"/>
      <point x="485" y="311"/>
      <point x="492" y="349" type="qcurve"/>
      <point x="610" y="349" type="line"/>
      <point x="590" y="270"/>
      <point x="554" y="172"/>
    </contour>
    <contour>
      <point x="474" y="90" type="qcurve"/>
      <point x="530" y="22" type="line"/>
      <point x="612" y="22" type="line"/>
      <point x="514" y="140" type="line"/>
      <point x="526" y="165"/>
      <point x="561" y="250"/>
      <point x="580" y="327" type="qcurve"/>
      <point x="512" y="327" type="line"/>
      <point x="502" y="278"/>
      <point x="478" y="213"/>
      <point x="470" y="191" type="qcurve"/>
      <point x="310" y="384" type="line"/>
      <point x="347" y="400"/>
      <point x="404" y="434"/>
      <point x="423" y="453" type="qcurve"/>
      <point x="444" y="474"/>
      <point x="464" y="522"/>
      <point x="465" y="550" type="qcurve"/>
      <point x="465" y="580"/>
      <point x="446" y="630"/>
      <point x="428" y="648" type="qcurve"/>
      <point x="407" y="669"/>
      <point x="342" y="692"/>
      <point x="302" y="692" type="qcurve"/>
      <point x="257" y="692"/>
      <point x="191" y="670"/>
      <point x="171" y="650" type="qcurve"/>
      <point x="155" y="634"/>
      <point x="138" y="589"/>
      <point x="138" y="561" type="qcurve"/>
      <point x="138" y="515"/>
      <point x="181" y="443"/>
      <point x="218" y="397" type="qcurve"/>
      <point x="176" y="380"/>
      <point x="114" y="342"/>
      <point x="93" y="320" type="qcurve"/>
      <point x="66" y="293"/>
      <point x="42" y="230"/>
      <point x="41" y="190" type="qcurve"/>
      <point x="42" y="153"/>
      <point x="66" y="92"/>
      <point x="89" y="70" type="qcurve"/>
      <point x="119" y="41"/>
      <point x="211" y="9"/>
      <point x="268" y="9" type="qcurve"/>
      <point x="317" y="9"/>
      <point x="428" y="43"/>
      <point x="463" y="78" type="qcurve"/>
      <point x="466" y="81"/>
      <point x="472" y="87"/>
    </contour>
    <contour>
      <point x="277" y="423" type="qcurve"/>
      <point x="236" y="463"/>
      <point x="203" y="527"/>
      <point x="203" y="552" type="qcurve"/>
      <point x="203" y="569"/>
      <point x="215" y="599"/>
      <point x="226" y="610" type="qcurve"/>
      <point x="239" y="623"/>
      <point x="277" y="637"/>
      <point x="301" y="637" type="qcurve"/>
      <point x="329" y="637"/>
      <point x="368" y="622"/>
      <point x="381" y="610" type="qcurve"/>
      <point x="392" y="599"/>
      <point x="404" y="569"/>
      <point x="404" y="553" type="qcurve"/>
      <point x="404" y="532"/>
      <point x="389" y="498"/>
      <point x="374" y="482" type="qcurve"/>
      <point x="359" y="467"/>
      <point x="311" y="439"/>
    </contour>
    <contour>
      <point x="243" y="595" type="qcurve"/>
      <point x="235" y="587"/>
      <point x="226" y="565"/>
      <point x="226" y="552" type="qcurve"/>
      <point x="226" y="533"/>
      <point x="250" y="484"/>
      <point x="284" y="450" type="qcurve"/>
      <point x="309" y="462"/>
      <point x="345" y="484"/>
      <point x="356" y="496" type="qcurve"/>
      <point x="369" y="509"/>
      <point x="381" y="537"/>
      <point x="381" y="553" type="qcurve"/>
      <point x="381" y="566"/>
      <point x="372" y="586"/>
      <point x="365" y="593" type="qcurve"/>
      <point x="355" y="603"/>
      <point x="322" y="614"/>
      <point x="301" y="615" type="qcurve"/>
      <point x="283" y="614"/>
      <point x="253" y="605"/>
    </contour>
    <contour>
      <point x="242" y="352" type="qcurve"/>
      <point x="252" y="357" type="line"/>
      <point x="438" y="134" type="line"/>
      <point x="405" y="98"/>
      <point x="318" y="69"/>
      <point x="268" y="69" type="qcurve"/>
      <point x="228" y="69"/>
      <point x="167" y="90"/>
      <point x="148" y="110" type="qcurve"/>
      <point x="133" y="125"/>
      <point x="117" y="165"/>
      <point x="117" y="190" type="qcurve"/>
      <point x="116" y="222"/>
      <point x="137" y="275"/>
      <point x="159" y="297" type="qcurve"/>
      <point x="174" y="312"/>
      <point x="216" y="339"/>
    </contour>
    <contour>
      <point x="268" y="91" type="qcurve"/>
      <point x="312" y="91"/>
      <point x="380" y="110"/>
      <point x="408" y="135" type="qcurve"/>
      <point x="246" y="329" type="line"/>
      <point x="252" y="332" type="line"/>
      <point x="228" y="321"/>
      <point x="190" y="297"/>
      <point x="177" y="284" type="qcurve"/>
      <point x="158" y="265"/>
      <point x="140" y="219"/>
      <point x="140" y="191" type="qcurve"/>
      <point x="140" y="172"/>
      <point x="152" y="138"/>
      <point x="165" y="125" type="qcurve"/>
      <point x="182" y="109"/>
      <point x="234" y="91"/>
    </contour>
    <contour>
      <point x="268" y="69" type="line"/>
      <point x="267" y="69" type="line"/>
    </contour>
    <contour>
      <point x="266" y="-13" type="line"/>
      <point x="265" y="-13" type="line"/>
    </contour>
  </outline>
</glyph>
<glyph name="quotesingle" format="2">
  <advance width="214"/>
  <unicode hex="0027"/>
  <outline>
    <contour>
      <point x="64" y="421" type="line"/>
      <point x="45" y="700" type="line"/>
      <point x="169" y="700" type="line"/>
      <point x="150" y="421" type="line"/>
    </contour>
    <contour>
      <point x="86" y="443" type="line"/>
      <point x="128" y="443" type="line"/>
      <point x="144" y="678" type="line"/>
      <point x="70" y="678" type="line"/>
    </contour>
  </outline>
</glyph>
<glyph name="parenleft" format="2">
  <advance width="366"/>
  <unicode hex="0028"/>
  <outline>
    <contour>
      <point x="194" y="-160" type="line"/>
      <point x="195" y="-4" type="line"/>
      <point x="130" y="56"/>
      <point x="68" y="208"/>
      <point x="68" y="303" type="qcurve"/>
      <point x="68" y="391"/>
      <point x="136" y="563"/>
      <point x="194" y="620" type="qcurve"/>
      <point x="195" y="782" type="line"/>
      <point x="307" y="782" type="line"/>
      <point x="307" y="594" type="line"/>
      <point x="297" y="587"/>
      <point x="280" y="571"/>
      <point x="272" y="564" type="qcurve"/>
      <point x="223" y="514"/>
      <point x="172" y="383"/>
      <point x="173" y="303" type="qcurve"/>
      <point x="173" y="228"/>
      <point x="225" y="103"/>
      <point x="279" y="49" type="qcurve"/>
      <point x="286" y="42"/>
      <point x="300" y="29"/>
      <point x="308" y="22" type="qcurve"/>
      <point x="308" y="-160" type="line"/>
    </contour>
    <contour>
      <point x="218" y="-138" type="line"/>
      <point x="284" y="-138" type="line"/>
      <point x="284" y="12" type="line"/>
      <point x="277" y="18"/>
      <point x="262" y="32"/>
      <point x="256" y="38" type="qcurve"/>
      <point x="201" y="92"/>
      <point x="151" y="219"/>
      <point x="151" y="298" type="qcurve"/>
      <point x="151" y="383"/>
      <point x="206" y="527"/>
      <point x="261" y="582" type="qcurve"/>
      <point x="266" y="588"/>
      <point x="278" y="599"/>
      <point x="284" y="604" type="qcurve"/>
      <point x="285" y="760" type="line"/>
      <point x="217" y="760" type="line"/>
      <point x="217" y="611" type="line"/>
      <point x="158" y="558"/>
      <point x="90" y="393"/>
      <point x="91" y="303" type="qcurve"/>
      <point x="91" y="220"/>
      <point x="146" y="77"/>
      <point x="201" y="23" type="qcurve"/>
      <point x="205" y="19"/>
      <point x="214" y="10"/>
      <point x="218" y="6" type="qcurve"/>
    </contour>
  </outline>
</glyph>
<glyph name="parenright" format="2">
  <advance width="366"/>
  <unicode hex="0029"/>
  <outline>
    <contour>
      <point x="58" y="-160" type="line"/>
      <point x="58" y="22" type="line"/>
      <point x="65" y="28"/>
      <point x="80" y="42"/>
      <point x="87" y="49" type="qcurve"/>
      <point x="141" y="103"/>
      <point x="193" y="227"/>
      <point x="193" y="303" type="qcurve"/>
      <point x="194" y="383"/>
      <point x="143" y="514"/>
      <point x="94" y="564" type="qcurve"/>
      <point x="86" y="571"/>
      <point x="69" y="587"/>
      <point x="59" y="594" type="qcurve"/>
      <point x="59" y="782" type="line"/>
      <point x="171" y="782" type="line"/>
      <point x="172" y="620" type="line"/>
      <point x="230" y="563"/>
      <point x="298" y="391"/>
      <point x="298" y="303" type="qcurve"/>
      <point x="298" y="208"/>
      <point x="236" y="56"/>
      <point x="171" y="-4" type="qcurve"/>
      <point x="172" y="-160" type="line"/>
    </contour>
    <contour>
      <point x="82" y="-138" type="line"/>
      <point x="148" y="-138" type="line"/>
      <point x="148" y="6" type="line"/>
      <point x="152" y="10"/>
      <point x="161" y="19"/>
      <point x="165" y="23" type="qcurve"/>
      <point x="220" y="78"/>
      <point x="275" y="220"/>
      <point x="275" y="303" type="qcurve"/>
      <point x="276" y="393"/>
      <point x="208" y="558"/>
      <point x="149" y="611" type="qcurve"/>
      <point x="149" y="760" type="line"/>
      <point x="81" y="760" type="line"/>
      <point x="82" y="604" type="line"/>
      <point x="88" y="599"/>
      <point x="100" y="587"/>
      <point x="106" y="581" type="qcurve"/>
      <point x="159" y="528"/>
      <point x="215" y="388"/>
      <point x="215" y="307" type="qcurve"/>
      <point x="216" y="224"/>
      <point x="166" y="94"/>
      <point x="109" y="37" type="qcurve"/>
      <point x="103" y="30"/>
      <point x="89" y="18"/>
      <point x="82" y="12" type="qcurve"/>
    </contour>
  </outline>
</glyph>
<glyph name="asterisk" format="2">
  <advance width="855"/>
  <unicode hex="002A"/>
  <outline>
    <contour>
      <point x="317" y="-40" type="line"/>
      <point x="104" y="125" type="line"/>
      <point x="405" y="321" type="line"/>
      <point x="40" y="321" type="line"/>
      <point x="128" y="555" type="line"/>
      <point x="413" y="349" type="line"/>
      <point x="311" y="700" type="line"/>
      <point x="543" y="700" type="line"/>
      <point x="441" y="348" type="line"/>
      <point x="727" y="555" type="line"/>
      <point x="815" y="321" type="line"/>
      <point x="449" y="321" type="line"/>
      <point x="750" y="125" type="line"/>
      <point x="537" y="-40" type="line"/>
      <point x="427" y="299" type="line"/>
    </contour>
    <contour>
      <point x="427" y="382" type="line"/>
      <point x="513" y="678" type="line"/>
      <point x="341" y="678" type="line"/>
    </contour>
    <contour>
      <point x="72" y="343" type="line"/>
      <point x="383" y="343" type="line"/>
      <point x="139" y="519" type="line"/>
    </contour>
    <contour>
      <point x="472" y="343" type="line"/>
      <point x="783" y="343" type="line"/>
      <point x="716" y="519" type="line"/>
    </contour>
    <contour>
      <point x="305" y="-2" type="line"/>
      <point x="400" y="291" type="line"/>
      <point x="142" y="123" type="line"/>
    </contour>
    <contour>
      <point x="549" y="-2" type="line"/>
      <point x="712" y="123" type="line"/>
      <point x="454" y="291" type="line"/>
    </contour>
  </outline>
</glyph>
<glyph name="plus" format="2">
  <advance width="630"/>
  <unicode hex="002B"/>
  <outline>
    <contour>
      <point x="580" y="363" type="line"/>
      <point x="580" y="341" type="line"/>
      <point x="327" y="341" type="line"/>
      <point x="327" y="87" type="line"/>
      <point x="304" y="87" type="line"/>
      <point x="304" y="342" type="line"/>
      <point x="50" y="342" type="line"/>
      <point x="50" y="364" type="line"/>
      <point x="304" y="364" type="line"/>
      <point x="304" y="617" type="line"/>
      <point x="327" y="617" type="line"/>
      <point x="327" y="363" type="line"/>
    </contour>
  </outline>
</glyph>
<glyph name="comma" format="2">
  <advance width="226"/>
  <unicode hex="002C"/>
  <outline>
    <contour>
      <point x="43" y="-166" type="line"/>
      <point x="42" y="-93" type="line"/>
      <point x="45" y="-93"/>
      <point x="51" y="-94"/>
      <point x="54" y="-94" type="qcurve"/>
      <point x="67" y="-94"/>
      <point x="86" y="-87"/>
      <point x="93" y="-80" type="qcurve"/>
      <point x="102" y="-71"/>
      <point x="111" y="-41"/>
      <point x="111" y="-20" type="qcurve"/>
      <point x="111" y="0" type="line"/>
      <point x="40" y="0" type="line"/>
      <point x="40" y="135" type="line"/>
      <point x="186" y="135" type="line"/>
      <point x="186" y="0" type="line"/>
      <point x="186" y="-46"/>
      <point x="166" y="-116"/>
      <point x="146" y="-136" type="qcurve"/>
      <point x="131" y="-151"/>
      <point x="90" y="-166"/>
      <point x="64" y="-166" type="qcurve"/>
    </contour>
    <contour>
      <point x="66" y="-144" type="line"/>
      <point x="85" y="-144"/>
      <point x="116" y="-132"/>
      <point x="127" y="-121" type="qcurve"/>
      <point x="145" y="-102"/>
      <point x="163" y="-41"/>
      <point x="163" y="0" type="qcurve"/>
      <point x="163" y="113" type="line"/>
      <point x="63" y="113" type="line"/>
      <point x="63" y="22" type="line"/>
      <point x="134" y="22" type="line"/>
      <point x="134" y="-20" type="line"/>
      <point x="134" y="-45"/>
      <point x="122" y="-84"/>
      <point x="109" y="-96" type="qcurve"/>
      <point x="101" y="-104"/>
      <point x="79" y="-114"/>
      <point x="66" y="-115" type="qcurve"/>
    </contour>
  </outline>
</glyph>
<glyph name="hyphen" format="2">
  <advance width="318"/>
  <unicode hex="002D"/>
  <outline>
    <contour>
      <point x="25" y="225" type="line"/>
      <point x="25" y="334" type="line"/>
      <point x="293" y="334" type="line"/>
      <point x="293" y="225" type="line"/>
    </contour>
    <contour>
      <point x="48" y="247" type="line"/>
      <point x="270" y="247" type="line"/>
      <point x="270" y="312" type="line"/>
      <point x="48" y="312" type="line"/>
    </contour>
  </outline>
</glyph>
<glyph name="period" format="2">
  <advance width="252"/>
  <unicode hex="002E"/>
  <outline>
    <contour>
      <point x="55" y="-1" type="line"/>
      <point x="55" y="137" type="line"/>
      <point x="197" y="137" type="line"/>
      <point x="197" y="-1" type="line"/>
    </contour>
    <contour>
      <point x="78" y="21" type="line"/>
      <point x="174" y="21" type="line"/>
      <point x="174" y="115" type="line"/>
      <point x="78" y="115" type="line"/>
    </contour>
  </outline>
</glyph>
<glyph name="slash" format="2">
  <advance width="422"/>
  <unicode hex="002F"/>
  <outline>
    <contour>
      <point x="6" y="-124" type="line"/>
      <point x="-14" y="-114" type="line"/>
      <point x="392" y="764" type="line"/>
      <point x="412" y="754" type="line"/>
    </contour>
  </outline>
</glyph>
<glyph name="zero" format="2">
  <advance width="578"/>
  <unicode hex="0030"/>
  <outline>
    <contour>
      <point x="290" y="-14" type="qcurve"/>
      <point x="236" y="-13"/>
      <point x="147" y="19"/>
      <point x="115" y="52" type="qcurve"/>
      <point x="71" y="96"/>
      <point x="26" y="245"/>
      <point x="25" y="347" type="qcurve"/>
      <point x="25" y="451"/>
      <point x="71" y="603"/>
      <point x="116" y="648" type="qcurve"/>
      <point x="148" y="680"/>
      <point x="234" y="713"/>
      <point x="288" y="714" type="qcurve"/>
      <point x="342" y="713"/>
      <point x="429" y="681"/>
      <point x="462" y="648" type="qcurve"/>
      <point x="506" y="604"/>
      <point x="552" y="453"/>
      <point x="553" y="349" type="qcurve"/>
      <point x="553" y="246"/>
      <point x="507" y="96"/>
      <point x="462" y="51" type="qcurve"/>
      <point x="431" y="19"/>
      <point x="344" y="-14"/>
    </contour>
    <contour>
      <point x="290" y="8" type="qcurve"/>
      <point x="336" y="8"/>
      <point x="414" y="39"/>
      <point x="442" y="68" type="qcurve"/>
      <point x="485" y="110"/>
      <point x="529" y="251"/>
      <point x="530" y="347" type="qcurve"/>
      <point x="529" y="446"/>
      <point x="485" y="589"/>
      <point x="442" y="632" type="qcurve"/>
      <point x="413" y="661"/>
      <point x="335" y="692"/>
      <point x="288" y="692" type="qcurve"/>
      <point x="242" y="692"/>
      <point x="164" y="662"/>
      <point x="135" y="633" type="qcurve"/>
      <point x="92" y="590"/>
      <point x="48" y="447"/>
      <point x="49" y="349" type="qcurve"/>
      <point x="49" y="251"/>
      <point x="93" y="110"/>
      <point x="135" y="69" type="qcurve"/>
      <point x="165" y="39"/>
      <point x="243" y="8"/>
    </contour>
    <contour>
      <point x="288" y="74" type="qcurve"/>
      <point x="257" y="74"/>
      <point x="209" y="92"/>
      <point x="190" y="111" type="qcurve"/>
      <point x="159" y="142"/>
      <point x="128" y="260"/>
      <point x="127" y="346" type="qcurve"/>
      <point x="127" y="436"/>
      <point x="158" y="557"/>
      <point x="190" y="589" type="qcurve"/>
      <point x="209" y="608"/>
      <point x="259" y="626"/>
      <point x="290" y="626" type="qcurve"/>
      <point x="320" y="626"/>
      <point x="369" y="608"/>
      <point x="388" y="589" type="qcurve"/>
      <point x="419" y="558"/>
      <point x="450" y="437"/>
      <point x="451" y="349" type="qcurve"/>
      <point x="451" y="262"/>
      <point x="419" y="142"/>
      <point x="388" y="111" type="qcurve"/>
      <point x="369" y="92"/>
      <point x="319" y="74"/>
    </contour>
    <contour>
      <point x="288" y="96" type="qcurve"/>
      <point x="313" y="95"/>
      <point x="355" y="112"/>
      <point x="371" y="128" type="qcurve"/>
      <point x="399" y="156"/>
      <point x="428" y="265"/>
      <point x="428" y="346" type="qcurve"/>
      <point x="428" y="430"/>
      <point x="399" y="545"/>
      <point x="370" y="573" type="qcurve"/>
      <point x="354" y="589"/>
      <point x="314" y="605"/>
      <point x="290" y="604" type="qcurve"/>
      <point x="265" y="605"/>
      <point x="224" y="589"/>
      <point x="208" y="573" type="qcurve"/>
      <point x="180" y="544"/>
      <point x="150" y="432"/>
      <point x="151" y="349" type="qcurve"/>
      <point x="150" y="266"/>
      <point x="179" y="155"/>
      <point x="208" y="127" type="qcurve"/>
      <point x="224" y="111"/>
      <point x="263" y="95"/>
    </contour>
  </outline>
</glyph>
<glyph name="one" format="2">
  <advance width="530"/>
  <unicode hex="0031"/>
  <outline>
    <contour>
      <point x="49" y="0" type="line"/>
      <point x="49" y="118" type="line"/>
      <point x="214" y="118" type="line"/>
      <point x="214" y="464" type="line"/>
      <point x="50" y="464" type="line"/>
      <point x="50" y="557" type="line"/>
      <point x="66" y="557" type="line"/>
      <point x="112" y="557"/>
      <point x="176" y="571"/>
      <point x="195" y="586" type="qcurve"/>
      <point x="214" y="601"/>
      <point x="231" y="649"/>
      <point x="231" y="684" type="qcurve"/>
      <point x="231" y="700" type="line"/>
      <point x="331" y="700" type="line"/>
      <point x="331" y="118" type="line"/>
      <point x="482" y="118" type="line"/>
      <point x="482" y="0" type="line"/>
    </contour>
    <contour>
      <point x="71" y="22" type="line"/>
      <point x="460" y="22" type="line"/>
      <point x="460" y="96" type="line"/>
      <point x="309" y="96" type="line"/>
      <point x="309" y="678" type="line"/>
      <point x="253" y="678" type="line"/>
      <point x="252" y="643"/>
      <point x="236" y="594"/>
      <point x="218" y="576" type="qcurve"/>
      <point x="209" y="569" type="line"/>
      <point x="187" y="552"/>
      <point x="120" y="536"/>
      <point x="72" y="535" type="qcurve"/>
      <point x="72" y="486" type="line"/>
      <point x="236" y="486" type="line"/>
      <point x="236" y="96" type="line"/>
      <point x="71" y="96" type="line"/>
    </contour>
  </outline>
</glyph>
<glyph name="two" format="2">
  <advance width="524"/>
  <unicode hex="0032"/>
  <outline>
    <contour>
      <point x="26" y="0" type="line"/>
      <point x="26" y="101" type="line"/>
      <point x="116" y="152"/>
      <point x="247" y="244"/>
      <point x="290" y="287" type="qcurve"/>
      <point x="341" y="338"/>
      <point x="386" y="433"/>
      <point x="386" y="480" type="qcurve"/>
      <point x="386" y="510"/>
      <point x="368" y="557"/>
      <point x="352" y="573" type="qcurve"/>
      <point x="336" y="589"/>
      <point x="289" y="606"/>
      <point x="261" y="606" type="qcurve"/>
      <point x="232" y="606"/>
      <point x="186" y="590"/>
      <point x="170" y="574" type="qcurve"/>
      <point x="151" y="555"/>
      <point x="133" y="494"/>
      <point x="134" y="451" type="qcurve"/>
      <point x="15" y="451" type="line"/>
      <point x="13" y="514"/>
      <point x="46" y="614"/>
      <point x="80" y="648" type="qcurve"/>
      <point x="112" y="680"/>
      <point x="205" y="714"/>
      <point x="262" y="714" type="qcurve"/>
      <point x="319" y="713"/>
      <point x="410" y="681"/>
      <point x="441" y="649" type="qcurve"/>
      <point x="471" y="619"/>
      <point x="504" y="531"/>
      <point x="504" y="476" type="qcurve"/>
      <point x="504" y="415"/>
      <point x="442" y="281"/>
      <point x="381" y="219" type="qcurve"/>
      <point x="350" y="189"/>
      <point x="276" y="133"/>
      <point x="232" y="108" type="qcurve"/>
      <point x="517" y="108" type="line"/>
      <point x="517" y="0" type="line"/>
    </contour>
    <contour>
      <point x="50" y="22" type="line"/>
      <point x="494" y="22" type="line"/>
      <point x="494" y="86" type="line"/>
      <point x="167" y="86" type="line"/>
      <point x="167" y="99" type="line"/>
      <point x="230" y="132"/>
      <point x="331" y="203"/>
      <point x="368" y="240" type="qcurve"/>
      <point x="425" y="297"/>
      <point x="481" y="418"/>
      <point x="481" y="478" type="qcurve"/>
      <point x="481" y="527"/>
      <point x="452" y="605"/>
      <point x="424" y="633" type="qcurve"/>
      <point x="396" y="661"/>
      <point x="313" y="692"/>
      <point x="263" y="692" type="qcurve"/>
      <point x="211" y="692"/>
      <point x="125" y="662"/>
      <point x="96" y="634" type="qcurve"/>
      <point x="69" y="606"/>
      <point x="39" y="525"/>
      <point x="38" y="473" type="qcurve"/>
      <point x="111" y="473" type="line"/>
      <point x="112" y="510"/>
      <point x="134" y="569"/>
      <point x="153" y="588" type="qcurve"/>
      <point x="172" y="607"/>
      <point x="227" y="628"/>
      <point x="261" y="628" type="qcurve"/>
      <point x="293" y="628"/>
      <point x="349" y="607"/>
      <point x="368" y="588" type="qcurve"/>
      <point x="387" y="569"/>
      <point x="408" y="514"/>
      <point x="409" y="478" type="qcurve"/>
      <point x="409" y="429"/>
      <point x="358" y="325"/>
      <point x="304" y="271" type="qcurve"/>
      <point x="261" y="228"/>
      <point x="134" y="137"/>
      <point x="50" y="88" type="qcurve"/>
    </contour>
  </outline>
</glyph>
<glyph name="three" format="2">
  <advance width="557"/>
  <unicode hex="0033"/>
  <outline>
    <contour>
      <point x="280" y="-14" type="qcurve"/>
      <point x="221" y="-14"/>
      <point x="124" y="21"/>
      <point x="90" y="55" type="qcurve"/>
      <point x="59" y="86"/>
      <point x="23" y="174"/>
      <point x="19" y="230" type="qcurve"/>
      <point x="138" y="230" type="line"/>
      <point x="139" y="198"/>
      <point x="160" y="148"/>
      <point x="176" y="131" type="qcurve"/>
      <point x="195" y="113"/>
      <point x="247" y="95"/>
      <point x="280" y="95" type="qcurve"/>
      <point x="308" y="95"/>
      <point x="357" y="112"/>
      <point x="374" y="130" type="qcurve"/>
      <point x="390" y="146"/>
      <point x="409" y="195"/>
      <point x="409" y="227" type="qcurve"/>
      <point x="409" y="256"/>
      <point x="393" y="300"/>
      <point x="379" y="315" type="qcurve"/>
      <point x="362" y="332"/>
      <point x="309" y="349"/>
      <point x="274" y="349" type="qcurve"/>
      <point x="239" y="349"/>
      <point x="185" y="337"/>
      <point x="166" y="331" type="qcurve"/>
      <point x="167" y="430" type="line"/>
      <point x="330" y="591" type="line"/>
      <point x="49" y="592" type="line"/>
      <point x="49" y="700" type="line"/>
      <point x="499" y="700" type="line"/>
      <point x="499" y="606" type="line"/>
      <point x="335" y="443" type="line"/>
      <point x="377" y="439"/>
      <point x="445" y="408"/>
      <point x="470" y="383" type="qcurve"/>
      <point x="498" y="355"/>
      <point x="530" y="275"/>
      <point x="530" y="227" type="qcurve"/>
      <point x="530" y="173"/>
      <point x="498" y="84"/>
      <point x="467" y="53" type="qcurve"/>
      <point x="435" y="21"/>
      <point x="340" y="-14"/>
    </contour>
    <contour>
      <point x="281" y="8" type="qcurve"/>
      <point x="335" y="7"/>
      <point x="421" y="38"/>
      <point x="450" y="67" type="qcurve"/>
      <point x="478" y="95"/>
      <point x="507" y="175"/>
      <point x="507" y="226" type="qcurve"/>
      <point x="507" y="270"/>
      <point x="478" y="342"/>
      <point x="453" y="368" type="qcurve"/>
      <point x="427" y="393"/>
      <point x="353" y="422"/>
      <point x="307" y="422" type="qcurve"/>
      <point x="301" y="422"/>
      <point x="288" y="422"/>
      <point x="281" y="421" type="qcurve"/>
      <point x="475" y="615" type="line"/>
      <point x="476" y="678" type="line"/>
      <point x="71" y="678" type="line"/>
      <point x="72" y="614" type="line"/>
      <point x="385" y="613" type="line"/>
      <point x="190" y="421" type="line"/>
      <point x="190" y="361" type="line"/>
      <point x="207" y="365"/>
      <point x="249" y="371"/>
      <point x="274" y="371" type="qcurve"/>
      <point x="314" y="370"/>
      <point x="375" y="350"/>
      <point x="395" y="330" type="qcurve"/>
      <point x="413" y="312"/>
      <point x="431" y="260"/>
      <point x="432" y="226" type="qcurve"/>
      <point x="432" y="192"/>
      <point x="409" y="135"/>
      <point x="389" y="115" type="qcurve"/>
      <point x="370" y="95"/>
      <point x="312" y="73"/>
      <point x="278" y="73" type="qcurve"/>
      <point x="240" y="72"/>
      <point x="180" y="94"/>
      <point x="160" y="113" type="qcurve"/>
      <point x="144" y="130"/>
      <point x="121" y="178"/>
      <point x="117" y="208" type="qcurve"/>
      <point x="44" y="208" type="line"/>
      <point x="50" y="165"/>
      <point x="81" y="96"/>
      <point x="106" y="71" type="qcurve"/>
      <point x="137" y="40"/>
      <point x="226" y="9"/>
    </contour>
  </outline>
</glyph>
<glyph name="four" format="2">
  <advance width="602"/>
  <unicode hex="0034"/>
  <outline>
    <contour>
      <point x="348" y="0" type="line"/>
      <point x="348" y="187" type="line"/>
      <point x="31" y="187" type="line"/>
      <point x="31" y="291" type="line"/>
      <point x="345" y="700" type="line"/>
      <point x="468" y="700" type="line"/>
      <point x="469" y="288" type="line"/>
      <point x="577" y="288" type="line"/>
      <point x="577" y="187" type="line"/>
      <point x="469" y="187" type="line"/>
      <point x="469" y="0" type="line"/>
    </contour>
    <contour>
      <point x="371" y="22" type="line"/>
      <point x="446" y="22" type="line"/>
      <point x="446" y="209" type="line"/>
      <point x="554" y="209" type="line"/>
      <point x="554" y="266" type="line"/>
      <point x="446" y="266" type="line"/>
      <point x="446" y="678" type="line"/>
      <point x="356" y="678" type="line"/>
      <point x="54" y="284" type="line"/>
      <point x="54" y="209" type="line"/>
      <point x="371" y="209" type="line"/>
    </contour>
    <contour>
      <point x="116" y="266" type="line"/>
      <point x="369" y="594" type="line"/>
      <point x="371" y="266" type="line"/>
    </contour>
    <contour>
      <point x="162" y="288" type="line"/>
      <point x="347" y="288" type="line"/>
      <point x="347" y="528" type="line"/>
    </contour>
  </outline>
</glyph>
<glyph name="five" format="2">
  <advance width="558"/>
  <unicode hex="0035"/>
  <outline>
    <contour>
      <point x="283" y="-14" type="qcurve"/>
      <point x="223" y="-13"/>
      <point x="129" y="19"/>
      <point x="97" y="51" type="qcurve"/>
      <point x="69" y="79"/>
      <point x="35" y="161"/>
      <point x="31" y="214" type="qcurve"/>
      <point x="149" y="214" type="line"/>
      <point x="153" y="186"/>
      <point x="171" y="144"/>
      <point x="186" y="129" type="qcurve"/>
      <point x="202" y="112"/>
      <point x="251" y="95"/>
      <point x="281" y="95" type="qcurve"/>
      <point x="314" y="95"/>
      <point x="366" y="114"/>
      <point x="383" y="132" type="qcurve"/>
      <point x="402" y="150"/>
      <point x="421" y="205"/>
      <point x="422" y="239" type="qcurve"/>
      <point x="421" y="273"/>
      <point x="402" y="326"/>
      <point x="383" y="345" type="qcurve"/>
      <point x="366" y="361"/>
      <point x="319" y="380"/>
      <point x="290" y="380" type="qcurve"/>
      <point x="250" y="380"/>
      <point x="193" y="347"/>
      <point x="164" y="317" type="qcurve"/>
      <point x="56" y="317" type="line"/>
      <point x="103" y="700" type="line"/>
      <point x="507" y="700" type="line"/>
      <point x="507" y="592" type="line"/>
      <point x="202" y="592" type="line"/>
      <point x="186" y="450" type="line"/>
      <point x="212" y="464"/>
      <point x="270" y="478"/>
      <point x="310" y="478" type="qcurve"/>
      <point x="362" y="478"/>
      <point x="447" y="446"/>
      <point x="477" y="416" type="qcurve"/>
      <point x="508" y="385"/>
      <point x="542" y="294"/>
      <point x="542" y="237" type="qcurve"/>
      <point x="542" y="180"/>
      <point x="508" y="88"/>
      <point x="476" y="56" type="qcurve"/>
      <point x="442" y="22"/>
      <point x="344" y="-13"/>
    </contour>
    <contour>
      <point x="283" y="8" type="qcurve"/>
      <point x="338" y="8"/>
      <point x="427" y="41"/>
      <point x="457" y="71" type="qcurve"/>
      <point x="487" y="101"/>
      <point x="518" y="185"/>
      <point x="519" y="237" type="qcurve"/>
      <point x="519" y="289"/>
      <point x="488" y="373"/>
      <point x="460" y="401" type="qcurve"/>
      <point x="433" y="427"/>
      <point x="358" y="456"/>
      <point x="312" y="456" type="qcurve"/>
      <point x="260" y="456"/>
      <point x="189" y="427"/>
      <point x="158" y="402" type="qcurve"/>
      <point x="182" y="614" type="line"/>
      <point x="484" y="614" type="line"/>
      <point x="484" y="678" type="line"/>
      <point x="123" y="678" type="line"/>
      <point x="82" y="339" type="line"/>
      <point x="152" y="339" type="line"/>
      <point x="185" y="370"/>
      <point x="249" y="402"/>
      <point x="290" y="402" type="qcurve"/>
      <point x="323" y="402"/>
      <point x="379" y="380"/>
      <point x="399" y="361" type="qcurve"/>
      <point x="421" y="339"/>
      <point x="444" y="275"/>
      <point x="445" y="237" type="qcurve"/>
      <point x="445" y="198"/>
      <point x="422" y="138"/>
      <point x="401" y="117" type="qcurve"/>
      <point x="379" y="95"/>
      <point x="318" y="73"/>
      <point x="281" y="73" type="qcurve"/>
      <point x="244" y="73"/>
      <point x="189" y="93"/>
      <point x="170" y="112" type="qcurve"/>
      <point x="156" y="127"/>
      <point x="135" y="167"/>
      <point x="130" y="192" type="qcurve"/>
      <point x="57" y="192" type="line"/>
      <point x="61" y="154"/>
      <point x="90" y="92"/>
      <point x="112" y="70" type="qcurve"/>
      <point x="142" y="39"/>
      <point x="230" y="8"/>
    </contour>
  </outline>
</glyph>
<glyph name="six" format="2">
  <advance width="558"/>
  <unicode hex="0036"/>
  <outline>
    <contour>
      <point x="279" y="-14" type="qcurve"/>
      <point x="222" y="-14"/>
      <point x="127" y="23"/>
      <point x="94" y="56" type="qcurve"/>
      <point x="61" y="88"/>
      <point x="25" y="179"/>
      <point x="25" y="233" type="qcurve"/>
      <point x="25" y="259"/>
      <point x="34" y="312"/>
      <point x="59" y="379"/>
      <point x="106" y="464"/>
      <point x="144" y="521" type="qcurve"/>
      <point x="265" y="700" type="line"/>
      <point x="401" y="700" type="line"/>
      <point x="233" y="457" type="line"/>
      <point x="248" y="461"/>
      <point x="281" y="466"/>
      <point x="299" y="466" type="qcurve"/>
      <point x="353" y="466"/>
      <point x="442" y="431"/>
      <point x="473" y="400" type="qcurve"/>
      <point x="504" y="370"/>
      <point x="536" y="287"/>
      <point x="536" y="238" type="qcurve"/>
      <point x="536" y="179"/>
      <point x="502" y="85"/>
      <point x="470" y="53" type="qcurve"/>
      <point x="438" y="21"/>
      <point x="341" y="-14"/>
    </contour>
    <contour>
      <point x="279" y="8" type="qcurve"/>
      <point x="335" y="8"/>
      <point x="424" y="40"/>
      <point x="454" y="70" type="qcurve"/>
      <point x="483" y="98"/>
      <point x="514" y="180"/>
      <point x="514" y="231" type="qcurve"/>
      <point x="514" y="277"/>
      <point x="483" y="357"/>
      <point x="455" y="385" type="qcurve"/>
      <point x="427" y="413"/>
      <point x="346" y="444"/>
      <point x="295" y="444" type="qcurve"/>
      <point x="264" y="444"/>
      <point x="213" y="430"/>
      <point x="195" y="418" type="qcurve"/>
      <point x="184" y="427" type="line"/>
      <point x="358" y="678" type="line"/>
      <point x="278" y="678" type="line"/>
      <point x="164" y="509" type="line"/>
      <point x="126" y="454"/>
      <point x="80" y="373"/>
      <point x="56" y="311"/>
      <point x="48" y="260"/>
      <point x="48" y="234" type="qcurve"/>
      <point x="48" y="185"/>
      <point x="80" y="102"/>
      <point x="111" y="71" type="qcurve"/>
      <point x="141" y="42"/>
      <point x="226" y="8"/>
    </contour>
    <contour>
      <point x="282" y="73" type="qcurve"/>
      <point x="247" y="73"/>
      <point x="189" y="97"/>
      <point x="167" y="118" type="qcurve"/>
      <point x="147" y="138"/>
      <point x="124" y="194"/>
      <point x="124" y="225" type="qcurve"/>
      <point x="125" y="262"/>
      <point x="147" y="323"/>
      <point x="169" y="344" type="qcurve"/>
      <point x="188" y="364"/>
      <point x="245" y="386"/>
      <point x="280" y="386" type="qcurve"/>
      <point x="316" y="386"/>
      <point x="373" y="364"/>
      <point x="393" y="344" type="qcurve"/>
      <point x="414" y="323"/>
      <point x="437" y="263"/>
      <point x="437" y="226" type="qcurve"/>
      <point x="437" y="192"/>
      <point x="414" y="134"/>
      <point x="395" y="115" type="qcurve"/>
      <point x="375" y="95"/>
      <point x="316" y="73"/>
    </contour>
    <contour>
      <point x="279" y="95" type="qcurve"/>
      <point x="309" y="95"/>
      <point x="360" y="113"/>
      <point x="378" y="131" type="qcurve"/>
      <point x="395" y="148"/>
      <point x="414" y="196"/>
      <point x="414" y="227" type="qcurve"/>
      <point x="414" y="259"/>
      <point x="395" y="311"/>
      <point x="377" y="328" type="qcurve"/>
      <point x="360" y="346"/>
      <point x="311" y="364"/>
      <point x="280" y="364" type="qcurve"/>
      <point x="251" y="364"/>
      <point x="202" y="346"/>
      <point x="184" y="329" type="qcurve"/>
      <point x="167" y="311"/>
      <point x="147" y="259"/>
      <point x="148" y="226" type="qcurve"/>
      <point x="147" y="199"/>
      <point x="168" y="150"/>
      <point x="186" y="132" type="qcurve"/>
      <point x="203" y="115"/>
      <point x="251" y="95"/>
    </contour>
  </outline>
</glyph>
<glyph name="seven" format="2">
  <advance width="515"/>
  <unicode hex="0037"/>
  <outline>
    <contour>
      <point x="120" y="0" type="line"/>
      <point x="126" y="92"/>
      <point x="166" y="261"/>
      <point x="223" y="409"/>
      <point x="296" y="539"/>
      <point x="335" y="592" type="qcurve"/>
      <point x="4" y="592" type="line"/>
      <point x="4" y="700" type="line"/>
      <point x="487" y="700" type="line"/>
      <point x="487" y="614" type="line"/>
      <point x="442" y="561"/>
      <point x="363" y="443"/>
      <point x="302" y="299"/>
      <point x="261" y="117"/>
      <point x="254" y="0" type="qcurve"/>
    </contour>
    <contour>
      <point x="145" y="22" type="qcurve"/>
      <point x="231" y="22" type="line"/>
      <point x="241" y="134"/>
      <point x="283" y="310"/>
      <point x="344" y="451"/>
      <point x="420" y="568"/>
      <point x="464" y="621" type="qcurve"/>
      <point x="464" y="678" type="line"/>
      <point x="26" y="678" type="line"/>
      <point x="26" y="614" type="line"/>
      <point x="381" y="614" type="line"/>
      <point x="340" y="564"/>
      <point x="262" y="438"/>
      <point x="199" y="290"/>
      <point x="154" y="118"/>
    </contour>
  </outline>
</glyph>
<glyph name="eight" format="2">
  <advance width="535"/>
  <unicode hex="0038"/>
  <outline>
    <contour>
      <point x="267" y="-14" type="qcurve"/>
      <point x="204" y="-14"/>
      <point x="106" y="21"/>
      <point x="73" y="54" type="qcurve"/>
      <point x="45" y="82"/>
      <point x="14" y="162"/>
      <point x="14" y="211" type="qcurve"/>
      <point x="14" y="255"/>
      <point x="44" y="330"/>
      <point x="71" y="358" type="qcurve"/>
      <point x="84" y="370"/>
      <point x="112" y="390"/>
      <point x="128" y="397" type="qcurve"/>
      <point x="119" y="402"/>
      <point x="101" y="416"/>
      <point x="93" y="424" type="qcurve"/>
      <point x="71" y="445"/>
      <point x="48" y="503"/>
      <point x="47" y="537" type="qcurve"/>
      <point x="47" y="575"/>
      <point x="70" y="637"/>
      <point x="92" y="659" type="qcurve"/>
      <point x="119" y="686"/>
      <point x="206" y="714"/>
      <point x="265" y="714" type="qcurve"/>
      <point x="325" y="714"/>
      <point x="415" y="686"/>
      <point x="443" y="658" type="qcurve"/>
      <point x="465" y="636"/>
      <point x="487" y="576"/>
      <point x="487" y="538" type="qcurve"/>
      <point x="487" y="506"/>
      <point x="463" y="449"/>
      <point x="441" y="427" type="qcurve"/>
      <point x="433" y="418"/>
      <point x="413" y="404"/>
      <point x="402" y="398" type="qcurve"/>
      <point x="420" y="390"/>
      <point x="451" y="369"/>
      <point x="464" y="356" type="qcurve"/>
      <point x="492" y="328"/>
      <point x="521" y="254"/>
      <point x="522" y="211" type="qcurve"/>
      <point x="522" y="162"/>
      <point x="490" y="83"/>
      <point x="462" y="55" type="qcurve"/>
      <point x="429" y="21"/>
      <point x="330" y="-14"/>
    </contour>
    <contour>
      <point x="267" y="8" type="qcurve"/>
      <point x="323" y="8"/>
      <point x="413" y="42"/>
      <point x="444" y="73" type="qcurve"/>
      <point x="470" y="99"/>
      <point x="499" y="169"/>
      <point x="499" y="211" type="qcurve"/>
      <point x="499" y="250"/>
      <point x="472" y="317"/>
      <point x="447" y="342" type="qcurve"/>
      <point x="426" y="362"/>
      <point x="369" y="391"/>
      <point x="335" y="396" type="qcurve"/>
      <point x="362" y="400"/>
      <point x="407" y="424"/>
      <point x="424" y="441" type="qcurve"/>
      <point x="443" y="460"/>
      <point x="464" y="510"/>
      <point x="465" y="538" type="qcurve"/>
      <point x="464" y="569"/>
      <point x="445" y="620"/>
      <point x="426" y="639" type="qcurve"/>
      <point x="401" y="664"/>
      <point x="319" y="691"/>
      <point x="266" y="692" type="qcurve"/>
      <point x="214" y="691"/>
      <point x="134" y="665"/>
      <point x="109" y="640" type="qcurve"/>
      <point x="90" y="621"/>
      <point x="70" y="569"/>
      <point x="71" y="538" type="qcurve"/>
      <point x="71" y="507"/>
      <point x="92" y="456"/>
      <point x="111" y="437" type="qcurve"/>
      <point x="127" y="421"/>
      <point x="169" y="400"/>
      <point x="195" y="396" type="qcurve"/>
      <point x="162" y="391"/>
      <point x="108" y="364"/>
      <point x="88" y="344" type="qcurve"/>
      <point x="63" y="319"/>
      <point x="37" y="251"/>
      <point x="37" y="211" type="qcurve"/>
      <point x="37" y="169"/>
      <point x="65" y="98"/>
      <point x="92" y="72" type="qcurve"/>
      <point x="122" y="42"/>
      <point x="212" y="8"/>
    </contour>
    <contour>
      <point x="267" y="420" type="qcurve"/>
      <point x="239" y="420"/>
      <point x="192" y="438"/>
      <point x="176" y="454" type="qcurve"/>
      <point x="162" y="468"/>
      <point x="146" y="507"/>
      <point x="146" y="530" type="qcurve"/>
      <point x="146" y="550"/>
      <point x="160" y="586"/>
      <point x="174" y="599" type="qcurve"/>
      <point x="189" y="615"/>
      <point x="236" y="633"/>
      <point x="267" y="633" type="qcurve"/>
      <point x="299" y="633"/>
      <point x="346" y="615"/>
      <point x="362" y="599" type="qcurve"/>
      <point x="375" y="586"/>
      <point x="390" y="551"/>
      <point x="390" y="532" type="qcurve"/>
      <point x="389" y="508"/>
      <point x="374" y="468"/>
      <point x="359" y="454" type="qcurve"/>
      <point x="343" y="438"/>
      <point x="295" y="420"/>
    </contour>
    <contour>
      <point x="267" y="442" type="qcurve"/>
      <point x="290" y="442"/>
      <point x="328" y="457"/>
      <point x="341" y="470" type="qcurve"/>
      <point x="353" y="481"/>
      <point x="366" y="513"/>
      <point x="367" y="532" type="qcurve"/>
      <point x="367" y="547"/>
      <point x="356" y="573"/>
      <point x="346" y="583" type="qcurve"/>
      <point x="333" y="596"/>
      <point x="292" y="611"/>
      <point x="267" y="611" type="qcurve"/>
      <point x="243" y="611"/>
      <point x="204" y="596"/>
      <point x="191" y="583" type="qcurve"/>
      <point x="181" y="573"/>
      <point x="169" y="544"/>
      <point x="169" y="528" type="qcurve"/>
      <point x="169" y="510"/>
      <point x="181" y="480"/>
      <point x="192" y="469" type="qcurve"/>
      <point x="205" y="456"/>
      <point x="244" y="442"/>
    </contour>
    <contour>
      <point x="267" y="72" type="qcurve"/>
      <point x="232" y="72"/>
      <point x="173" y="95"/>
      <point x="153" y="115" type="qcurve"/>
      <point x="134" y="133"/>
      <point x="114" y="183"/>
      <point x="114" y="213" type="qcurve"/>
      <point x="114" y="246"/>
      <point x="136" y="301"/>
      <point x="155" y="320" type="qcurve"/>
      <point x="175" y="340"/>
      <point x="233" y="362"/>
      <point x="267" y="362" type="qcurve"/>
      <point x="302" y="362"/>
      <point x="359" y="339"/>
      <point x="380" y="319" type="qcurve"/>
      <point x="399" y="300"/>
      <point x="421" y="246"/>
      <point x="421" y="213" type="qcurve"/>
      <point x="421" y="184"/>
      <point x="401" y="134"/>
      <point x="382" y="115" type="qcurve"/>
      <point x="362" y="95"/>
      <point x="303" y="72"/>
    </contour>
    <contour>
      <point x="267" y="94" type="qcurve"/>
      <point x="298" y="94"/>
      <point x="349" y="114"/>
      <point x="365" y="130" type="qcurve"/>
      <point x="381" y="146"/>
      <point x="398" y="188"/>
      <point x="398" y="213" type="qcurve"/>
      <point x="397" y="241"/>
      <point x="379" y="288"/>
      <point x="363" y="304" type="qcurve"/>
      <point x="345" y="321"/>
      <point x="297" y="340"/>
      <point x="267" y="340" type="qcurve"/>
      <point x="238" y="340"/>
      <point x="188" y="321"/>
      <point x="172" y="304" type="qcurve"/>
      <point x="155" y="288"/>
      <point x="137" y="241"/>
      <point x="137" y="213" type="qcurve"/>
      <point x="137" y="189"/>
      <point x="154" y="147"/>
      <point x="170" y="131" type="qcurve"/>
      <point x="186" y="114"/>
      <point x="236" y="94"/>
    </contour>
  </outline>
</glyph>
<glyph name="nine" format="2">
  <advance width="555"/>
  <unicode hex="0039"/>
  <outline>
    <contour>
      <point x="177" y="0" type="line"/>
      <point x="324" y="236" type="line"/>
      <point x="309" y="231"/>
      <point x="276" y="228"/>
      <point x="260" y="228" type="qcurve"/>
      <point x="208" y="228"/>
      <point x="120" y="263"/>
      <point x="89" y="294" type="qcurve"/>
      <point x="57" y="325"/>
      <point x="22" y="413"/>
      <point x="23" y="466" type="qcurve"/>
      <point x="22" y="520"/>
      <point x="57" y="612"/>
      <point x="89" y="644" type="qcurve"/>
      <point x="123" y="677"/>
      <point x="218" y="713"/>
      <point x="278" y="714" type="qcurve"/>
      <point x="337" y="714"/>
      <point x="433" y="679"/>
      <point x="466" y="647" type="qcurve"/>
      <point x="497" y="615"/>
      <point x="531" y="523"/>
      <point x="532" y="466" type="qcurve"/>
      <point x="532" y="411"/>
      <point x="487" y="291"/>
      <point x="433" y="200" type="qcurve"/>
      <point x="314" y="0" type="line"/>
    </contour>
    <contour>
      <point x="218" y="22" type="line"/>
      <point x="300" y="22" type="line"/>
      <point x="413" y="211" type="line"/>
      <point x="466" y="299"/>
      <point x="508" y="412"/>
      <point x="509" y="466" type="qcurve"/>
      <point x="509" y="516"/>
      <point x="477" y="599"/>
      <point x="448" y="628" type="qcurve"/>
      <point x="417" y="658"/>
      <point x="330" y="691"/>
      <point x="277" y="692" type="qcurve"/>
      <point x="223" y="691"/>
      <point x="136" y="659"/>
      <point x="106" y="630" type="qcurve"/>
      <point x="77" y="601"/>
      <point x="46" y="517"/>
      <point x="45" y="466" type="qcurve"/>
      <point x="46" y="418"/>
      <point x="77" y="338"/>
      <point x="106" y="309" type="qcurve"/>
      <point x="134" y="281"/>
      <point x="213" y="250"/>
      <point x="261" y="250" type="qcurve"/>
      <point x="265" y="250"/>
      <point x="290" y="252"/>
      <point x="320" y="257"/>
      <point x="349" y="265"/>
      <point x="356" y="272" type="qcurve"/>
      <point x="367" y="261" type="line"/>
    </contour>
    <contour>
      <point x="278" y="307" type="qcurve"/>
      <point x="243" y="307"/>
      <point x="186" y="330"/>
      <point x="166" y="350" type="qcurve"/>
      <point x="144" y="371"/>
      <point x="121" y="432"/>
      <point x="121" y="469" type="qcurve"/>
      <point x="121" y="506"/>
      <point x="144" y="565"/>
      <point x="164" y="586" type="qcurve"/>
      <point x="184" y="606"/>
      <point x="242" y="628"/>
      <point x="276" y="627" type="qcurve"/>
      <point x="313" y="628"/>
      <point x="372" y="606"/>
      <point x="393" y="585" type="qcurve"/>
      <point x="412" y="565"/>
      <point x="434" y="506"/>
      <point x="435" y="469" type="qcurve"/>
      <point x="434" y="432"/>
      <point x="412" y="371"/>
      <point x="391" y="350" type="qcurve"/>
      <point x="370" y="329"/>
      <point x="312" y="307"/>
    </contour>
    <contour>
      <point x="278" y="329" type="qcurve"/>
      <point x="308" y="329"/>
      <point x="356" y="348"/>
      <point x="374" y="365" type="qcurve"/>
      <point x="392" y="384"/>
      <point x="412" y="437"/>
      <point x="412" y="470" type="qcurve"/>
      <point x="412" y="501"/>
      <point x="393" y="552"/>
      <point x="375" y="570" type="qcurve"/>
      <point x="358" y="587"/>
      <point x="310" y="605"/>
      <point x="279" y="605" type="qcurve"/>
      <point x="249" y="605"/>
      <point x="198" y="587"/>
      <point x="181" y="570" type="qcurve"/>
      <point x="164" y="552"/>
      <point x="145" y="502"/>
      <point x="144" y="469" type="qcurve"/>
      <point x="145" y="436"/>
      <point x="164" y="384"/>
      <point x="183" y="365" type="qcurve"/>
      <point x="200" y="348"/>
      <point x="249" y="329"/>
    </contour>
  </outline>
</glyph>
<glyph name="colon" format="2">
  <advance width="232"/>
  <unicode hex="003A"/>
  <outline>
    <contour>
      <point x="45" y="405" type="line"/>
      <point x="45" y="543" type="line"/>
      <point x="187" y="543" type="line"/>
      <point x="187" y="405" type="line"/>
    </contour>
    <contour>
      <point x="68" y="427" type="line"/>
      <point x="164" y="427" type="line"/>
      <point x="164" y="521" type="line"/>
      <point x="68" y="521" type="line"/>
    </contour>
    <contour>
      <point x="45" y="-1" type="line"/>
      <point x="45" y="137" type="line"/>
      <point x="187" y="137" type="line"/>
      <point x="187" y="-1" type="line"/>
    </contour>
    <contour>
      <point x="68" y="21" type="line"/>
      <point x="164" y="21" type="line"/>
      <point x="164" y="115" type="line"/>
      <point x="68" y="115" type="line"/>
    </contour>
  </outline>
</glyph>
<glyph name="semicolon" format="2">
  <advance width="230"/>
  <unicode hex="003B"/>
  <outline>
    <contour>
      <point x="45" y="392" type="line"/>
      <point x="45" y="530" type="line"/>
      <point x="187" y="530" type="line"/>
      <point x="187" y="392" type="line"/>
    </contour>
    <contour>
      <point x="68" y="414" type="line"/>
      <point x="164" y="414" type="line"/>
      <point x="164" y="508" type="line"/>
      <point x="68" y="508" type="line"/>
    </contour>
    <contour>
      <point x="48" y="-166" type="line"/>
      <point x="47" y="-93" type="line"/>
      <point x="50" y="-93"/>
      <point x="56" y="-94"/>
      <point x="59" y="-94" type="qcurve"/>
      <point x="71" y="-94"/>
      <point x="91" y="-87"/>
      <point x="98" y="-80" type="qcurve"/>
      <point x="107" y="-71"/>
      <point x="116" y="-41"/>
      <point x="116" y="-20" type="qcurve"/>
      <point x="116" y="0" type="line"/>
      <point x="45" y="0" type="line"/>
      <point x="45" y="135" type="line"/>
      <point x="191" y="135" type="line"/>
      <point x="191" y="0" type="line"/>
      <point x="191" y="-46"/>
      <point x="172" y="-115"/>
      <point x="151" y="-136" type="qcurve"/>
      <point x="137" y="-151"/>
      <point x="96" y="-166"/>
      <point x="69" y="-166" type="qcurve"/>
    </contour>
    <contour>
      <point x="71" y="-144" type="line"/>
      <point x="90" y="-144"/>
      <point x="121" y="-132"/>
      <point x="133" y="-120" type="qcurve"/>
      <point x="150" y="-102"/>
      <point x="168" y="-41"/>
      <point x="168" y="0" type="qcurve"/>
      <point x="168" y="113" type="line"/>
      <point x="68" y="113" type="line"/>
      <point x="68" y="22" type="line"/>
      <point x="139" y="22" type="line"/>
      <point x="139" y="-20" type="line"/>
      <point x="139" y="-45"/>
      <point x="127" y="-84"/>
      <point x="114" y="-96" type="qcurve"/>
      <point x="106" y="-104"/>
      <point x="84" y="-114"/>
      <point x="71" y="-115" type="qcurve"/>
    </contour>
  </outline>
</glyph>
<glyph name="less" format="2">
  <advance width="563"/>
  <unicode hex="003C"/>
  <outline>
    <contour>
      <point x="503" y="117" type="line"/>
      <point x="50" y="352" type="line"/>
      <point x="503" y="586" type="line"/>
      <point x="513" y="567" type="line"/>
      <point x="98" y="352" type="line"/>
      <point x="513" y="136" type="line"/>
    </contour>
  </outline>
</glyph>
<glyph name="equal" format="2">
  <advance width="630"/>
  <unicode hex="003D"/>
  <outline>
    <contour>
      <point x="580" y="453" type="line"/>
      <point x="50" y="454" type="line"/>
      <point x="50" y="476" type="line"/>
      <point x="580" y="475" type="line"/>
    </contour>
    <contour>
      <point x="580" y="227" type="line"/>
      <point x="50" y="228" type="line"/>
      <point x="50" y="250" type="line"/>
      <point x="580" y="249" type="line"/>
    </contour>
  </outline>
</glyph>
<glyph name="greater" format="2">
  <advance width="563"/>
  <unicode hex="003E"/>
  <outline>
    <contour>
      <point x="60" y="117" type="line"/>
      <point x="50" y="136" type="line"/>
      <point x="465" y="352" type="line"/>
      <point x="50" y="567" type="line"/>
      <point x="60" y="586" type="line"/>
      <point x="513" y="352" type="line"/>
    </contour>
  </outline>
</glyph>
<glyph name="question" format="2">
  <advance width="509"/>
  <unicode hex="003F"/>
  <outline>
    <contour>
      <point x="191" y="191" type="line"/>
      <point x="190" y="253"/>
      <point x="245" y="337"/>
      <point x="311" y="406"/>
      <point x="366" y="474"/>
      <point x="366" y="519" type="qcurve"/>
      <point x="365" y="539"/>
      <point x="354" y="571"/>
      <point x="344" y="581" type="qcurve"/>
      <point x="331" y="594"/>
      <point x="288" y="608"/>
      <point x="258" y="608" type="qcurve"/>
      <point x="230" y="608"/>
      <point x="189" y="594"/>
      <point x="175" y="580" type="qcurve"/>
      <point x="159" y="563"/>
      <point x="142" y="508"/>
      <point x="142" y="470" type="qcurve"/>
      <point x="26" y="470" type="line"/>
      <point x="25" y="530"/>
      <point x="54" y="624"/>
      <point x="85" y="655" type="qcurve"/>
      <point x="113" y="684"/>
      <point x="201" y="714"/>
      <point x="261" y="714" type="qcurve"/>
      <point x="317" y="713"/>
      <point x="404" y="681"/>
      <point x="432" y="653" type="qcurve"/>
      <point x="457" y="628"/>
      <point x="484" y="559"/>
      <point x="485" y="519" type="qcurve"/>
      <point x="485" y="467"/>
      <point x="452" y="401"/>
      <point x="428" y="377" type="qcurve"/>
      <point x="412" y="362"/>
      <point x="379" y="334"/>
      <point x="363" y="319" type="qcurve"/>
      <point x="341" y="296"/>
      <point x="308" y="237"/>
      <point x="305" y="191" type="qcurve"/>
    </contour>
    <contour>
      <point x="215" y="213" type="qcurve"/>
      <point x="284" y="213" type="line"/>
      <point x="289" y="254"/>
      <point x="322" y="309"/>
      <point x="344" y="331" type="qcurve"/>
      <point x="359" y="347"/>
      <point x="392" y="374"/>
      <point x="407" y="389" type="qcurve"/>
      <point x="430" y="412"/>
      <point x="462" y="473"/>
      <point x="462" y="519" type="qcurve"/>
      <point x="462" y="555"/>
      <point x="438" y="615"/>
      <point x="416" y="637" type="qcurve"/>
      <point x="390" y="663"/>
      <point x="311" y="692"/>
      <point x="261" y="692" type="qcurve"/>
      <point x="207" y="692"/>
      <point x="127" y="666"/>
      <point x="101" y="640" type="qcurve"/>
      <point x="76" y="615"/>
      <point x="50" y="541"/>
      <point x="49" y="492" type="qcurve"/>
      <point x="119" y="492" type="line"/>
      <point x="120" y="525"/>
      <point x="139" y="576"/>
      <point x="157" y="594" type="qcurve"/>
      <point x="174" y="611"/>
      <point x="225" y="630"/>
      <point x="256" y="630" type="qcurve"/>
      <point x="292" y="630"/>
      <point x="344" y="612"/>
      <point x="360" y="596" type="qcurve"/>
      <point x="374" y="583"/>
      <point x="388" y="544"/>
      <point x="389" y="519" type="qcurve"/>
      <point x="389" y="472"/>
      <point x="338" y="404"/>
      <point x="275" y="339"/>
      <point x="219" y="265"/>
    </contour>
    <contour>
      <point x="182" y="-1" type="line"/>
      <point x="182" y="137" type="line"/>
      <point x="324" y="137" type="line"/>
      <point x="324" y="-1" type="line"/>
    </contour>
    <contour>
      <point x="205" y="21" type="line"/>
      <point x="301" y="21" type="line"/>
      <point x="301" y="115" type="line"/>
      <point x="205" y="115" type="line"/>
    </contour>
  </outline>
</glyph>
<glyph name="at" format="2">
  <advance width="828"/>
  <unicode hex="0040"/>
  <outline>
    <contour>
      <point x="411" y="-139" type="qcurve"/>
      <point x="322" y="-139"/>
      <point x="175" y="-81"/>
      <point x="123" y="-29" type="qcurve"/>
      <point x="71" y="22"/>
      <point x="14" y="167"/>
      <point x="13" y="254" type="qcurve"/>
      <point x="13" y="343"/>
      <point x="74" y="496"/>
      <point x="129" y="550" type="qcurve"/>
      <point x="185" y="606"/>
      <point x="343" y="669"/>
      <point x="438" y="669" type="qcurve"/>
      <point x="528" y="670"/>
      <point x="670" y="617"/>
      <point x="719" y="568" type="qcurve"/>
      <point x="765" y="522"/>
      <point x="814" y="392"/>
      <point x="815" y="314" type="qcurve"/>
      <point x="815" y="251"/>
      <point x="779" y="153"/>
      <point x="748" y="122" type="qcurve"/>
      <point x="723" y="97"/>
      <point x="656" y="70"/>
      <point x="617" y="70" type="qcurve"/>
      <point x="583" y="70"/>
      <point x="535" y="86"/>
      <point x="521" y="100" type="qcurve"/>
      <point x="517" y="104"/>
      <point x="509" y="114"/>
      <point x="507" y="119" type="qcurve"/>
      <point x="482" y="91"/>
      <point x="403" y="59"/>
      <point x="366" y="59" type="qcurve"/>
      <point x="332" y="59"/>
      <point x="273" y="81"/>
      <point x="251" y="103" type="qcurve"/>
      <point x="230" y="124"/>
      <point x="206" y="187"/>
      <point x="206" y="227" type="qcurve"/>
      <point x="206" y="284"/>
      <point x="245" y="382"/>
      <point x="279" y="416" type="qcurve"/>
      <point x="307" y="443"/>
      <point x="376" y="474"/>
      <point x="416" y="473" type="qcurve"/>
      <point x="450" y="473"/>
      <point x="500" y="454"/>
      <point x="517" y="434" type="qcurve"/>
      <point x="520" y="463" type="line"/>
      <point x="625" y="463" type="line"/>
      <point x="591" y="208" type="line"/>
      <point x="590" y="201"/>
      <point x="589" y="188"/>
      <point x="589" y="184" type="qcurve"/>
      <point x="589" y="176"/>
      <point x="592" y="164"/>
      <point x="596" y="161" type="qcurve"/>
      <point x="600" y="157"/>
      <point x="612" y="154"/>
      <point x="620" y="155" type="qcurve"/>
      <point x="634" y="155"/>
      <point x="659" y="167"/>
      <point x="669" y="177" type="qcurve"/>
      <point x="689" y="196"/>
      <point x="712" y="268"/>
      <point x="713" y="315" type="qcurve"/>
      <point x="712" y="376"/>
      <point x="676" y="473"/>
      <point x="642" y="507" type="qcurve"/>
      <point x="607" y="542"/>
      <point x="503" y="580"/>
      <point x="438" y="580" type="qcurve"/>
      <point x="366" y="580"/>
      <point x="247" y="534"/>
      <point x="205" y="492" type="qcurve"/>
      <point x="162" y="449"/>
      <point x="116" y="328"/>
      <point x="115" y="254" type="qcurve"/>
      <point x="116" y="185"/>
      <point x="159" y="72"/>
      <point x="198" y="33" type="qcurve"/>
      <point x="237" y="-6"/>
      <point x="345" y="-48"/>
      <point x="411" y="-48" type="qcurve"/>
      <point x="489" y="-48"/>
      <point x="609" y="-8"/>
      <point x="659" y="35" type="qcurve"/>
      <point x="659" y="-80" type="line"/>
      <point x="612" y="-108"/>
      <point x="482" y="-139"/>
    </contour>
    <contour>
      <point x="411" y="-117" type="qcurve"/>
      <point x="475" y="-117"/>
      <point x="592" y="-91"/>
      <point x="636" y="-68" type="qcurve"/>
      <point x="637" y="-10" type="line"/>
      <point x="590" y="-41"/>
      <point x="479" y="-70"/>
      <point x="411" y="-70" type="qcurve"/>
      <point x="340" y="-70"/>
      <point x="224" y="-24"/>
      <point x="182" y="18" type="qcurve"/>
      <point x="139" y="60"/>
      <point x="93" y="181"/>
      <point x="92" y="254" type="qcurve"/>
      <point x="93" y="331"/>
      <point x="145" y="460"/>
      <point x="191" y="506" type="qcurve"/>
      <point x="236" y="551"/>
      <point x="363" y="602"/>
      <point x="438" y="602" type="qcurve"/>
      <point x="510" y="602"/>
      <point x="623" y="561"/>
      <point x="661" y="523" type="qcurve"/>
      <point x="697" y="486"/>
      <point x="736" y="381"/>
      <point x="736" y="315" type="qcurve"/>
      <point x="736" y="266"/>
      <point x="708" y="184"/>
      <point x="684" y="160" type="qcurve"/>
      <point x="671" y="147"/>
      <point x="638" y="133"/>
      <point x="620" y="133" type="qcurve"/>
      <point x="605" y="133"/>
      <point x="585" y="138"/>
      <point x="578" y="145" type="qcurve"/>
      <point x="572" y="150"/>
      <point x="567" y="170"/>
      <point x="567" y="183" type="qcurve"/>
      <point x="567" y="189"/>
      <point x="568" y="203"/>
      <point x="569" y="211" type="qcurve"/>
      <point x="599" y="441" type="line"/>
      <point x="541" y="441" type="line"/>
      <point x="533" y="373" type="line"/>
      <point x="526" y="386"/>
      <point x="511" y="410"/>
      <point x="502" y="419" type="qcurve"/>
      <point x="486" y="435"/>
      <point x="445" y="451"/>
      <point x="419" y="451" type="qcurve"/>
      <point x="382" y="452"/>
      <point x="319" y="424"/>
      <point x="294" y="399" type="qcurve"/>
      <point x="264" y="369"/>
      <point x="229" y="281"/>
      <point x="229" y="228" type="qcurve"/>
      <point x="229" y="193"/>
      <point x="251" y="138"/>
      <point x="270" y="119" type="qcurve"/>
      <point x="288" y="101"/>
      <point x="338" y="81"/>
      <point x="367" y="81" type="qcurve"/>
      <point x="395" y="81"/>
      <point x="454" y="100"/>
      <point x="478" y="124" type="qcurve"/>
      <point x="488" y="134"/>
      <point x="507" y="161"/>
      <point x="514" y="178" type="qcurve"/>
      <point x="516" y="157"/>
      <point x="528" y="127"/>
      <point x="538" y="117" type="qcurve"/>
      <point x="551" y="104"/>
      <point x="591" y="92"/>
      <point x="617" y="92" type="qcurve"/>
      <point x="652" y="92"/>
      <point x="709" y="115"/>
      <point x="731" y="137" type="qcurve"/>
      <point x="760" y="166"/>
      <point x="792" y="256"/>
      <point x="792" y="314" type="qcurve"/>
      <point x="792" y="386"/>
      <point x="744" y="506"/>
      <point x="701" y="549" type="qcurve"/>
      <point x="655" y="596"/>
      <point x="521" y="647"/>
      <point x="438" y="647" type="qcurve"/>
      <point x="348" y="647"/>
      <point x="198" y="588"/>
      <point x="145" y="535" type="qcurve"/>
      <point x="94" y="484"/>
      <point x="36" y="340"/>
      <point x="36" y="254" type="qcurve"/>
      <point x="36" y="172"/>
      <point x="89" y="36"/>
      <point x="138" y="-13" type="qcurve"/>
      <point x="187" y="-62"/>
      <point x="327" y="-117"/>
    </contour>
    <contour>
      <point x="386" y="121" type="qcurve"/>
      <point x="363" y="121"/>
      <point x="327" y="133"/>
      <point x="314" y="146" type="qcurve"/>
      <point x="301" y="159"/>
      <point x="288" y="201"/>
      <point x="288" y="230" type="qcurve"/>
      <point x="288" y="276"/>
      <point x="315" y="352"/>
      <point x="339" y="375" type="qcurve"/>
      <point x="355" y="392"/>
      <point x="397" y="411"/>
      <point x="421" y="410" type="qcurve"/>
      <point x="443" y="411"/>
      <point x="480" y="398"/>
      <point x="492" y="385" type="qcurve"/>
      <point x="506" y="371"/>
      <point x="521" y="326"/>
      <point x="522" y="297" type="qcurve"/>
      <point x="521" y="257"/>
      <point x="496" y="181"/>
      <point x="471" y="156" type="qcurve"/>
      <point x="455" y="140"/>
      <point x="412" y="121"/>
    </contour>
    <contour>
      <point x="387" y="143" type="qcurve"/>
      <point x="409" y="144"/>
      <point x="444" y="158"/>
      <point x="457" y="171" type="qcurve"/>
      <point x="479" y="192"/>
      <point x="498" y="260"/>
      <point x="498" y="297" type="qcurve"/>
      <point x="498" y="321"/>
      <point x="487" y="358"/>
      <point x="476" y="369" type="qcurve"/>
      <point x="466" y="379"/>
      <point x="438" y="388"/>
      <point x="421" y="388" type="qcurve"/>
      <point x="402" y="388"/>
      <point x="368" y="374"/>
      <point x="355" y="361" type="qcurve"/>
      <point x="335" y="340"/>
      <point x="311" y="273"/>
      <point x="311" y="230" type="qcurve"/>
      <point x="311" y="207"/>
      <point x="322" y="172"/>
      <point x="333" y="161" type="qcurve"/>
      <point x="342" y="152"/>
      <point x="369" y="143"/>
    </contour>
  </outline>
</glyph>
<glyph name="A" format="2">
  <advance width="647"/>
  <unicode hex="0041"/>
  <outline>
    <contour>
      <point x="-2" y="0" type="line"/>
      <point x="242" y="700" type="line"/>
      <point x="392" y="700" type="line"/>
      <point x="652" y="0" type="line"/>
      <point x="519" y="0" type="line"/>
      <point x="430" y="248" type="line"/>
      <point x="207" y="248" type="line"/>
      <point x="123" y="0" type="line"/>
    </contour>
    <contour>
      <point x="30" y="22" type="line"/>
      <point x="106" y="22" type="line"/>
      <point x="190" y="270" type="line"/>
      <point x="447" y="270" type="line"/>
      <point x="536" y="22" type="line"/>
      <point x="619" y="22" type="line"/>
      <point x="376" y="678" type="line"/>
      <point x="259" y="678" type="line"/>
    </contour>
    <contour>
      <point x="211" y="332" type="line"/>
      <point x="306" y="614" type="line"/>
      <point x="325" y="614" type="line"/>
      <point x="425" y="332" type="line"/>
    </contour>
    <contour>
      <point x="243" y="354" type="line"/>
      <point x="393" y="354" type="line"/>
      <point x="316" y="572" type="line"/>
    </contour>
  </outline>
</glyph>
<glyph name="C" format="2">
  <advance width="698"/>
  <unicode hex="0043"/>
  <outline>
    <contour>
      <point x="368" y="-14" type="qcurve"/>
      <point x="290" y="-13"/>
      <point x="163" y="34"/>
      <point x="118" y="78" type="qcurve"/>
      <point x="72" y="124"/>
      <point x="22" y="262"/>
      <point x="22" y="349" type="qcurve"/>
      <point x="22" y="436"/>
      <point x="72" y="575"/>
      <point x="119" y="622" type="qcurve"/>
      <point x="163" y="666"/>
      <point x="288" y="713"/>
      <point x="366" y="714" type="qcurve"/>
      <point x="440" y="713"/>
      <point x="556" y="671"/>
      <point x="596" y="631" type="qcurve"/>
      <point x="628" y="598"/>
      <point x="670" y="510"/>
      <point x="677" y="458" type="qcurve"/>
      <point x="680" y="437" type="line"/>
      <point x="554" y="437" type="line"/>
      <point x="551" y="453" type="line"/>
      <point x="543" y="487"/>
      <point x="517" y="540"/>
      <point x="498" y="559" type="qcurve"/>
      <point x="475" y="582"/>
      <point x="410" y="605"/>
      <point x="369" y="604" type="qcurve"/>
      <point x="320" y="605"/>
      <point x="242" y="575"/>
      <point x="214" y="547" type="qcurve"/>
      <point x="181" y="515"/>
      <point x="147" y="414"/>
      <point x="148" y="350" type="qcurve"/>
      <point x="148" y="284"/>
      <point x="182" y="185"/>
      <point x="215" y="152" type="qcurve"/>
      <point x="242" y="124"/>
      <point x="319" y="95"/>
      <point x="367" y="96" type="qcurve"/>
      <point x="413" y="96"/>
      <point x="481" y="120"/>
      <point x="503" y="142" type="qcurve"/>
      <point x="525" y="163"/>
      <point x="552" y="224"/>
      <point x="559" y="264" type="qcurve"/>
      <point x="685" y="264" type="line"/>
      <point x="677" y="201"/>
      <point x="633" y="103"/>
      <point x="599" y="69" type="qcurve"/>
      <point x="558" y="27"/>
      <point x="441" y="-13"/>
    </contour>
    <contour>
      <point x="368" y="8" type="qcurve"/>
      <point x="437" y="8"/>
      <point x="545" y="47"/>
      <point x="582" y="83" type="qcurve"/>
      <point x="611" y="113"/>
      <point x="649" y="193"/>
      <point x="658" y="242" type="qcurve"/>
      <point x="578" y="242" type="line"/>
      <point x="571" y="207"/>
      <point x="544" y="149"/>
      <point x="523" y="128" type="qcurve"/>
      <point x="496" y="102"/>
      <point x="420" y="74"/>
      <point x="369" y="74" type="qcurve"/>
      <point x="314" y="74"/>
      <point x="227" y="106"/>
      <point x="196" y="137" type="qcurve"/>
      <point x="161" y="172"/>
      <point x="124" y="279"/>
      <point x="124" y="349" type="qcurve"/>
      <point x="124" y="421"/>
      <point x="161" y="528"/>
      <point x="196" y="563" type="qcurve"/>
      <point x="227" y="594"/>
      <point x="315" y="626"/>
      <point x="369" y="626" type="qcurve"/>
      <point x="417" y="626"/>
      <point x="491" y="601"/>
      <point x="517" y="576" type="qcurve"/>
      <point x="537" y="555"/>
      <point x="566" y="496"/>
      <point x="573" y="458" type="qcurve"/>
      <point x="573" y="459" type="line"/>
      <point x="653" y="459" type="line"/>
      <point x="654" y="453" type="line"/>
      <point x="654" y="454" type="line"/>
      <point x="645" y="505"/>
      <point x="606" y="586"/>
      <point x="577" y="615" type="qcurve"/>
      <point x="540" y="652"/>
      <point x="434" y="692"/>
      <point x="368" y="692" type="qcurve"/>
      <point x="294" y="692"/>
      <point x="176" y="648"/>
      <point x="135" y="607" type="qcurve"/>
      <point x="92" y="564"/>
      <point x="45" y="434"/>
      <point x="46" y="350" type="qcurve"/>
      <point x="45" y="269"/>
      <point x="94" y="138"/>
      <point x="138" y="95" type="qcurve"/>
      <point x="179" y="53"/>
      <point x="296" y="8"/>
    </contour>
  </outline>
</glyph>
<glyph name="D" format="2">
  <advance width="680"/>
  <unicode hex="0044"/>
  <outline>
    <contour>
      <point x="48" y="0" type="line"/>
      <point x="48" y="700" type="line"/>
      <point x="336" y="700" type="line"/>
      <point x="412" y="700"/>
      <point x="528" y="659"/>
      <point x="568" y="619" type="qcurve"/>
      <point x="613" y="575"/>
      <point x="657" y="439"/>
      <point x="658" y="349" type="qcurve"/>
      <point x="657" y="260"/>
      <point x="613" y="125"/>
      <point x="568" y="81" type="qcurve"/>
      <point x="529" y="41"/>
      <point x="413" y="0"/>
      <point x="338" y="0" type="qcurve"/>
    </contour>
    <contour>
      <point x="71" y="22" type="line"/>
      <point x="336" y="22" type="line"/>
      <point x="405" y="22"/>
      <point x="514" y="60"/>
      <point x="551" y="98" type="qcurve"/>
      <point x="592" y="138"/>
      <point x="634" y="266"/>
      <point x="635" y="351" type="qcurve"/>
      <point x="635" y="434"/>
      <point x="592" y="561"/>
      <point x="551" y="602" type="qcurve"/>
      <point x="513" y="639"/>
      <point x="405" y="678"/>
      <point x="336" y="678" type="qcurve"/>
      <point x="71" y="678" type="line"/>
    </contour>
    <contour>
      <point x="148" y="85" type="line"/>
      <point x="148" y="615" type="line"/>
      <point x="334" y="615" type="line"/>
      <point x="385" y="614"/>
      <point x="464" y="588"/>
      <point x="491" y="561" type="qcurve"/>
      <point x="524" y="528"/>
      <point x="556" y="423"/>
      <point x="556" y="351" type="qcurve"/>
      <point x="555" y="279"/>
      <point x="525" y="171"/>
      <point x="492" y="139" type="qcurve"/>
      <point x="465" y="112"/>
      <point x="387" y="85"/>
      <point x="334" y="85" type="qcurve"/>
    </contour>
    <contour>
      <point x="171" y="107" type="line"/>
      <point x="334" y="107" type="line"/>
      <point x="380" y="107"/>
      <point x="450" y="130"/>
      <point x="474" y="155" type="qcurve"/>
      <point x="504" y="185"/>
      <point x="533" y="282"/>
      <point x="533" y="351" type="qcurve"/>
      <point x="532" y="418"/>
      <point x="504" y="514"/>
      <point x="474" y="544" type="qcurve"/>
      <point x="450" y="569"/>
      <point x="380" y="593"/>
      <point x="334" y="593" type="qcurve"/>
      <point x="171" y="593" type="line"/>
    </contour>
  </outline>
</glyph>
<glyph name="F" format="2">
  <advance width="588"/>
  <unicode hex="0046"/>
  <outline>
    <contour>
      <point x="49" y="0" type="line"/>
      <point x="49" y="700" type="line"/>
      <point x="569" y="700" type="line"/>
      <point x="570" y="593" type="line"/>
      <point x="172" y="593" type="line"/>
      <point x="172" y="440" type="line"/>
      <point x="519" y="440" type="line"/>
      <point x="519" y="333" type="line"/>
      <point x="172" y="333" type="line"/>
      <point x="172" y="0" type="line"/>
    </contour>
    <contour>
      <point x="72" y="22" type="line"/>
      <point x="149" y="22" type="line"/>
      <point x="149" y="355" type="line"/>
      <point x="496" y="355" type="line"/>
      <point x="496" y="418" type="line"/>
      <point x="149" y="418" type="line"/>
      <point x="149" y="615" type="line"/>
      <point x="547" y="615" type="line"/>
      <point x="547" y="678" type="line"/>
      <point x="72" y="678" type="line"/>
    </contour>
  </outline>
</glyph>
<glyph name="G" format="2">
  <advance width="726"/>
  <unicode hex="0047"/>
  <outline>
    <contour>
      <point x="689" y="372" type="line"/>
      <point x="691" y="268"/>
      <point x="645" y="113"/>
      <point x="598" y="66" type="qcurve"/>
      <point x="558" y="26"/>
      <point x="445" y="-13"/>
      <point x="370" y="-14" type="qcurve"/>
      <point x="290" y="-14"/>
      <point x="163" y="33"/>
      <point x="118" y="78" type="qcurve"/>
      <point x="72" y="124"/>
      <point x="22" y="261"/>
      <point x="22" y="349" type="qcurve"/>
      <point x="22" y="436"/>
      <point x="71" y="575"/>
      <point x="118" y="622" type="qcurve"/>
      <point x="162" y="666"/>
      <point x="290" y="713"/>
      <point x="370" y="714" type="qcurve"/>
      <point x="443" y="713"/>
      <point x="557" y="671"/>
      <point x="597" y="631" type="qcurve"/>
      <point x="629" y="599"/>
      <point x="671" y="512"/>
      <point x="679" y="458" type="qcurve"/>
      <point x="548" y="458" type="line"/>
      <point x="545" y="474" type="line"/>
      <point x="538" y="502"/>
      <point x="514" y="545"/>
      <point x="498" y="561" type="qcurve"/>
      <point x="476" y="583"/>
      <point x="414" y="605"/>
      <point x="372" y="604" type="qcurve"/>
      <point x="321" y="605"/>
      <point x="240" y="575"/>
      <point x="212" y="547" type="qcurve"/>
      <point x="181" y="516"/>
      <point x="148" y="416"/>
      <point x="148" y="350" type="qcurve"/>
      <point x="148" y="284"/>
      <point x="182" y="183"/>
      <point x="214" y="151" type="qcurve"/>
      <point x="241" y="124"/>
      <point x="318" y="95"/>
      <point x="367" y="96" type="qcurve"/>
      <point x="415" y="95"/>
      <point x="488" y="121"/>
      <point x="513" y="146" type="qcurve"/>
      <point x="534" y="167"/>
      <point x="559" y="227"/>
      <point x="563" y="264" type="qcurve"/>
      <point x="297" y="264" type="line"/>
      <point x="297" y="372" type="line"/>
    </contour>
    <contour>
      <point x="580" y="82" type="qcurve"/>
      <point x="622" y="124"/>
      <point x="665" y="258"/>
      <point x="666" y="350" type="qcurve"/>
      <point x="320" y="350" type="line"/>
      <point x="320" y="286" type="line"/>
      <point x="587" y="286" type="line"/>
      <point x="586" y="235"/>
      <point x="557" y="156"/>
      <point x="530" y="129" type="qcurve"/>
      <point x="503" y="102"/>
      <point x="422" y="74"/>
      <point x="369" y="74" type="qcurve"/>
      <point x="314" y="74"/>
      <point x="226" y="106"/>
      <point x="195" y="137" type="qcurve"/>
      <point x="160" y="172"/>
      <point x="124" y="281"/>
      <point x="124" y="352" type="qcurve"/>
      <point x="124" y="421"/>
      <point x="160" y="529"/>
      <point x="195" y="564" type="qcurve"/>
      <point x="226" y="595"/>
      <point x="314" y="626"/>
      <point x="371" y="626" type="qcurve"/>
      <point x="418" y="626"/>
      <point x="491" y="601"/>
      <point x="516" y="576" type="qcurve"/>
      <point x="534" y="559"/>
      <point x="560" y="510"/>
      <point x="567" y="479" type="qcurve"/>
      <point x="567" y="480" type="line"/>
      <point x="649" y="480" type="line"/>
      <point x="639" y="523"/>
      <point x="604" y="591"/>
      <point x="578" y="617" type="qcurve"/>
      <point x="541" y="654"/>
      <point x="437" y="692"/>
      <point x="371" y="692" type="qcurve"/>
      <point x="296" y="692"/>
      <point x="176" y="649"/>
      <point x="135" y="607" type="qcurve"/>
      <point x="92" y="563"/>
      <point x="45" y="434"/>
      <point x="46" y="350" type="qcurve"/>
      <point x="45" y="269"/>
      <point x="93" y="139"/>
      <point x="137" y="95" type="qcurve"/>
      <point x="179" y="53"/>
      <point x="297" y="8"/>
      <point x="369" y="8" type="qcurve"/>
      <point x="438" y="8"/>
      <point x="543" y="45"/>
    </contour>
  </outline>
</glyph>
<glyph name="J" format="2">
  <advance width="518"/>
  <unicode hex="004A"/>
  <outline>
    <contour>
      <point x="247" y="-14" type="qcurve"/>
      <point x="188" y="-13"/>
      <point x="101" y="14"/>
      <point x="73" y="42" type="qcurve"/>
      <point x="49" y="67"/>
      <point x="24" y="139"/>
      <point x="24" y="185" type="qcurve"/>
      <point x="24" y="231" type="line"/>
      <point x="145" y="231" type="line"/>
      <point x="145" y="191" type="line"/>
      <point x="144" y="167"/>
      <point x="156" y="132"/>
      <point x="168" y="120" type="qcurve"/>
      <point x="180" y="107"/>
      <point x="219" y="95"/>
      <point x="246" y="96" type="qcurve"/>
      <point x="273" y="95"/>
      <point x="310" y="107"/>
      <point x="323" y="119" type="qcurve"/>
      <point x="336" y="132"/>
      <point x="347" y="170"/>
      <point x="347" y="198" type="qcurve"/>
      <point x="347" y="592" type="line"/>
      <point x="144" y="592" type="line"/>
      <point x="144" y="700" type="line"/>
      <point x="470" y="700" type="line"/>
      <point x="470" y="200" type="line"/>
      <point x="470" y="147"/>
      <point x="445" y="67"/>
      <point x="419" y="40" type="qcurve"/>
      <point x="392" y="13"/>
      <point x="307" y="-13"/>
    </contour>
    <contour>
      <point x="246" y="8" type="qcurve"/>
      <point x="298" y="8"/>
      <point x="375" y="32"/>
      <point x="400" y="57" type="qcurve"/>
      <point x="424" y="81"/>
      <point x="447" y="153"/>
      <point x="447" y="202" type="qcurve"/>
      <point x="447" y="678" type="line"/>
      <point x="167" y="678" type="line"/>
      <point x="167" y="614" type="line"/>
      <point x="370" y="614" type="line"/>
      <point x="370" y="196" type="line"/>
      <point x="370" y="165"/>
      <point x="355" y="119"/>
      <point x="340" y="104" type="qcurve"/>
      <point x="324" y="88"/>
      <point x="276" y="74"/>
      <point x="244" y="74" type="qcurve"/>
      <point x="213" y="74"/>
      <point x="166" y="89"/>
      <point x="151" y="105" type="qcurve"/>
      <point x="136" y="119"/>
      <point x="121" y="163"/>
      <point x="122" y="191" type="qcurve"/>
      <point x="122" y="209" type="line"/>
      <point x="47" y="209" type="line"/>
      <point x="47" y="185" type="line"/>
      <point x="46" y="145"/>
      <point x="70" y="82"/>
      <point x="92" y="60" type="qcurve"/>
      <point x="117" y="35"/>
      <point x="195" y="8"/>
    </contour>
  </outline>
</glyph>
<glyph name="K" format="2">
  <advance width="644"/>
  <unicode hex="004B"/>
  <outline>
    <contour>
      <point x="49" y="0" type="line"/>
      <point x="49" y="700" type="line"/>
      <point x="172" y="700" type="line"/>
      <point x="172" y="421" type="line"/>
      <point x="485" y="700" type="line"/>
      <point x="655" y="700" type="line"/>
      <point x="377" y="451" type="line"/>
      <point x="650" y="0" type="line"/>
      <point x="505" y="0" type="line"/>
      <point x="279" y="376" type="line"/>
      <point x="172" y="278" type="line"/>
      <point x="172" y="0" type="line"/>
    </contour>
    <contour>
      <point x="72" y="22" type="line"/>
      <point x="149" y="22" type="line"/>
      <point x="149" y="287" type="line"/>
      <point x="285" y="412" type="line"/>
      <point x="518" y="22" type="line"/>
      <point x="610" y="22" type="line"/>
      <point x="348" y="455" type="line"/>
      <point x="597" y="678" type="line"/>
      <point x="494" y="678" type="line"/>
      <point x="149" y="371" type="line"/>
      <point x="149" y="678" type="line"/>
      <point x="72" y="678" type="line"/>
    </contour>
  </outline>
</glyph>
<glyph name="L" format="2">
  <advance width="552"/>
  <unicode hex="004C"/>
  <outline>
    <contour>
      <point x="49" y="0" type="line"/>
      <point x="49" y="700" type="line"/>
      <point x="171" y="700" type="line"/>
      <point x="172" y="109" type="line"/>
      <point x="518" y="109" type="line"/>
      <point x="518" y="0" type="line"/>
    </contour>
    <contour>
      <point x="72" y="22" type="line"/>
      <point x="495" y="22" type="line"/>
      <point x="495" y="87" type="line"/>
      <point x="149" y="87" type="line"/>
      <point x="148" y="678" type="line"/>
      <point x="72" y="678" type="line"/>
    </contour>
  </outline>
</glyph>
<glyph name="M" format="2">
  <advance width="786"/>
  <unicode hex="004D"/>
  <outline>
    <contour>
      <point x="49" y="0" type="line"/>
      <point x="49" y="700" type="line"/>
      <point x="244" y="700" type="line"/>
      <point x="395" y="119" type="line"/>
      <point x="542" y="700" type="line"/>
      <point x="738" y="700" type="line"/>
      <point x="738" y="0" type="line"/>
      <point x="621" y="0" type="line"/>
      <point x="619" y="550" type="line"/>
      <point x="477" y="0" type="line"/>
      <point x="310" y="0" type="line"/>
      <point x="167" y="550" type="line"/>
      <point x="166" y="0" type="line"/>
    </contour>
    <contour>
      <point x="72" y="22" type="line"/>
      <point x="143" y="22" type="line"/>
      <point x="145" y="618" type="line"/>
      <point x="173" y="618" type="line"/>
      <point x="328" y="22" type="line"/>
      <point x="459" y="22" type="line"/>
      <point x="613" y="618" type="line"/>
      <point x="641" y="618" type="line"/>
      <point x="643" y="22" type="line"/>
      <point x="715" y="22" type="line"/>
      <point x="715" y="678" type="line"/>
      <point x="560" y="678" type="line"/>
      <point x="407" y="74" type="line"/>
      <point x="383" y="74" type="line"/>
      <point x="226" y="678" type="line"/>
      <point x="72" y="678" type="line"/>
    </contour>
  </outline>
</glyph>
<glyph name="N" format="2">
  <advance width="692"/>
  <unicode hex="004E"/>
  <outline>
    <contour>
      <point x="49" y="0" type="line"/>
      <point x="49" y="700" type="line"/>
      <point x="239" y="700" type="line"/>
      <point x="522" y="117" type="line"/>
      <point x="522" y="700" type="line"/>
      <point x="644" y="700" type="line"/>
      <point x="644" y="0" type="line"/>
      <point x="452" y="0" type="line"/>
      <point x="170" y="581" type="line"/>
      <point x="169" y="0" type="line"/>
    </contour>
    <contour>
      <point x="72" y="22" type="line"/>
      <point x="146" y="22" type="line"/>
      <point x="148" y="630" type="line"/>
      <point x="172" y="630" type="line"/>
      <point x="466" y="22" type="line"/>
      <point x="621" y="22" type="line"/>
      <point x="621" y="678" type="line"/>
      <point x="545" y="678" type="line"/>
      <point x="545" y="68" type="line"/>
      <point x="520" y="68" type="line"/>
      <point x="225" y="678" type="line"/>
      <point x="72" y="678" type="line"/>
    </contour>
  </outline>
</glyph>
<glyph name="O" format="2">
  <advance width="726"/>
  <unicode hex="004F"/>
  <outline>
    <contour>
      <point x="364" y="-14" type="qcurve"/>
      <point x="288" y="-14"/>
      <point x="163" y="33"/>
      <point x="119" y="76" type="qcurve"/>
      <point x="73" y="123"/>
      <point x="22" y="262"/>
      <point x="22" y="350" type="qcurve"/>
      <point x="22" y="437"/>
      <point x="74" y="575"/>
      <point x="120" y="622" type="qcurve"/>
      <point x="164" y="666"/>
      <point x="287" y="713"/>
      <point x="362" y="714" type="qcurve"/>
      <point x="439" y="713"/>
      <point x="563" y="667"/>
      <point x="606" y="623" type="qcurve"/>
      <point x="653" y="577"/>
      <point x="703" y="438"/>
      <point x="703" y="351" type="qcurve"/>
      <point x="704" y="263"/>
      <point x="653" y="124"/>
      <point x="606" y="77" type="qcurve"/>
      <point x="563" y="33"/>
      <point x="440" y="-13"/>
    </contour>
    <contour>
      <point x="364" y="8" type="qcurve"/>
      <point x="433" y="8"/>
      <point x="547" y="53"/>
      <point x="587" y="93" type="qcurve"/>
      <point x="632" y="138"/>
      <point x="680" y="269"/>
      <point x="681" y="350" type="qcurve"/>
      <point x="680" y="431"/>
      <point x="632" y="563"/>
      <point x="587" y="608" type="qcurve"/>
      <point x="547" y="648"/>
      <point x="436" y="692"/>
      <point x="368" y="692" type="qcurve"/>
      <point x="296" y="692"/>
      <point x="179" y="647"/>
      <point x="138" y="606" type="qcurve"/>
      <point x="94" y="561"/>
      <point x="46" y="431"/>
      <point x="45" y="350" type="qcurve"/>
      <point x="46" y="268"/>
      <point x="94" y="138"/>
      <point x="138" y="94" type="qcurve"/>
      <point x="180" y="53"/>
      <point x="295" y="8"/>
    </contour>
    <contour>
      <point x="363" y="74" type="qcurve"/>
      <point x="311" y="74"/>
      <point x="227" y="105"/>
      <point x="197" y="136" type="qcurve"/>
      <point x="162" y="170"/>
      <point x="125" y="279"/>
      <point x="125" y="351" type="qcurve"/>
      <point x="125" y="421"/>
      <point x="161" y="530"/>
      <point x="197" y="566" type="qcurve"/>
      <point x="227" y="595"/>
      <point x="311" y="626"/>
      <point x="363" y="626" type="qcurve"/>
      <point x="416" y="626"/>
      <point x="500" y="595"/>
      <point x="531" y="564" type="qcurve"/>
      <point x="565" y="530"/>
      <point x="602" y="422"/>
      <point x="602" y="351" type="qcurve"/>
      <point x="602" y="281"/>
      <point x="565" y="171"/>
      <point x="529" y="136" type="qcurve"/>
      <point x="499" y="105"/>
      <point x="415" y="74"/>
    </contour>
    <contour>
      <point x="363" y="96" type="qcurve"/>
      <point x="409" y="96"/>
      <point x="484" y="124"/>
      <point x="511" y="152" type="qcurve"/>
      <point x="544" y="185"/>
      <point x="579" y="285"/>
      <point x="579" y="351" type="qcurve"/>
      <point x="579" y="416"/>
      <point x="544" y="515"/>
      <point x="511" y="548" type="qcurve"/>
      <point x="484" y="576"/>
      <point x="409" y="604"/>
      <point x="363" y="604" type="qcurve"/>
      <point x="317" y="604"/>
      <point x="242" y="576"/>
      <point x="215" y="549" type="qcurve"/>
      <point x="183" y="516"/>
      <point x="148" y="416"/>
      <point x="148" y="351" type="qcurve"/>
      <point x="148" y="286"/>
      <point x="182" y="184"/>
      <point x="215" y="151" type="qcurve"/>
      <point x="243" y="124"/>
      <point x="317" y="96"/>
    </contour>
  </outline>
</glyph>
<glyph name="P" format="2">
  <advance width="616"/>
  <unicode hex="0050"/>
  <outline>
    <contour>
      <point x="49" y="0" type="line"/>
      <point x="48" y="700" type="line"/>
      <point x="358" y="700" type="line"/>
      <point x="422" y="700"/>
      <point x="517" y="668"/>
      <point x="547" y="638" type="qcurve"/>
      <point x="572" y="614"/>
      <point x="596" y="546"/>
      <point x="597" y="504" type="qcurve"/>
      <point x="596" y="458"/>
      <point x="570" y="386"/>
      <point x="543" y="359" type="qcurve"/>
      <point x="513" y="329"/>
      <point x="420" y="297"/>
      <point x="358" y="297" type="qcurve"/>
      <point x="172" y="297" type="line"/>
      <point x="172" y="0" type="line"/>
    </contour>
    <contour>
      <point x="72" y="22" type="line"/>
      <point x="149" y="22" type="line"/>
      <point x="149" y="319" type="line"/>
      <point x="358" y="319" type="line"/>
      <point x="414" y="320"/>
      <point x="499" y="348"/>
      <point x="526" y="376" type="qcurve"/>
      <point x="550" y="399"/>
      <point x="574" y="463"/>
      <point x="574" y="503" type="qcurve"/>
      <point x="574" y="541"/>
      <point x="551" y="601"/>
      <point x="529" y="623" type="qcurve"/>
      <point x="502" y="650"/>
      <point x="415" y="678"/>
      <point x="358" y="678" type="qcurve"/>
      <point x="72" y="678" type="line"/>
    </contour>
    <contour>
      <point x="148" y="383" type="line"/>
      <point x="149" y="615" type="line"/>
      <point x="352" y="615" type="line"/>
      <point x="395" y="614"/>
      <point x="453" y="597"/>
      <point x="469" y="581" type="qcurve"/>
      <point x="482" y="568"/>
      <point x="494" y="530"/>
      <point x="495" y="505" type="qcurve"/>
      <point x="495" y="478"/>
      <point x="480" y="434"/>
      <point x="465" y="419" type="qcurve"/>
      <point x="447" y="402"/>
      <point x="391" y="384"/>
      <point x="352" y="384" type="qcurve"/>
    </contour>
    <contour>
      <point x="172" y="405" type="line"/>
      <point x="352" y="406" type="line"/>
      <point x="386" y="405"/>
      <point x="433" y="420"/>
      <point x="447" y="434" type="qcurve"/>
      <point x="460" y="446"/>
      <point x="472" y="482"/>
      <point x="472" y="504" type="qcurve"/>
      <point x="472" y="525"/>
      <point x="461" y="556"/>
      <point x="451" y="566" type="qcurve"/>
      <point x="438" y="580"/>
      <point x="389" y="593"/>
      <point x="352" y="593" type="qcurve"/>
      <point x="171" y="593" type="line"/>
    </contour>
  </outline>
</glyph>
<glyph name="Q" format="2">
  <advance width="726"/>
  <unicode hex="0051"/>
  <outline>
    <contour>
      <point x="365" y="-14" type="qcurve"/>
      <point x="289" y="-13"/>
      <point x="163" y="33"/>
      <point x="119" y="78" type="qcurve"/>
      <point x="72" y="124"/>
      <point x="22" y="262"/>
      <point x="22" y="350" type="qcurve"/>
      <point x="22" y="437"/>
      <point x="73" y="576"/>
      <point x="120" y="623" type="qcurve"/>
      <point x="163" y="666"/>
      <point x="286" y="713"/>
      <point x="362" y="714" type="qcurve"/>
      <point x="437" y="713"/>
      <point x="562" y="666"/>
      <point x="606" y="622" type="qcurve"/>
      <point x="652" y="575"/>
      <point x="703" y="437"/>
      <point x="703" y="351" type="qcurve"/>
      <point x="704" y="284"/>
      <point x="670" y="160"/>
      <point x="639" y="111" type="qcurve"/>
      <point x="767" y="-14" type="line"/>
      <point x="611" y="-14" type="line"/>
      <point x="556" y="41" type="line"/>
      <point x="513" y="12"/>
      <point x="416" y="-14"/>
    </contour>
    <contour>
      <point x="365" y="8" type="qcurve"/>
      <point x="404" y="8"/>
      <point x="511" y="35"/>
      <point x="557" y="72" type="qcurve"/>
      <point x="620" y="8" type="line"/>
      <point x="712" y="8" type="line"/>
      <point x="609" y="108" type="line"/>
      <point x="644" y="155"/>
      <point x="681" y="281"/>
      <point x="681" y="352" type="qcurve"/>
      <point x="681" y="432"/>
      <point x="633" y="562"/>
      <point x="589" y="607" type="qcurve"/>
      <point x="549" y="647"/>
      <point x="434" y="692"/>
      <point x="364" y="692" type="qcurve"/>
      <point x="292" y="692"/>
      <point x="176" y="649"/>
      <point x="136" y="608" type="qcurve"/>
      <point x="93" y="565"/>
      <point x="46" y="434"/>
      <point x="46" y="351" type="qcurve"/>
      <point x="46" y="270"/>
      <point x="94" y="139"/>
      <point x="139" y="95" type="qcurve"/>
      <point x="180" y="53"/>
      <point x="296" y="8"/>
    </contour>
    <contour>
      <point x="361" y="73" type="qcurve"/>
      <point x="310" y="72"/>
      <point x="226" y="103"/>
      <point x="197" y="133" type="qcurve"/>
      <point x="161" y="169"/>
      <point x="124" y="279"/>
      <point x="124" y="351" type="qcurve"/>
      <point x="123" y="420"/>
      <point x="162" y="528"/>
      <point x="198" y="564" type="qcurve"/>
      <point x="228" y="595"/>
      <point x="312" y="627"/>
      <point x="363" y="627" type="qcurve"/>
      <point x="416" y="627"/>
      <point x="500" y="596"/>
      <point x="531" y="566" type="qcurve"/>
      <point x="565" y="530"/>
      <point x="603" y="421"/>
      <point x="602" y="351" type="qcurve"/>
      <point x="603" y="295"/>
      <point x="577" y="199"/>
      <point x="553" y="163" type="qcurve"/>
      <point x="473" y="240" type="line"/>
      <point x="382" y="240" type="line"/>
      <point x="508" y="117" type="line"/>
      <point x="471" y="89"/>
      <point x="400" y="73"/>
    </contour>
    <contour>
      <point x="360" y="95" type="qcurve"/>
      <point x="383" y="95"/>
      <point x="449" y="105"/>
      <point x="471" y="122" type="qcurve"/>
      <point x="327" y="262" type="line"/>
      <point x="483" y="262" type="line"/>
      <point x="548" y="199" type="line"/>
      <point x="564" y="230"/>
      <point x="580" y="306"/>
      <point x="579" y="351" type="qcurve"/>
      <point x="579" y="416"/>
      <point x="544" y="517"/>
      <point x="511" y="549" type="qcurve"/>
      <point x="484" y="577"/>
      <point x="410" y="606"/>
      <point x="364" y="605" type="qcurve"/>
      <point x="318" y="605"/>
      <point x="243" y="576"/>
      <point x="215" y="549" type="qcurve"/>
      <point x="182" y="516"/>
      <point x="147" y="415"/>
      <point x="146" y="350" type="qcurve"/>
      <point x="147" y="284"/>
      <point x="182" y="183"/>
      <point x="215" y="151" type="qcurve"/>
      <point x="241" y="123"/>
      <point x="315" y="95"/>
    </contour>
  </outline>
</glyph>
<glyph name="R" format="2">
  <advance width="626"/>
  <unicode hex="0052"/>
  <outline>
    <contour>
      <point x="49" y="0" type="line"/>
      <point x="49" y="700" type="line"/>
      <point x="345" y="700" type="line"/>
      <point x="411" y="700"/>
      <point x="503" y="674"/>
      <point x="531" y="646" type="qcurve"/>
      <point x="553" y="624"/>
      <point x="574" y="561"/>
      <point x="574" y="519" type="qcurve"/>
      <point x="573" y="475"/>
      <point x="549" y="408"/>
      <point x="525" y="384" type="qcurve"/>
      <point x="503" y="362"/>
      <point x="440" y="335"/>
      <point x="397" y="328" type="qcurve"/>
      <point x="645" y="0" type="line"/>
      <point x="500" y="0" type="line"/>
      <point x="255" y="325" type="line"/>
      <point x="172" y="325" type="line"/>
      <point x="172" y="0" type="line"/>
    </contour>
    <contour>
      <point x="72" y="22" type="line"/>
      <point x="149" y="22" type="line"/>
      <point x="149" y="347" type="line"/>
      <point x="267" y="347" type="line"/>
      <point x="512" y="22" type="line"/>
      <point x="600" y="22" type="line"/>
      <point x="356" y="346" type="line"/>
      <point x="408" y="349"/>
      <point x="484" y="376"/>
      <point x="508" y="399" type="qcurve"/>
      <point x="530" y="421"/>
      <point x="551" y="481"/>
      <point x="551" y="519" type="qcurve"/>
      <point x="551" y="556"/>
      <point x="532" y="612"/>
      <point x="513" y="631" type="qcurve"/>
      <point x="489" y="655"/>
      <point x="405" y="678"/>
      <point x="345" y="678" type="qcurve"/>
      <point x="72" y="678" type="line"/>
    </contour>
    <contour>
      <point x="149" y="408" type="line"/>
      <point x="148" y="616" type="line"/>
      <point x="340" y="616" type="line"/>
      <point x="378" y="616"/>
      <point x="432" y="602"/>
      <point x="447" y="586" type="qcurve"/>
      <point x="460" y="574"/>
      <point x="471" y="539"/>
      <point x="472" y="516" type="qcurve"/>
      <point x="471" y="491"/>
      <point x="458" y="454"/>
      <point x="445" y="441" type="qcurve"/>
      <point x="429" y="425"/>
      <point x="376" y="408"/>
      <point x="340" y="408" type="qcurve"/>
    </contour>
    <contour>
      <point x="172" y="430" type="line"/>
      <point x="340" y="430" type="line"/>
      <point x="370" y="430"/>
      <point x="413" y="443"/>
      <point x="427" y="457" type="qcurve"/>
      <point x="437" y="467"/>
      <point x="448" y="499"/>
      <point x="449" y="518" type="qcurve"/>
      <point x="449" y="535"/>
      <point x="441" y="560"/>
      <point x="432" y="569" type="qcurve"/>
      <point x="419" y="582"/>
      <point x="374" y="593"/>
      <point x="340" y="594" type="qcurve"/>
      <point x="171" y="594" type="line"/>
    </contour>
  </outline>
</glyph>
<glyph name="S" format="2">
  <advance width="621"/>
  <unicode hex="0053"/>
  <outline>
    <contour>
      <point x="323" y="-14" type="qcurve"/>
      <point x="245" y="-14"/>
      <point x="127" y="25"/>
      <point x="89" y="64" type="qcurve"/>
      <point x="58" y="95"/>
      <point x="21" y="184"/>
      <point x="17" y="239" type="qcurve"/>
      <point x="143" y="239" type="line"/>
      <point x="147" y="210"/>
      <point x="169" y="163"/>
      <point x="186" y="146" type="qcurve"/>
      <point x="211" y="121"/>
      <point x="283" y="95"/>
      <point x="328" y="96" type="qcurve"/>
      <point x="375" y="96"/>
      <point x="438" y="112"/>
      <point x="457" y="130" type="qcurve"/>
      <point x="468" y="142"/>
      <point x="480" y="175"/>
      <point x="480" y="196" type="qcurve"/>
      <point x="479" y="214"/>
      <point x="467" y="243"/>
      <point x="455" y="255" type="qcurve"/>
      <point x="439" y="271"/>
      <point x="389" y="292"/>
      <point x="355" y="298" type="qcurve"/>
      <point x="272" y="312" type="line"/>
      <point x="210" y="322"/>
      <point x="121" y="359"/>
      <point x="93" y="386" type="qcurve"/>
      <point x="70" y="410"/>
      <point x="47" y="471"/>
      <point x="48" y="509" type="qcurve"/>
      <point x="48" y="552"/>
      <point x="74" y="622"/>
      <point x="99" y="647" type="qcurve"/>
      <point x="131" y="679"/>
      <point x="236" y="713"/>
      <point x="308" y="714" type="qcurve"/>
      <point x="380" y="713"/>
      <point x="488" y="677"/>
      <point x="524" y="642" type="qcurve"/>
      <point x="553" y="613"/>
      <point x="587" y="528"/>
      <point x="590" y="474" type="qcurve"/>
      <point x="465" y="474" type="line"/>
      <point x="464" y="505"/>
      <point x="446" y="552"/>
      <point x="430" y="568" type="qcurve"/>
      <point x="412" y="587"/>
      <point x="352" y="605"/>
      <point x="309" y="605" type="qcurve"/>
      <point x="266" y="606"/>
      <point x="207" y="589"/>
      <point x="191" y="573" type="qcurve"/>
      <point x="180" y="563"/>
      <point x="169" y="533"/>
      <point x="169" y="514" type="qcurve"/>
      <point x="169" y="500"/>
      <point x="178" y="476"/>
      <point x="188" y="466" type="qcurve"/>
      <point x="202" y="452"/>
      <point x="255" y="431"/>
      <point x="295" y="424" type="qcurve"/>
      <point x="379" y="409" type="line"/>
      <point x="437" y="399"/>
      <point x="524" y="362"/>
      <point x="551" y="334" type="qcurve"/>
      <point x="578" y="308"/>
      <point x="604" y="237"/>
      <point x="604" y="194" type="qcurve"/>
      <point x="604" y="151"/>
      <point x="578" y="80"/>
      <point x="553" y="55" type="qcurve"/>
      <point x="518" y="21"/>
      <point x="402" y="-14"/>
    </contour>
    <contour>
      <point x="326" y="8" type="qcurve"/>
      <point x="400" y="8"/>
      <point x="503" y="41"/>
      <point x="534" y="72" type="qcurve"/>
      <point x="558" y="96"/>
      <point x="581" y="157"/>
      <point x="581" y="194" type="qcurve"/>
      <point x="580" y="233"/>
      <point x="558" y="295"/>
      <point x="534" y="319" type="qcurve"/>
      <point x="509" y="344"/>
      <point x="430" y="378"/>
      <point x="375" y="388" type="qcurve"/>
      <point x="291" y="402" type="line"/>
      <point x="248" y="410"/>
      <point x="188" y="434"/>
      <point x="170" y="452" type="qcurve"/>
      <point x="158" y="464"/>
      <point x="145" y="495"/>
      <point x="146" y="514" type="qcurve"/>
      <point x="145" y="537"/>
      <point x="160" y="575"/>
      <point x="173" y="588" type="qcurve"/>
      <point x="192" y="607"/>
      <point x="260" y="628"/>
      <point x="309" y="627" type="qcurve"/>
      <point x="358" y="628"/>
      <point x="428" y="607"/>
      <point x="449" y="586" type="qcurve"/>
      <point x="465" y="570"/>
      <point x="483" y="525"/>
      <point x="487" y="496" type="qcurve"/>
      <point x="563" y="496" type="line"/>
      <point x="559" y="537"/>
      <point x="531" y="602"/>
      <point x="507" y="626" type="qcurve"/>
      <point x="474" y="659"/>
      <point x="372" y="691"/>
      <point x="305" y="692" type="qcurve"/>
      <point x="240" y="692"/>
      <point x="145" y="662"/>
      <point x="116" y="633" type="qcurve"/>
      <point x="94" y="611"/>
      <point x="70" y="549"/>
      <point x="71" y="509" type="qcurve"/>
      <point x="70" y="475"/>
      <point x="90" y="422"/>
      <point x="111" y="401" type="qcurve"/>
      <point x="136" y="376"/>
      <point x="218" y="343"/>
      <point x="276" y="334" type="qcurve"/>
      <point x="359" y="320" type="line"/>
      <point x="396" y="314"/>
      <point x="453" y="289"/>
      <point x="471" y="271" type="qcurve"/>
      <point x="487" y="255"/>
      <point x="502" y="217"/>
      <point x="503" y="195" type="qcurve"/>
      <point x="502" y="168"/>
      <point x="488" y="128"/>
      <point x="473" y="113" type="qcurve"/>
      <point x="454" y="93"/>
      <point x="381" y="73"/>
      <point x="328" y="74" type="qcurve"/>
      <point x="275" y="74"/>
      <point x="196" y="101"/>
      <point x="169" y="128" type="qcurve"/>
      <point x="153" y="144"/>
      <point x="129" y="189"/>
      <point x="124" y="217" type="qcurve"/>
      <point x="43" y="217" type="line"/>
      <point x="49" y="176"/>
      <point x="81" y="108"/>
      <point x="106" y="83" type="qcurve"/>
      <point x="143" y="46"/>
      <point x="254" y="8"/>
    </contour>
  </outline>
</glyph>
<glyph name="U" format="2">
  <advance width="665"/>
  <unicode hex="0055"/>
  <outline>
    <contour>
      <point x="333" y="-14" type="qcurve"/>
      <point x="261" y="-14"/>
      <point x="151" y="22"/>
      <point x="115" y="58" type="qcurve"/>
      <point x="81" y="93"/>
      <point x="45" y="196"/>
      <point x="46" y="263" type="qcurve"/>
      <point x="46" y="700" type="line"/>
      <point x="169" y="700" type="line"/>
      <point x="169" y="259" type="line"/>
      <point x="169" y="219"/>
      <point x="191" y="159"/>
      <point x="212" y="138" type="qcurve"/>
      <point x="232" y="117"/>
      <point x="295" y="95"/>
      <point x="335" y="96" type="qcurve"/>
      <point x="374" y="96"/>
      <point x="436" y="118"/>
      <point x="457" y="139" type="qcurve"/>
      <point x="477" y="160"/>
      <point x="499" y="220"/>
      <point x="499" y="259" type="qcurve"/>
      <point x="499" y="700" type="line"/>
      <point x="622" y="700" type="line"/>
      <point x="622" y="263" type="line"/>
      <point x="622" y="197"/>
      <point x="586" y="93"/>
      <point x="552" y="58" type="qcurve"/>
      <point x="515" y="23"/>
      <point x="405" y="-14"/>
    </contour>
    <contour>
      <point x="334" y="8" type="qcurve"/>
      <point x="400" y="8"/>
      <point x="500" y="42"/>
      <point x="533" y="75" type="qcurve"/>
      <point x="566" y="108"/>
      <point x="599" y="203"/>
      <point x="599" y="263" type="qcurve"/>
      <point x="599" y="678" type="line"/>
      <point x="522" y="678" type="line"/>
      <point x="522" y="259" type="line"/>
      <point x="522" y="215"/>
      <point x="498" y="146"/>
      <point x="475" y="123" type="qcurve"/>
      <point x="450" y="98"/>
      <point x="378" y="74"/>
      <point x="331" y="74" type="qcurve"/>
      <point x="285" y="74"/>
      <point x="216" y="97"/>
      <point x="192" y="121" type="qcurve"/>
      <point x="170" y="144"/>
      <point x="146" y="214"/>
      <point x="146" y="259" type="qcurve"/>
      <point x="146" y="678" type="line"/>
      <point x="69" y="678" type="line"/>
      <point x="69" y="263" type="line"/>
      <point x="69" y="203"/>
      <point x="102" y="108"/>
      <point x="134" y="76" type="qcurve"/>
      <point x="167" y="42"/>
      <point x="268" y="8"/>
    </contour>
  </outline>
</glyph>
<glyph name="V" format="2">
  <advance width="631"/>
  <unicode hex="0056"/>
  <outline>
    <contour>
      <point x="232" y="0" type="line"/>
      <point x="-17" y="700" type="line"/>
      <point x="115" y="700" type="line"/>
      <point x="317" y="120" type="line"/>
      <point x="521" y="700" type="line"/>
      <point x="648" y="700" type="line"/>
      <point x="406" y="0" type="line"/>
    </contour>
    <contour>
      <point x="249" y="22" type="line"/>
      <point x="389" y="22" type="line"/>
      <point x="617" y="678" type="line"/>
      <point x="538" y="678" type="line"/>
      <point x="322" y="65" type="line"/>
      <point x="312" y="65" type="line"/>
      <point x="98" y="678" type="line"/>
      <point x="15" y="678" type="line"/>
    </contour>
  </outline>
</glyph>
<glyph name="W" format="2">
  <advance width="984"/>
  <unicode hex="0057"/>
  <outline>
    <contour>
      <point x="195" y="0" type="line"/>
      <point x="20" y="700" type="line"/>
      <point x="147" y="700" type="line"/>
      <point x="282" y="134" type="line"/>
      <point x="403" y="700" type="line"/>
      <point x="581" y="700" type="line"/>
      <point x="702" y="134" type="line"/>
      <point x="837" y="700" type="line"/>
      <point x="964" y="700" type="line"/>
      <point x="790" y="0" type="line"/>
      <point x="612" y="0" type="line"/>
      <point x="491" y="563" type="line"/>
      <point x="372" y="0" type="line"/>
    </contour>
    <contour>
      <point x="213" y="22" type="line"/>
      <point x="353" y="22" type="line"/>
      <point x="477" y="608" type="line"/>
      <point x="505" y="608" type="line"/>
      <point x="631" y="22" type="line"/>
      <point x="772" y="22" type="line"/>
      <point x="935" y="678" type="line"/>
      <point x="855" y="678" type="line"/>
      <point x="713" y="86" type="line"/>
      <point x="688" y="86" type="line"/>
      <point x="562" y="678" type="line"/>
      <point x="422" y="678" type="line"/>
      <point x="296" y="85" type="line"/>
      <point x="271" y="85" type="line"/>
      <point x="129" y="678" type="line"/>
      <point x="49" y="678" type="line"/>
    </contour>
  </outline>
</glyph>
<glyph name="Y" format="2">
  <advance width="672"/>
  <unicode hex="0059"/>
  <outline>
    <contour>
      <point x="275" y="0" type="line"/>
      <point x="275" y="280" type="line"/>
      <point x="15" y="700" type="line"/>
      <point x="155" y="700" type="line"/>
      <point x="337" y="395" type="line"/>
      <point x="519" y="700" type="line"/>
      <point x="657" y="700" type="line"/>
      <point x="398" y="280" type="line"/>
      <point x="398" y="0" type="line"/>
    </contour>
    <contour>
      <point x="298" y="22" type="line"/>
      <point x="375" y="22" type="line"/>
      <point x="375" y="286" type="line"/>
      <point x="617" y="678" type="line"/>
      <point x="532" y="678" type="line"/>
      <point x="337" y="350" type="line"/>
      <point x="142" y="678" type="line"/>
      <point x="55" y="678" type="line"/>
      <point x="298" y="286" type="line"/>
    </contour>
  </outline>
</glyph>
<glyph name="Z" format="2">
  <advance width="615"/>
  <unicode hex="005A"/>
  <outline>
    <contour>
      <point x="20" y="0" type="line"/>
      <point x="20" y="93" type="line"/>
      <point x="426" y="592" type="line"/>
      <point x="45" y="592" type="line"/>
      <point x="45" y="700" type="line"/>
      <point x="585" y="700" type="line"/>
      <point x="585" y="608" type="line"/>
      <point x="178" y="108" type="line"/>
      <point x="584" y="108" type="line"/>
      <point x="584" y="0" type="line"/>
    </contour>
    <contour>
      <point x="43" y="22" type="line"/>
      <point x="561" y="22" type="line"/>
      <point x="561" y="86" type="line"/>
      <point x="131" y="86" type="line"/>
      <point x="562" y="616" type="line"/>
      <point x="562" y="678" type="line"/>
      <point x="68" y="678" type="line"/>
      <point x="68" y="614" type="line"/>
      <point x="473" y="614" type="line"/>
      <point x="43" y="85" type="line"/>
    </contour>
  </outline>
</glyph>
<glyph name="bracketleft" format="2">
  <advance width="238"/>
  <unicode hex="005B"/>
  <outline>
    <contour>
      <point x="67" y="-127" type="line"/>
      <point x="65" y="-127"/>
      <point x="62" y="-124"/>
      <point x="62" y="-122" type="qcurve"/>
      <point x="62" y="728" type="line"/>
      <point x="62" y="730"/>
      <point x="65" y="733"/>
      <point x="67" y="733" type="qcurve"/>
      <point x="208" y="733" type="line"/>
      <point x="210" y="733"/>
      <point x="213" y="730"/>
      <point x="213" y="728" type="qcurve"/>
      <point x="213" y="714" type="line"/>
      <point x="213" y="712"/>
      <point x="210" y="709"/>
      <point x="208" y="709" type="qcurve"/>
      <point x="94" y="709" type="line"/>
      <point x="92" y="709"/>
      <point x="89" y="706"/>
      <point x="89" y="704" type="qcurve"/>
      <point x="89" y="-98" type="line"/>
      <point x="89" y="-100"/>
      <point x="92" y="-103"/>
      <point x="94" y="-103" type="qcurve"/>
      <point x="208" y="-103" type="line"/>
      <point x="210" y="-103"/>
      <point x="213" y="-106"/>
      <point x="213" y="-108" type="qcurve"/>
      <point x="213" y="-122" type="line"/>
      <point x="213" y="-124"/>
      <point x="210" y="-127"/>
      <point x="208" y="-127" type="qcurve"/>
    </contour>
  </outline>
</glyph>
<glyph name="backslash" format="2">
  <advance width="422"/>
  <unicode hex="005C"/>
  <outline>
    <contour>
      <point x="417" y="-124" type="line"/>
      <point x="11" y="754" type="line"/>
      <point x="31" y="764" type="line"/>
      <point x="437" y="-114" type="line"/>
    </contour>
  </outline>
</glyph>
<glyph name="bracketright" format="2">
  <advance width="238"/>
  <unicode hex="005D"/>
  <outline>
    <contour>
      <point x="30" y="-127" type="line"/>
      <point x="28" y="-127"/>
      <point x="25" y="-124"/>
      <point x="25" y="-122" type="qcurve"/>
      <point x="25" y="-108" type="line"/>
      <point x="25" y="-106"/>
      <point x="28" y="-103"/>
      <point x="30" y="-103" type="qcurve"/>
      <point x="144" y="-103" type="line"/>
      <point x="146" y="-103"/>
      <point x="149" y="-100"/>
      <point x="149" y="-98" type="qcurve"/>
      <point x="149" y="704" type="line"/>
      <point x="149" y="706"/>
      <point x="146" y="709"/>
      <point x="144" y="709" type="qcurve"/>
      <point x="30" y="709" type="line"/>
      <point x="28" y="709"/>
      <point x="25" y="712"/>
      <point x="25" y="714" type="qcurve"/>
      <point x="25" y="728" type="line"/>
      <point x="25" y="730"/>
      <point x="28" y="733"/>
      <point x="30" y="733" type="qcurve"/>
      <point x="171" y="733" type="line"/>
      <point x="173" y="733"/>
      <point x="176" y="730"/>
      <point x="176" y="728" type="qcurve"/>
      <point x="176" y="-122" type="line"/>
      <point x="176" y="-124"/>
      <point x="173" y="-127"/>
      <point x="171" y="-127" type="qcurve"/>
    </contour>
  </outline>
</glyph>
<glyph name="asciicircum" format="2">
  <advance width="557"/>
  <unicode hex="005E"/>
  <outline>
    <contour>
      <point x="15" y="339" type="line"/>
      <point x="211" y="700" type="line"/>
      <point x="347" y="700" type="line"/>
      <point x="542" y="339" type="line"/>
      <point x="419" y="339" type="line"/>
      <point x="279" y="597" type="line"/>
      <point x="138" y="339" type="line"/>
    </contour>
    <contour>
      <point x="53" y="361" type="line"/>
      <point x="124" y="361" type="line"/>
      <point x="279" y="645" type="line"/>
      <point x="433" y="361" type="line"/>
      <point x="504" y="361" type="line"/>
      <point x="333" y="678" type="line"/>
      <point x="225" y="678" type="line"/>
    </contour>
  </outline>
</glyph>
<glyph name="underscore" format="2">
  <advance width="474"/>
  <unicode hex="005F"/>
  <outline>
    <contour>
      <point x="-2" y="-166" type="line"/>
      <point x="-2" y="-60" type="line"/>
      <point x="476" y="-60" type="line"/>
      <point x="476" y="-166" type="line"/>
    </contour>
    <contour>
      <point x="22" y="-144" type="line"/>
      <point x="453" y="-144" type="line"/>
      <point x="453" y="-82" type="line"/>
      <point x="22" y="-82" type="line"/>
    </contour>
  </outline>
</glyph>
<glyph name="grave" format="2">
  <advance width="548"/>
  <unicode hex="0060"/>
  <outline>
    <contour>
      <point x="261" y="599" type="line"/>
      <point x="132" y="763" type="line"/>
      <point x="275" y="763" type="line"/>
      <point x="364" y="599" type="line"/>
    </contour>
    <contour>
      <point x="273" y="621" type="line"/>
      <point x="326" y="621" type="line"/>
      <point x="261" y="741" type="line"/>
      <point x="178" y="741" type="line"/>
    </contour>
  </outline>
</glyph>
<glyph name="a" format="2">
  <advance width="577"/>
  <unicode hex="0061"/>
  <outline>
    <contour>
      <point x="260" y="-13" type="qcurve"/>
      <point x="210" y="-13"/>
      <point x="128" y="18"/>
      <point x="98" y="48" type="qcurve"/>
      <point x="64" y="83"/>
      <point x="26" y="192"/>
      <point x="26" y="262" type="qcurve"/>
      <point x="25" y="333"/>
      <point x="65" y="446"/>
      <point x="102" y="483" type="qcurve"/>
      <point x="131" y="511"/>
      <point x="210" y="543"/>
      <point x="259" y="543" type="qcurve"/>
      <point x="310" y="543"/>
      <point x="381" y="515"/>
      <point x="404" y="489" type="qcurve"/>
      <point x="404" y="530" type="line"/>
      <point x="523" y="530" type="line"/>
      <point x="523" y="0" type="line"/>
      <point x="404" y="0" type="line"/>
      <point x="404" y="38" type="line"/>
      <point x="378" y="16"/>
      <point x="309" y="-13"/>
    </contour>
    <contour>
      <point x="261" y="9" type="qcurve"/>
      <point x="306" y="9"/>
      <point x="378" y="44"/>
      <point x="403" y="68" type="qcurve"/>
      <point x="410" y="75"/>
      <point x="423" y="91"/>
      <point x="427" y="98" type="qcurve"/>
      <point x="427" y="22" type="line"/>
      <point x="500" y="22" type="line"/>
      <point x="500" y="508" type="line"/>
      <point x="427" y="508" type="line"/>
      <point x="427" y="407" type="line"/>
      <point x="419" y="429"/>
      <point x="398" y="462"/>
      <point x="385" y="475" type="qcurve"/>
      <point x="361" y="499"/>
      <point x="298" y="521"/>
      <point x="260" y="521" type="qcurve"/>
      <point x="217" y="521"/>
      <point x="144" y="493"/>
      <point x="118" y="466" type="qcurve"/>
      <point x="85" y="433"/>
      <point x="49" y="329"/>
      <point x="49" y="262" type="qcurve"/>
      <point x="49" y="199"/>
      <point x="85" y="98"/>
      <point x="118" y="65" type="qcurve"/>
      <point x="145" y="38"/>
      <point x="218" y="9"/>
    </contour>
    <contour>
      <point x="276" y="66" type="qcurve"/>
      <point x="245" y="66"/>
      <point x="193" y="85"/>
      <point x="174" y="104" type="qcurve"/>
      <point x="150" y="128"/>
      <point x="125" y="207"/>
      <point x="125" y="261" type="qcurve"/>
      <point x="125" y="318"/>
      <point x="149" y="402"/>
      <point x="174" y="427" type="qcurve"/>
      <point x="193" y="446"/>
      <point x="243" y="464"/>
      <point x="276" y="464" type="qcurve"/>
      <point x="309" y="464"/>
      <point x="359" y="445"/>
      <point x="378" y="427" type="qcurve"/>
      <point x="403" y="402"/>
      <point x="428" y="320"/>
      <point x="428" y="265" type="qcurve"/>
      <point x="428" y="211"/>
      <point x="402" y="129"/>
      <point x="377" y="104" type="qcurve"/>
      <point x="358" y="85"/>
      <point x="307" y="66"/>
    </contour>
    <contour>
      <point x="276" y="88" type="qcurve"/>
      <point x="303" y="88"/>
      <point x="346" y="103"/>
      <point x="362" y="119" type="qcurve"/>
      <point x="383" y="141"/>
      <point x="405" y="214"/>
      <point x="405" y="265" type="qcurve"/>
      <point x="405" y="315"/>
      <point x="382" y="388"/>
      <point x="360" y="410" type="qcurve"/>
      <point x="344" y="426"/>
      <point x="302" y="442"/>
      <point x="276" y="442" type="qcurve"/>
      <point x="249" y="442"/>
      <point x="206" y="427"/>
      <point x="191" y="412" type="qcurve"/>
      <point x="169" y="390"/>
      <point x="148" y="314"/>
      <point x="148" y="261" type="qcurve"/>
      <point x="148" y="212"/>
      <point x="170" y="141"/>
      <point x="192" y="120" type="qcurve"/>
      <point x="208" y="104"/>
      <point x="250" y="88"/>
    </contour>
  </outline>
</glyph>
<glyph name="b" format="2">
  <advance width="584"/>
  <unicode hex="0062"/>
  <outline>
    <contour>
      <point x="317" y="-13" type="qcurve"/>
      <point x="271" y="-13"/>
      <point x="192" y="17"/>
      <point x="169" y="41" type="qcurve"/>
      <point x="169" y="0" type="line"/>
      <point x="50" y="0" type="line"/>
      <point x="50" y="711" type="line"/>
      <point x="169" y="711" type="line"/>
      <point x="169" y="490" type="line"/>
      <point x="194" y="515"/>
      <point x="272" y="543"/>
      <point x="315" y="543" type="qcurve"/>
      <point x="368" y="543"/>
      <point x="453" y="510"/>
      <point x="484" y="479" type="qcurve"/>
      <point x="520" y="443"/>
      <point x="559" y="334"/>
      <point x="559" y="265" type="qcurve"/>
      <point x="559" y="196"/>
      <point x="520" y="87"/>
      <point x="484" y="51" type="qcurve"/>
      <point x="453" y="20"/>
      <point x="368" y="-13"/>
    </contour>
    <contour>
      <point x="317" y="9" type="qcurve"/>
      <point x="364" y="9"/>
      <point x="440" y="38"/>
      <point x="467" y="66" type="qcurve"/>
      <point x="500" y="98"/>
      <point x="536" y="199"/>
      <point x="536" y="265" type="qcurve"/>
      <point x="536" y="328"/>
      <point x="500" y="429"/>
      <point x="467" y="462" type="qcurve"/>
      <point x="439" y="490"/>
      <point x="361" y="521"/>
      <point x="314" y="521" type="qcurve"/>
      <point x="262" y="521"/>
      <point x="195" y="485"/>
      <point x="174" y="464" type="qcurve"/>
      <point x="166" y="456"/>
      <point x="152" y="440"/>
      <point x="146" y="433" type="qcurve"/>
      <point x="146" y="689" type="line"/>
      <point x="73" y="689" type="line"/>
      <point x="73" y="22" type="line"/>
      <point x="146" y="22" type="line"/>
      <point x="146" y="104" type="line"/>
      <point x="153" y="94"/>
      <point x="168" y="75"/>
      <point x="176" y="67" type="qcurve"/>
      <point x="204" y="39"/>
      <point x="275" y="9"/>
    </contour>
    <contour>
      <point x="302" y="66" type="qcurve"/>
      <point x="269" y="66"/>
      <point x="215" y="86"/>
      <point x="196" y="105" type="qcurve"/>
      <point x="171" y="130"/>
      <point x="145" y="210"/>
      <point x="145" y="262" type="qcurve"/>
      <point x="145" y="316"/>
      <point x="172" y="399"/>
      <point x="197" y="425" type="qcurve"/>
      <point x="216" y="444"/>
      <point x="269" y="464"/>
      <point x="302" y="464" type="qcurve"/>
      <point x="336" y="465"/>
      <point x="390" y="444"/>
      <point x="409" y="425" type="qcurve"/>
      <point x="434" y="400"/>
      <point x="460" y="319"/>
      <point x="460" y="265" type="qcurve"/>
      <point x="460" y="211"/>
      <point x="435" y="130"/>
      <point x="410" y="105" type="qcurve"/>
      <point x="391" y="86"/>
      <point x="336" y="66"/>
    </contour>
    <contour>
      <point x="302" y="88" type="qcurve"/>
      <point x="330" y="88"/>
      <point x="376" y="105"/>
      <point x="392" y="121" type="qcurve"/>
      <point x="414" y="143"/>
      <point x="436" y="215"/>
      <point x="437" y="265" type="qcurve"/>
      <point x="437" y="313"/>
      <point x="413" y="386"/>
      <point x="391" y="408" type="qcurve"/>
      <point x="375" y="424"/>
      <point x="330" y="442"/>
      <point x="302" y="442" type="qcurve"/>
      <point x="274" y="442"/>
      <point x="229" y="425"/>
      <point x="213" y="408" type="qcurve"/>
      <point x="191" y="386"/>
      <point x="168" y="315"/>
      <point x="168" y="265" type="qcurve"/>
      <point x="168" y="216"/>
      <point x="192" y="144"/>
      <point x="214" y="122" type="qcurve"/>
      <point x="231" y="106"/>
      <point x="275" y="88"/>
    </contour>
  </outline>
</glyph>
<glyph name="c" format="2">
  <advance width="558"/>
  <unicode hex="0063"/>
  <outline>
    <contour>
      <point x="289" y="-13" type="qcurve"/>
      <point x="229" y="-13"/>
      <point x="132" y="23"/>
      <point x="98" y="57" type="qcurve"/>
      <point x="63" y="92"/>
      <point x="25" y="196"/>
      <point x="26" y="262" type="qcurve"/>
      <point x="26" y="329"/>
      <point x="64" y="437"/>
      <point x="101" y="474" type="qcurve"/>
      <point x="134" y="507"/>
      <point x="229" y="543"/>
      <point x="289" y="543" type="qcurve"/>
      <point x="346" y="543"/>
      <point x="437" y="510"/>
      <point x="468" y="479" type="qcurve"/>
      <point x="496" y="451"/>
      <point x="530" y="373"/>
      <point x="534" y="324" type="qcurve"/>
      <point x="410" y="324" type="line"/>
      <point x="407" y="353"/>
      <point x="389" y="397"/>
      <point x="375" y="411" type="qcurve"/>
      <point x="359" y="426"/>
      <point x="315" y="441"/>
      <point x="286" y="441" type="qcurve"/>
      <point x="257" y="441"/>
      <point x="210" y="423"/>
      <point x="193" y="406" type="qcurve"/>
      <point x="171" y="384"/>
      <point x="148" y="312"/>
      <point x="148" y="265" type="qcurve"/>
      <point x="148" y="218"/>
      <point x="172" y="146"/>
      <point x="194" y="124" type="qcurve"/>
      <point x="211" y="107"/>
      <point x="258" y="89"/>
      <point x="286" y="89" type="qcurve"/>
      <point x="315" y="89"/>
      <point x="360" y="103"/>
      <point x="376" y="119" type="qcurve"/>
      <point x="390" y="133"/>
      <point x="408" y="177"/>
      <point x="411" y="206" type="qcurve"/>
      <point x="534" y="206" type="line"/>
      <point x="529" y="157"/>
      <point x="496" y="79"/>
      <point x="468" y="52" type="qcurve"/>
      <point x="437" y="21"/>
      <point x="346" y="-13"/>
    </contour>
    <contour>
      <point x="284" y="9" type="qcurve"/>
      <point x="337" y="9"/>
      <point x="423" y="39"/>
      <point x="453" y="69" type="qcurve"/>
      <point x="474" y="90"/>
      <point x="502" y="147"/>
      <point x="508" y="184" type="qcurve"/>
      <point x="431" y="184" type="line"/>
      <point x="426" y="159"/>
      <point x="407" y="118"/>
      <point x="392" y="103" type="qcurve"/>
      <point x="374" y="85"/>
      <point x="321" y="67"/>
      <point x="286" y="67" type="qcurve"/>
      <point x="251" y="67"/>
      <point x="195" y="88"/>
      <point x="176" y="107" type="qcurve"/>
      <point x="151" y="132"/>
      <point x="125" y="212"/>
      <point x="125" y="265" type="qcurve"/>
      <point x="125" y="317"/>
      <point x="151" y="398"/>
      <point x="176" y="423" type="qcurve"/>
      <point x="195" y="442"/>
      <point x="251" y="463"/>
      <point x="286" y="463" type="qcurve"/>
      <point x="322" y="463"/>
      <point x="375" y="446"/>
      <point x="393" y="428" type="qcurve"/>
      <point x="407" y="414"/>
      <point x="426" y="373"/>
      <point x="430" y="346" type="qcurve"/>
      <point x="507" y="346" type="line"/>
      <point x="500" y="383"/>
      <point x="472" y="442"/>
      <point x="450" y="464" type="qcurve"/>
      <point x="422" y="492"/>
      <point x="339" y="521"/>
      <point x="284" y="521" type="qcurve"/>
      <point x="233" y="521"/>
      <point x="147" y="490"/>
      <point x="117" y="460" type="qcurve"/>
      <point x="84" y="427"/>
      <point x="49" y="328"/>
      <point x="49" y="265" type="qcurve"/>
      <point x="49" y="203"/>
      <point x="85" y="106"/>
      <point x="118" y="72" type="qcurve"/>
      <point x="148" y="41"/>
      <point x="233" y="9"/>
    </contour>
  </outline>
</glyph>
<glyph name="d" format="2">
  <advance width="584"/>
  <unicode hex="0064"/>
  <outline>
    <contour>
      <point x="266" y="-13" type="qcurve"/>
      <point x="215" y="-13"/>
      <point x="131" y="19"/>
      <point x="100" y="50" type="qcurve"/>
      <point x="64" y="86"/>
      <point x="25" y="196"/>
      <point x="25" y="265" type="qcurve"/>
      <point x="25" y="334"/>
      <point x="63" y="443"/>
      <point x="98" y="479" type="qcurve"/>
      <point x="129" y="510"/>
      <point x="217" y="543"/>
      <point x="270" y="543" type="qcurve"/>
      <point x="312" y="543"/>
      <point x="389" y="515"/>
      <point x="414" y="490" type="qcurve"/>
      <point x="414" y="711" type="line"/>
      <point x="534" y="711" type="line"/>
      <point x="534" y="0" type="line"/>
      <point x="414" y="0" type="line"/>
      <point x="414" y="41" type="line"/>
      <point x="388" y="16"/>
      <point x="313" y="-13"/>
    </contour>
    <contour>
      <point x="266" y="9" type="qcurve"/>
      <point x="310" y="9"/>
      <point x="376" y="35"/>
      <point x="402" y="62" type="qcurve"/>
      <point x="412" y="71"/>
      <point x="429" y="92"/>
      <point x="437" y="104" type="qcurve"/>
      <point x="437" y="22" type="line"/>
      <point x="511" y="22" type="line"/>
      <point x="511" y="689" type="line"/>
      <point x="437" y="689" type="line"/>
      <point x="437" y="433" type="line"/>
      <point x="431" y="440"/>
      <point x="418" y="456"/>
      <point x="409" y="465" type="qcurve"/>
      <point x="388" y="486"/>
      <point x="320" y="521"/>
      <point x="266" y="521" type="qcurve"/>
      <point x="220" y="520"/>
      <point x="146" y="491"/>
      <point x="118" y="463" type="qcurve"/>
      <point x="84" y="429"/>
      <point x="48" y="328"/>
      <point x="48" y="265" type="qcurve"/>
      <point x="48" y="200"/>
      <point x="84" y="99"/>
      <point x="117" y="66" type="qcurve"/>
      <point x="144" y="38"/>
      <point x="220" y="9"/>
    </contour>
    <contour>
      <point x="281" y="66" type="qcurve"/>
      <point x="247" y="66"/>
      <point x="192" y="86"/>
      <point x="173" y="105" type="qcurve"/>
      <point x="148" y="130"/>
      <point x="124" y="211"/>
      <point x="124" y="265" type="qcurve"/>
      <point x="124" y="319"/>
      <point x="149" y="399"/>
      <point x="174" y="424" type="qcurve"/>
      <point x="193" y="443"/>
      <point x="247" y="464"/>
      <point x="281" y="464" type="qcurve"/>
      <point x="314" y="464"/>
      <point x="368" y="443"/>
      <point x="387" y="424" type="qcurve"/>
      <point x="412" y="399"/>
      <point x="439" y="318"/>
      <point x="439" y="265" type="qcurve"/>
      <point x="439" y="211"/>
      <point x="412" y="131"/>
      <point x="387" y="106" type="qcurve"/>
      <point x="368" y="87"/>
      <point x="314" y="66"/>
    </contour>
    <contour>
      <point x="281" y="88" type="qcurve"/>
      <point x="308" y="88"/>
      <point x="353" y="106"/>
      <point x="370" y="122" type="qcurve"/>
      <point x="392" y="144"/>
      <point x="416" y="217"/>
      <point x="416" y="265" type="qcurve"/>
      <point x="416" y="314"/>
      <point x="393" y="386"/>
      <point x="371" y="408" type="qcurve"/>
      <point x="354" y="425"/>
      <point x="308" y="442"/>
      <point x="281" y="442" type="qcurve"/>
      <point x="253" y="442"/>
      <point x="208" y="425"/>
      <point x="192" y="409" type="qcurve"/>
      <point x="170" y="387"/>
      <point x="147" y="314"/>
      <point x="147" y="265" type="qcurve"/>
      <point x="147" y="215"/>
      <point x="168" y="143"/>
      <point x="190" y="121" type="qcurve"/>
      <point x="206" y="105"/>
      <point x="253" y="88"/>
    </contour>
  </outline>
</glyph>
<glyph name="f" format="2">
  <advance width="325"/>
  <unicode hex="0066"/>
  <outline>
    <contour>
      <point x="87" y="0" type="line"/>
      <point x="87" y="430" type="line"/>
      <point x="15" y="430" type="line"/>
      <point x="15" y="530" type="line"/>
      <point x="87" y="530" type="line"/>
      <point x="87" y="711" type="line"/>
      <point x="300" y="711" type="line"/>
      <point x="300" y="605" type="line"/>
      <point x="206" y="605" type="line"/>
      <point x="206" y="530" type="line"/>
      <point x="298" y="530" type="line"/>
      <point x="298" y="430" type="line"/>
      <point x="206" y="430" type="line"/>
      <point x="206" y="0" type="line"/>
    </contour>
    <contour>
      <point x="110" y="22" type="line"/>
      <point x="183" y="22" type="line"/>
      <point x="183" y="452" type="line"/>
      <point x="275" y="452" type="line"/>
      <point x="275" y="508" type="line"/>
      <point x="183" y="508" type="line"/>
      <point x="183" y="627" type="line"/>
      <point x="277" y="627" type="line"/>
      <point x="277" y="689" type="line"/>
      <point x="110" y="689" type="line"/>
      <point x="110" y="508" type="line"/>
      <point x="38" y="508" type="line"/>
      <point x="38" y="452" type="line"/>
      <point x="110" y="452" type="line"/>
    </contour>
  </outline>
</glyph>
<glyph name="g" format="2">
  <advance width="570"/>
  <unicode hex="0067"/>
  <outline>
    <contour>
      <point x="72" y="-171" type="line"/>
      <point x="72" y="-64" type="line"/>
      <point x="400" y="-64" type="line"/>
      <point x="400" y="50" type="line"/>
      <point x="375" y="30"/>
      <point x="311" y="8"/>
      <point x="266" y="8" type="qcurve"/>
      <point x="215" y="8"/>
      <point x="131" y="40"/>
      <point x="100" y="71" type="qcurve"/>
      <point x="65" y="106"/>
      <point x="27" y="210"/>
      <point x="27" y="276" type="qcurve"/>
      <point x="27" y="340"/>
      <point x="65" y="445"/>
      <point x="100" y="481" type="qcurve"/>
      <point x="130" y="510"/>
      <point x="211" y="543"/>
      <point x="260" y="543" type="qcurve"/>
      <point x="300" y="544"/>
      <point x="376" y="518"/>
      <point x="400" y="492" type="qcurve"/>
      <point x="400" y="530" type="line"/>
      <point x="519" y="530" type="line"/>
      <point x="519" y="-171" type="line"/>
    </contour>
    <contour>
      <point x="95" y="-149" type="line"/>
      <point x="496" y="-149" type="line"/>
      <point x="496" y="508" type="line"/>
      <point x="423" y="508" type="line"/>
      <point x="423" y="405" type="line"/>
      <point x="416" y="427"/>
      <point x="393" y="464"/>
      <point x="380" y="477" type="qcurve"/>
      <point x="358" y="499"/>
      <point x="297" y="521"/>
      <point x="260" y="521" type="qcurve"/>
      <point x="217" y="521"/>
      <point x="144" y="492"/>
      <point x="117" y="465" type="qcurve"/>
      <point x="86" y="434"/>
      <point x="50" y="337"/>
      <point x="50" y="276" type="qcurve"/>
      <point x="50" y="216"/>
      <point x="85" y="120"/>
      <point x="117" y="88" type="qcurve"/>
      <point x="145" y="60"/>
      <point x="221" y="30"/>
      <point x="267" y="30" type="qcurve"/>
      <point x="306" y="30"/>
      <point x="372" y="56"/>
      <point x="400" y="83" type="qcurve"/>
      <point x="406" y="89"/>
      <point x="418" y="103"/>
      <point x="423" y="110" type="qcurve"/>
      <point x="423" y="-86" type="line"/>
      <point x="95" y="-86" type="line"/>
    </contour>
    <contour>
      <point x="275" y="87" type="qcurve"/>
      <point x="244" y="87"/>
      <point x="193" y="106"/>
      <point x="175" y="125" type="qcurve"/>
      <point x="150" y="149"/>
      <point x="126" y="225"/>
      <point x="126" y="276" type="qcurve"/>
      <point x="126" y="327"/>
      <point x="151" y="403"/>
      <point x="175" y="426" type="qcurve"/>
      <point x="193" y="445"/>
      <point x="244" y="464"/>
      <point x="275" y="464" type="qcurve"/>
      <point x="307" y="465"/>
      <point x="357" y="446"/>
      <point x="376" y="427" type="qcurve"/>
      <point x="399" y="403"/>
      <point x="424" y="327"/>
      <point x="424" y="276" type="qcurve"/>
      <point x="424" y="225"/>
      <point x="399" y="149"/>
      <point x="376" y="125" type="qcurve"/>
      <point x="357" y="107"/>
      <point x="306" y="87"/>
    </contour>
    <contour>
      <point x="275" y="109" type="qcurve"/>
      <point x="301" y="109"/>
      <point x="343" y="125"/>
      <point x="359" y="141" type="qcurve"/>
      <point x="379" y="161"/>
      <point x="401" y="230"/>
      <point x="401" y="276" type="qcurve"/>
      <point x="401" y="322"/>
      <point x="379" y="390"/>
      <point x="359" y="411" type="qcurve"/>
      <point x="343" y="426"/>
      <point x="300" y="442"/>
      <point x="275" y="442" type="qcurve"/>
      <point x="249" y="442"/>
      <point x="207" y="426"/>
      <point x="191" y="410" type="qcurve"/>
      <point x="170" y="390"/>
      <point x="149" y="322"/>
      <point x="149" y="276" type="qcurve"/>
      <point x="149" y="231"/>
      <point x="172" y="162"/>
      <point x="192" y="141" type="qcurve"/>
      <point x="208" y="125"/>
      <point x="250" y="109"/>
    </contour>
  </outline>
</glyph>
<glyph name="h" format="2">
  <advance width="528"/>
  <unicode hex="0068"/>
  <outline>
    <contour>
      <point x="40" y="0" type="line"/>
      <point x="40" y="711" type="line"/>
      <point x="154" y="711" type="line"/>
      <point x="154" y="485" type="line"/>
      <point x="181" y="515"/>
      <point x="261" y="544"/>
      <point x="302" y="544" type="qcurve"/>
      <point x="348" y="544"/>
      <point x="420" y="521"/>
      <point x="443" y="498" type="qcurve"/>
      <point x="466" y="475"/>
      <point x="490" y="404"/>
      <point x="490" y="357" type="qcurve"/>
      <point x="490" y="0" type="line"/>
      <point x="371" y="0" type="line"/>
      <point x="371" y="354" type="line"/>
      <point x="371" y="376"/>
      <point x="360" y="409"/>
      <point x="350" y="420" type="qcurve"/>
      <point x="339" y="430"/>
      <point x="308" y="441"/>
      <point x="287" y="441" type="qcurve"/>
      <point x="258" y="441"/>
      <point x="212" y="424"/>
      <point x="196" y="408" type="qcurve"/>
      <point x="177" y="390"/>
      <point x="159" y="335"/>
      <point x="159" y="300" type="qcurve"/>
      <point x="159" y="0" type="line"/>
    </contour>
    <contour>
      <point x="63" y="22" type="line"/>
      <point x="136" y="22" type="line"/>
      <point x="136" y="300" type="line"/>
      <point x="136" y="339"/>
      <point x="157" y="402"/>
      <point x="179" y="424" type="qcurve"/>
      <point x="198" y="443"/>
      <point x="253" y="463"/>
      <point x="287" y="463" type="qcurve"/>
      <point x="313" y="463"/>
      <point x="354" y="449"/>
      <point x="367" y="436" type="qcurve"/>
      <point x="380" y="423"/>
      <point x="394" y="382"/>
      <point x="394" y="354" type="qcurve"/>
      <point x="394" y="22" type="line"/>
      <point x="467" y="22" type="line"/>
      <point x="467" y="357" type="line"/>
      <point x="467" y="399"/>
      <point x="447" y="462"/>
      <point x="426" y="482" type="qcurve"/>
      <point x="406" y="502"/>
      <point x="344" y="522"/>
      <point x="304" y="522" type="qcurve"/>
      <point x="260" y="522"/>
      <point x="191" y="491"/>
      <point x="165" y="465" type="qcurve"/>
      <point x="155" y="455"/>
      <point x="138" y="433"/>
      <point x="130" y="421" type="qcurve"/>
      <point x="131" y="689" type="line"/>
      <point x="63" y="689" type="line"/>
    </contour>
  </outline>
</glyph>
<glyph name="i" format="2">
  <advance width="218"/>
  <unicode hex="0069"/>
  <outline>
    <contour>
      <point x="45" y="608" type="line"/>
      <point x="45" y="736" type="line"/>
      <point x="173" y="736" type="line"/>
      <point x="173" y="608" type="line"/>
    </contour>
    <contour>
      <point x="68" y="630" type="line"/>
      <point x="150" y="630" type="line"/>
      <point x="150" y="714" type="line"/>
      <point x="68" y="714" type="line"/>
    </contour>
    <contour>
      <point x="50" y="0" type="line"/>
      <point x="50" y="530" type="line"/>
      <point x="169" y="530" type="line"/>
      <point x="169" y="0" type="line"/>
    </contour>
    <contour>
      <point x="73" y="22" type="line"/>
      <point x="146" y="22" type="line"/>
      <point x="146" y="508" type="line"/>
      <point x="73" y="508" type="line"/>
    </contour>
  </outline>
</glyph>
<glyph name="j" format="2">
  <advance width="220"/>
  <unicode hex="006A"/>
  <outline>
    <contour>
      <point x="57" y="608" type="line"/>
      <point x="57" y="736" type="line"/>
      <point x="185" y="736" type="line"/>
      <point x="185" y="608" type="line"/>
    </contour>
    <contour>
      <point x="80" y="630" type="line"/>
      <point x="162" y="630" type="line"/>
      <point x="162" y="714" type="line"/>
      <point x="80" y="714" type="line"/>
    </contour>
    <contour>
      <point x="-40" y="-171" type="line"/>
      <point x="-40" y="-63" type="line"/>
      <point x="62" y="-63" type="line"/>
      <point x="62" y="530" type="line"/>
      <point x="181" y="530" type="line"/>
      <point x="181" y="-171" type="line"/>
    </contour>
    <contour>
      <point x="-17" y="-149" type="line"/>
      <point x="158" y="-149" type="line"/>
      <point x="158" y="508" type="line"/>
      <point x="85" y="508" type="line"/>
      <point x="85" y="-85" type="line"/>
      <point x="-17" y="-85" type="line"/>
    </contour>
  </outline>
</glyph>
<glyph name="k" format="2">
  <advance width="520"/>
  <unicode hex="006B"/>
  <outline>
    <contour>
      <point x="50" y="0" type="line"/>
      <point x="50" y="711" type="line"/>
      <point x="169" y="711" type="line"/>
      <point x="169" y="349" type="line"/>
      <point x="364" y="530" type="line"/>
      <point x="520" y="530" type="line"/>
      <point x="327" y="348" type="line"/>
      <point x="512" y="0" type="line"/>
      <point x="382" y="0" type="line"/>
      <point x="236" y="274" type="line"/>
      <point x="169" y="213" type="line"/>
      <point x="169" y="0" type="line"/>
    </contour>
    <contour>
      <point x="73" y="22" type="line"/>
      <point x="146" y="22" type="line"/>
      <point x="146" y="222" type="line"/>
      <point x="242" y="310" type="line"/>
      <point x="396" y="22" type="line"/>
      <point x="474" y="22" type="line"/>
      <point x="299" y="352" type="line"/>
      <point x="464" y="508" type="line"/>
      <point x="373" y="508" type="line"/>
      <point x="146" y="297" type="line"/>
      <point x="146" y="689" type="line"/>
      <point x="73" y="689" type="line"/>
    </contour>
  </outline>
</glyph>
<glyph name="l" format="2">
  <advance width="296"/>
  <unicode hex="006C"/>
  <outline>
    <contour>
      <point x="50" y="0" type="line"/>
      <point x="50" y="711" type="line"/>
      <point x="169" y="711" type="line"/>
      <point x="169" y="108" type="line"/>
      <point x="271" y="108" type="line"/>
      <point x="271" y="0" type="line"/>
    </contour>
    <contour>
      <point x="73" y="22" type="line"/>
      <point x="248" y="22" type="line"/>
      <point x="248" y="86" type="line"/>
      <point x="146" y="86" type="line"/>
      <point x="146" y="689" type="line"/>
      <point x="73" y="689" type="line"/>
    </contour>
  </outline>
</glyph>
<glyph name="m" format="2">
  <advance width="827"/>
  <unicode hex="006D"/>
  <outline>
    <contour>
      <point x="50" y="0" type="line"/>
      <point x="50" y="530" type="line"/>
      <point x="163" y="530" type="line"/>
      <point x="163" y="485" type="line"/>
      <point x="193" y="517"/>
      <point x="266" y="544"/>
      <point x="307" y="544" type="qcurve"/>
      <point x="347" y="543"/>
      <point x="409" y="524"/>
      <point x="430" y="503" type="qcurve"/>
      <point x="437" y="496"/>
      <point x="449" y="480"/>
      <point x="453" y="471" type="qcurve"/>
      <point x="457" y="476"/>
      <point x="467" y="488"/>
      <point x="472" y="492" type="qcurve"/>
      <point x="499" y="520"/>
      <point x="566" y="544"/>
      <point x="611" y="544" type="qcurve"/>
      <point x="654" y="544"/>
      <point x="715" y="524"/>
      <point x="736" y="503" type="qcurve"/>
      <point x="757" y="482"/>
      <point x="777" y="417"/>
      <point x="777" y="372" type="qcurve"/>
      <point x="777" y="0" type="line"/>
      <point x="658" y="0" type="line"/>
      <point x="658" y="367" type="line"/>
      <point x="659" y="386"/>
      <point x="650" y="415"/>
      <point x="641" y="424" type="qcurve"/>
      <point x="632" y="433"/>
      <point x="606" y="441"/>
      <point x="588" y="441" type="qcurve"/>
      <point x="563" y="441"/>
      <point x="522" y="425"/>
      <point x="507" y="410" type="qcurve"/>
      <point x="491" y="394"/>
      <point x="473" y="346"/>
      <point x="473" y="317" type="qcurve"/>
      <point x="473" y="0" type="line"/>
      <point x="354" y="0" type="line"/>
      <point x="354" y="367" type="line"/>
      <point x="354" y="386"/>
      <point x="346" y="415"/>
      <point x="337" y="424" type="qcurve"/>
      <point x="328" y="433"/>
      <point x="302" y="441"/>
      <point x="284" y="441" type="qcurve"/>
      <point x="258" y="441"/>
      <point x="217" y="425"/>
      <point x="203" y="412" type="qcurve"/>
      <point x="186" y="395"/>
      <point x="169" y="343"/>
      <point x="169" y="310" type="qcurve"/>
      <point x="169" y="0" type="line"/>
    </contour>
    <contour>
      <point x="73" y="22" type="line"/>
      <point x="146" y="22" type="line"/>
      <point x="146" y="310" type="line"/>
      <point x="147" y="346"/>
      <point x="168" y="406"/>
      <point x="188" y="426" type="qcurve"/>
      <point x="205" y="443"/>
      <point x="254" y="463"/>
      <point x="284" y="463" type="qcurve"/>
      <point x="308" y="463"/>
      <point x="343" y="452"/>
      <point x="354" y="441" type="qcurve"/>
      <point x="366" y="428"/>
      <point x="377" y="390"/>
      <point x="377" y="363" type="qcurve"/>
      <point x="377" y="22" type="line"/>
      <point x="450" y="22" type="line"/>
      <point x="450" y="315" type="line"/>
      <point x="450" y="349"/>
      <point x="472" y="406"/>
      <point x="491" y="425" type="qcurve"/>
      <point x="509" y="443"/>
      <point x="558" y="463"/>
      <point x="588" y="463" type="qcurve"/>
      <point x="612" y="463"/>
      <point x="647" y="452"/>
      <point x="658" y="441" type="qcurve"/>
      <point x="670" y="428"/>
      <point x="681" y="390"/>
      <point x="681" y="363" type="qcurve"/>
      <point x="681" y="22" type="line"/>
      <point x="754" y="22" type="line"/>
      <point x="754" y="367" type="line"/>
      <point x="754" y="408"/>
      <point x="736" y="469"/>
      <point x="717" y="488" type="qcurve"/>
      <point x="700" y="505"/>
      <point x="647" y="522"/>
      <point x="610" y="522" type="qcurve"/>
      <point x="573" y="522"/>
      <point x="517" y="502"/>
      <point x="494" y="480" type="qcurve"/>
      <point x="483" y="468"/>
      <point x="460" y="437"/>
      <point x="449" y="418" type="qcurve"/>
      <point x="442" y="440"/>
      <point x="424" y="475"/>
      <point x="412" y="488" type="qcurve"/>
      <point x="393" y="506"/>
      <point x="341" y="522"/>
      <point x="306" y="522" type="qcurve"/>
      <point x="266" y="521"/>
      <point x="207" y="498"/>
      <point x="181" y="472" type="qcurve"/>
      <point x="171" y="462"/>
      <point x="151" y="437"/>
      <point x="141" y="422" type="qcurve"/>
      <point x="141" y="508" type="line"/>
      <point x="73" y="508" type="line"/>
    </contour>
  </outline>
</glyph>
<glyph name="n" format="2">
  <advance width="550"/>
  <unicode hex="006E"/>
  <outline>
    <contour>
      <point x="50" y="0" type="line"/>
      <point x="50" y="530" type="line"/>
      <point x="164" y="530" type="line"/>
      <point x="163" y="479" type="line"/>
      <point x="190" y="508"/>
      <point x="263" y="544"/>
      <point x="317" y="544" type="qcurve"/>
      <point x="364" y="544"/>
      <point x="432" y="521"/>
      <point x="454" y="499" type="qcurve"/>
      <point x="477" y="477"/>
      <point x="500" y="406"/>
      <point x="500" y="357" type="qcurve"/>
      <point x="500" y="0" type="line"/>
      <point x="381" y="0" type="line"/>
      <point x="381" y="357" type="line"/>
      <point x="381" y="379"/>
      <point x="372" y="411"/>
      <point x="362" y="421" type="qcurve"/>
      <point x="352" y="431"/>
      <point x="319" y="441"/>
      <point x="297" y="441" type="qcurve"/>
      <point x="269" y="441"/>
      <point x="222" y="424"/>
      <point x="206" y="408" type="qcurve"/>
      <point x="188" y="390"/>
      <point x="169" y="335"/>
      <point x="169" y="300" type="qcurve"/>
      <point x="169" y="0" type="line"/>
    </contour>
    <contour>
      <point x="73" y="22" type="line"/>
      <point x="146" y="22" type="line"/>
      <point x="146" y="300" type="line"/>
      <point x="146" y="340"/>
      <point x="169" y="402"/>
      <point x="189" y="423" type="qcurve"/>
      <point x="208" y="442"/>
      <point x="263" y="462"/>
      <point x="297" y="463" type="qcurve"/>
      <point x="325" y="462"/>
      <point x="367" y="451"/>
      <point x="380" y="438" type="qcurve"/>
      <point x="392" y="425"/>
      <point x="404" y="385"/>
      <point x="404" y="357" type="qcurve"/>
      <point x="404" y="22" type="line"/>
      <point x="477" y="22" type="line"/>
      <point x="477" y="357" type="line"/>
      <point x="477" y="398"/>
      <point x="456" y="462"/>
      <point x="436" y="482" type="qcurve"/>
      <point x="416" y="502"/>
      <point x="357" y="522"/>
      <point x="319" y="522" type="qcurve"/>
      <point x="271" y="523"/>
      <point x="206" y="491"/>
      <point x="184" y="469" type="qcurve"/>
      <point x="171" y="456"/>
      <point x="151" y="428"/>
      <point x="141" y="415" type="qcurve"/>
      <point x="141" y="508" type="line"/>
      <point x="73" y="508" type="line"/>
    </contour>
  </outline>
</glyph>
<glyph name="o" format="2">
  <advance width="567"/>
  <unicode hex="006F"/>
  <outline>
    <contour>
      <point x="283" y="-13" type="qcurve"/>
      <point x="225" y="-13"/>
      <point x="131" y="22"/>
      <point x="98" y="55" type="qcurve"/>
      <point x="63" y="90"/>
      <point x="25" y="196"/>
      <point x="25" y="262" type="qcurve"/>
      <point x="25" y="329"/>
      <point x="64" y="438"/>
      <point x="101" y="475" type="qcurve"/>
      <point x="133" y="507"/>
      <point x="226" y="543"/>
      <point x="283" y="543" type="qcurve"/>
      <point x="341" y="543"/>
      <point x="436" y="508"/>
      <point x="468" y="475" type="qcurve"/>
      <point x="504" y="439"/>
      <point x="542" y="333"/>
      <point x="542" y="265" type="qcurve"/>
      <point x="542" y="199"/>
      <point x="504" y="92"/>
      <point x="468" y="55" type="qcurve"/>
      <point x="434" y="22"/>
      <point x="341" y="-13"/>
    </contour>
    <contour>
      <point x="283" y="9" type="qcurve"/>
      <point x="334" y="10"/>
      <point x="419" y="41"/>
      <point x="450" y="72" type="qcurve"/>
      <point x="483" y="104"/>
      <point x="518" y="202"/>
      <point x="519" y="265" type="qcurve"/>
      <point x="519" y="326"/>
      <point x="482" y="424"/>
      <point x="449" y="458" type="qcurve"/>
      <point x="418" y="488"/>
      <point x="334" y="521"/>
      <point x="283" y="521" type="qcurve"/>
      <point x="232" y="521"/>
      <point x="147" y="490"/>
      <point x="116" y="459" type="qcurve"/>
      <point x="83" y="427"/>
      <point x="48" y="328"/>
      <point x="48" y="265" type="qcurve"/>
      <point x="48" y="204"/>
      <point x="83" y="106"/>
      <point x="117" y="72" type="qcurve"/>
      <point x="147" y="42"/>
      <point x="232" y="10"/>
    </contour>
    <contour>
      <point x="283" y="67" type="qcurve"/>
      <point x="248" y="68"/>
      <point x="193" y="88"/>
      <point x="174" y="108" type="qcurve"/>
      <point x="149" y="132"/>
      <point x="124" y="210"/>
      <point x="124" y="262" type="qcurve"/>
      <point x="124" y="316"/>
      <point x="150" y="398"/>
      <point x="175" y="423" type="qcurve"/>
      <point x="195" y="442"/>
      <point x="249" y="463"/>
      <point x="283" y="463" type="qcurve"/>
      <point x="317" y="463"/>
      <point x="374" y="442"/>
      <point x="393" y="423" type="qcurve"/>
      <point x="418" y="398"/>
      <point x="443" y="319"/>
      <point x="443" y="265" type="qcurve"/>
      <point x="443" y="213"/>
      <point x="416" y="133"/>
      <point x="391" y="108" type="qcurve"/>
      <point x="372" y="88"/>
      <point x="317" y="67"/>
    </contour>
    <contour>
      <point x="283" y="89" type="qcurve"/>
      <point x="311" y="89"/>
      <point x="358" y="107"/>
      <point x="374" y="123" type="qcurve"/>
      <point x="396" y="145"/>
      <point x="419" y="216"/>
      <point x="420" y="265" type="qcurve"/>
      <point x="420" y="312"/>
      <point x="396" y="385"/>
      <point x="374" y="407" type="qcurve"/>
      <point x="357" y="423"/>
      <point x="311" y="441"/>
      <point x="283" y="441" type="qcurve"/>
      <point x="255" y="441"/>
      <point x="208" y="424"/>
      <point x="191" y="407" type="qcurve"/>
      <point x="169" y="385"/>
      <point x="147" y="314"/>
      <point x="147" y="265" type="qcurve"/>
      <point x="147" y="217"/>
      <point x="170" y="145"/>
      <point x="192" y="123" type="qcurve"/>
      <point x="209" y="107"/>
      <point x="255" y="89"/>
    </contour>
  </outline>
</glyph>
<glyph name="q" format="2">
  <advance width="569"/>
  <unicode hex="0071"/>
  <outline>
    <contour>
      <point x="400" y="-171" type="line"/>
      <point x="400" y="39" type="line"/>
      <point x="377" y="17"/>
      <point x="301" y="-13"/>
      <point x="251" y="-13" type="qcurve"/>
      <point x="200" y="-12"/>
      <point x="117" y="20"/>
      <point x="86" y="51" type="qcurve"/>
      <point x="49" y="88"/>
      <point x="10" y="199"/>
      <point x="10" y="268" type="qcurve"/>
      <point x="10" y="335"/>
      <point x="49" y="443"/>
      <point x="85" y="479" type="qcurve"/>
      <point x="116" y="510"/>
      <point x="199" y="543"/>
      <point x="250" y="543" type="qcurve"/>
      <point x="299" y="543"/>
      <point x="374" y="509"/>
      <point x="399" y="485" type="qcurve"/>
      <point x="400" y="530" type="line"/>
      <point x="519" y="530" type="line"/>
      <point x="519" y="-171" type="line"/>
    </contour>
    <contour>
      <point x="423" y="-149" type="line"/>
      <point x="496" y="-149" type="line"/>
      <point x="496" y="508" type="line"/>
      <point x="423" y="508" type="line"/>
      <point x="422" y="423" type="line"/>
      <point x="417" y="433"/>
      <point x="402" y="452"/>
      <point x="392" y="461" type="qcurve"/>
      <point x="369" y="485"/>
      <point x="296" y="521"/>
      <point x="250" y="521" type="qcurve"/>
      <point x="205" y="521"/>
      <point x="131" y="491"/>
      <point x="103" y="463" type="qcurve"/>
      <point x="69" y="430"/>
      <point x="33" y="328"/>
      <point x="33" y="265" type="qcurve"/>
      <point x="33" y="199"/>
      <point x="69" y="99"/>
      <point x="102" y="66" type="qcurve"/>
      <point x="130" y="38"/>
      <point x="205" y="9"/>
      <point x="251" y="9" type="qcurve"/>
      <point x="252" y="9" type="line"/>
      <point x="301" y="10"/>
      <point x="367" y="37"/>
      <point x="392" y="62" type="qcurve"/>
      <point x="399" y="70"/>
      <point x="415" y="89"/>
      <point x="422" y="100" type="qcurve"/>
    </contour>
    <contour>
      <point x="266" y="66" type="qcurve"/>
      <point x="233" y="66"/>
      <point x="179" y="87"/>
      <point x="160" y="106" type="qcurve"/>
      <point x="135" y="131"/>
      <point x="109" y="211"/>
      <point x="109" y="265" type="qcurve"/>
      <point x="109" y="319"/>
      <point x="134" y="400"/>
      <point x="159" y="425" type="qcurve"/>
      <point x="178" y="444"/>
      <point x="232" y="464"/>
      <point x="266" y="464" type="qcurve"/>
      <point x="299" y="464"/>
      <point x="353" y="444"/>
      <point x="373" y="425" type="qcurve"/>
      <point x="398" y="400"/>
      <point x="424" y="319"/>
      <point x="424" y="265" type="qcurve"/>
      <point x="423" y="211"/>
      <point x="398" y="131"/>
      <point x="373" y="106" type="qcurve"/>
      <point x="354" y="87"/>
      <point x="300" y="66"/>
    </contour>
    <contour>
      <point x="266" y="88" type="qcurve"/>
      <point x="294" y="88"/>
      <point x="340" y="106"/>
      <point x="356" y="122" type="qcurve"/>
      <point x="378" y="144"/>
      <point x="401" y="215"/>
      <point x="401" y="262" type="qcurve"/>
      <point x="401" y="311"/>
      <point x="377" y="386"/>
      <point x="355" y="408" type="qcurve"/>
      <point x="339" y="424"/>
      <point x="294" y="442"/>
      <point x="266" y="442" type="qcurve"/>
      <point x="238" y="442"/>
      <point x="194" y="424"/>
      <point x="178" y="408" type="qcurve"/>
      <point x="156" y="386"/>
      <point x="132" y="314"/>
      <point x="132" y="265" type="qcurve"/>
      <point x="132" y="216"/>
      <point x="155" y="144"/>
      <point x="177" y="122" type="qcurve"/>
      <point x="193" y="106"/>
      <point x="238" y="88"/>
    </contour>
  </outline>
</glyph>
<glyph name="r" format="2">
  <advance width="364"/>
  <unicode hex="0072"/>
  <outline>
    <contour>
      <point x="50" y="0" type="line"/>
      <point x="50" y="530" type="line"/>
      <point x="352" y="530" type="line"/>
      <point x="352" y="430" type="line"/>
      <point x="169" y="430" type="line"/>
      <point x="169" y="0" type="line"/>
    </contour>
    <contour>
      <point x="73" y="22" type="line"/>
      <point x="146" y="22" type="line"/>
      <point x="146" y="452" type="line"/>
      <point x="329" y="452" type="line"/>
      <point x="329" y="508" type="line"/>
      <point x="73" y="508" type="line"/>
    </contour>
  </outline>
</glyph>
<glyph name="s" format="2">
  <advance width="506"/>
  <unicode hex="0073"/>
  <outline>
    <contour>
      <point x="255" y="-13" type="qcurve"/>
      <point x="192" y="-13"/>
      <point x="101" y="14"/>
      <point x="73" y="42" type="qcurve"/>
      <point x="49" y="66"/>
      <point x="23" y="137"/>
      <point x="20" y="183" type="qcurve"/>
      <point x="140" y="183" type="line"/>
      <point x="141" y="161"/>
      <point x="154" y="128"/>
      <point x="166" y="116" type="qcurve"/>
      <point x="180" y="102"/>
      <point x="226" y="88"/>
      <point x="259" y="88" type="qcurve"/>
      <point x="290" y="88"/>
      <point x="333" y="98"/>
      <point x="344" y="109" type="qcurve"/>
      <point x="351" y="116"/>
      <point x="358" y="133"/>
      <point x="358" y="145" type="qcurve"/>
      <point x="358" y="158"/>
      <point x="350" y="178"/>
      <point x="343" y="185" type="qcurve"/>
      <point x="334" y="194"/>
      <point x="302" y="208"/>
      <point x="279" y="212" type="qcurve"/>
      <point x="212" y="224" type="line"/>
      <point x="173" y="232"/>
      <point x="112" y="262"/>
      <point x="92" y="282" type="qcurve"/>
      <point x="71" y="302"/>
      <point x="50" y="355"/>
      <point x="50" y="387" type="qcurve"/>
      <point x="49" y="420"/>
      <point x="69" y="473"/>
      <point x="88" y="492" type="qcurve"/>
      <point x="113" y="517"/>
      <point x="197" y="543"/>
      <point x="257" y="543" type="qcurve"/>
      <point x="312" y="543"/>
      <point x="396" y="514"/>
      <point x="421" y="489" type="qcurve"/>
      <point x="444" y="467"/>
      <point x="467" y="404"/>
      <point x="468" y="365" type="qcurve"/>
      <point x="349" y="365" type="line"/>
      <point x="348" y="384"/>
      <point x="341" y="412"/>
      <point x="331" y="422" type="qcurve"/>
      <point x="319" y="433"/>
      <point x="279" y="444"/>
      <point x="249" y="444" type="qcurve"/>
      <point x="226" y="444"/>
      <point x="189" y="433"/>
      <point x="179" y="423" type="qcurve"/>
      <point x="173" y="417"/>
      <point x="167" y="402"/>
      <point x="167" y="393" type="qcurve"/>
      <point x="167" y="381"/>
      <point x="175" y="361"/>
      <point x="182" y="354" type="qcurve"/>
      <point x="191" y="344"/>
      <point x="222" y="331"/>
      <point x="244" y="327" type="qcurve"/>
      <point x="311" y="313" type="line"/>
      <point x="355" y="304"/>
      <point x="418" y="277"/>
      <point x="438" y="257" type="qcurve"/>
      <point x="457" y="238"/>
      <point x="476" y="184"/>
      <point x="476" y="150" type="qcurve"/>
      <point x="476" y="117"/>
      <point x="455" y="64"/>
      <point x="435" y="44" type="qcurve"/>
      <point x="407" y="16"/>
      <point x="317" y="-13"/>
    </contour>
    <contour>
      <point x="255" y="9" type="qcurve"/>
      <point x="308" y="8"/>
      <point x="393" y="34"/>
      <point x="418" y="59" type="qcurve"/>
      <point x="435" y="76"/>
      <point x="453" y="122"/>
      <point x="453" y="150" type="qcurve"/>
      <point x="453" y="179"/>
      <point x="437" y="225"/>
      <point x="421" y="242" type="qcurve"/>
      <point x="404" y="259"/>
      <point x="347" y="284"/>
      <point x="307" y="292" type="qcurve"/>
      <point x="240" y="305" type="line"/>
      <point x="214" y="310"/>
      <point x="177" y="327"/>
      <point x="165" y="339" type="qcurve"/>
      <point x="155" y="349"/>
      <point x="144" y="376"/>
      <point x="144" y="392" type="qcurve"/>
      <point x="145" y="407"/>
      <point x="153" y="430"/>
      <point x="162" y="439" type="qcurve"/>
      <point x="175" y="452"/>
      <point x="220" y="466"/>
      <point x="251" y="466" type="qcurve"/>
      <point x="286" y="466"/>
      <point x="334" y="452"/>
      <point x="348" y="438" type="qcurve"/>
      <point x="358" y="429"/>
      <point x="369" y="403"/>
      <point x="371" y="387" type="qcurve"/>
      <point x="444" y="387" type="line"/>
      <point x="441" y="413"/>
      <point x="421" y="456"/>
      <point x="405" y="472" type="qcurve"/>
      <point x="381" y="496"/>
      <point x="303" y="521"/>
      <point x="250" y="521" type="qcurve"/>
      <point x="201" y="521"/>
      <point x="127" y="499"/>
      <point x="105" y="477" type="qcurve"/>
      <point x="89" y="461"/>
      <point x="73" y="417"/>
      <point x="73" y="389" type="qcurve"/>
      <point x="73" y="361"/>
      <point x="91" y="314"/>
      <point x="108" y="297" type="qcurve"/>
      <point x="126" y="279"/>
      <point x="180" y="253"/>
      <point x="216" y="246" type="qcurve"/>
      <point x="283" y="234" type="line"/>
      <point x="310" y="230"/>
      <point x="349" y="213"/>
      <point x="361" y="201" type="qcurve"/>
      <point x="371" y="191"/>
      <point x="381" y="164"/>
      <point x="381" y="145" type="qcurve"/>
      <point x="381" y="129"/>
      <point x="372" y="105"/>
      <point x="362" y="95" type="qcurve"/>
      <point x="347" y="81"/>
      <point x="295" y="66"/>
      <point x="259" y="66" type="qcurve"/>
      <point x="219" y="66"/>
      <point x="164" y="81"/>
      <point x="148" y="98" type="qcurve"/>
      <point x="137" y="109"/>
      <point x="123" y="141"/>
      <point x="119" y="161" type="qcurve"/>
      <point x="47" y="161" type="line"/>
      <point x="51" y="128"/>
      <point x="74" y="78"/>
      <point x="92" y="59" type="qcurve"/>
      <point x="117" y="34"/>
      <point x="198" y="8"/>
    </contour>
  </outline>
</glyph>
<glyph name="t" format="2">
  <advance width="382"/>
  <unicode hex="0074"/>
  <outline>
    <contour>
      <point x="103" y="0" type="line"/>
      <point x="103" y="430" type="line"/>
      <point x="20" y="430" type="line"/>
      <point x="20" y="530" type="line"/>
      <point x="103" y="530" type="line"/>
      <point x="103" y="711" type="line"/>
      <point x="222" y="711" type="line"/>
      <point x="222" y="530" type="line"/>
      <point x="325" y="530" type="line"/>
      <point x="325" y="430" type="line"/>
      <point x="222" y="430" type="line"/>
      <point x="222" y="103" type="line"/>
      <point x="332" y="103" type="line"/>
      <point x="332" y="0" type="line"/>
    </contour>
    <contour>
      <point x="126" y="22" type="line"/>
      <point x="309" y="22" type="line"/>
      <point x="309" y="81" type="line"/>
      <point x="199" y="81" type="line"/>
      <point x="199" y="452" type="line"/>
      <point x="302" y="452" type="line"/>
      <point x="302" y="508" type="line"/>
      <point x="199" y="508" type="line"/>
      <point x="199" y="689" type="line"/>
      <point x="126" y="689" type="line"/>
      <point x="126" y="508" type="line"/>
      <point x="43" y="508" type="line"/>
      <point x="43" y="452" type="line"/>
      <point x="126" y="452" type="line"/>
    </contour>
  </outline>
</glyph>
<glyph name="v" format="2">
  <advance width="549"/>
  <unicode hex="0076"/>
  <outline>
    <contour>
      <point x="197" y="0" type="line"/>
      <point x="10" y="530" type="line"/>
      <point x="142" y="530" type="line"/>
      <point x="277" y="114" type="line"/>
      <point x="411" y="530" type="line"/>
      <point x="539" y="530" type="line"/>
      <point x="354" y="0" type="line"/>
    </contour>
    <contour>
      <point x="214" y="22" type="line"/>
      <point x="337" y="22" type="line"/>
      <point x="507" y="508" type="line"/>
      <point x="428" y="508" type="line"/>
      <point x="289" y="78" type="line"/>
      <point x="265" y="78" type="line"/>
      <point x="125" y="508" type="line"/>
      <point x="42" y="508" type="line"/>
    </contour>
  </outline>
</glyph>
<glyph name="w" format="2">
  <advance width="770"/>
  <unicode hex="0077"/>
  <outline>
    <contour>
      <point x="149" y="0" type="line"/>
      <point x="10" y="530" type="line"/>
      <point x="138" y="530" type="line"/>
      <point x="228" y="133" type="line"/>
      <point x="305" y="530" type="line"/>
      <point x="466" y="530" type="line"/>
      <point x="545" y="132" type="line"/>
      <point x="638" y="530" type="line"/>
      <point x="760" y="530" type="line"/>
      <point x="622" y="0" type="line"/>
      <point x="461" y="0" type="line"/>
      <point x="385" y="393" type="line"/>
      <point x="310" y="0" type="line"/>
    </contour>
    <contour>
      <point x="167" y="22" type="line"/>
      <point x="291" y="22" type="line"/>
      <point x="372" y="452" type="line"/>
      <point x="397" y="452" type="line"/>
      <point x="480" y="22" type="line"/>
      <point x="604" y="22" type="line"/>
      <point x="730" y="508" type="line"/>
      <point x="656" y="508" type="line"/>
      <point x="556" y="78" type="line"/>
      <point x="532" y="78" type="line"/>
      <point x="447" y="508" type="line"/>
      <point x="324" y="508" type="line"/>
      <point x="241" y="78" type="line"/>
      <point x="217" y="78" type="line"/>
      <point x="120" y="508" type="line"/>
      <point x="40" y="508" type="line"/>
    </contour>
  </outline>
</glyph>
<glyph name="y" format="2">
  <advance width="519"/>
  <unicode hex="0079"/>
  <outline>
    <contour>
      <point x="148" y="-171" type="line"/>
      <point x="216" y="11" type="line"/>
      <point x="-6" y="530" type="line"/>
      <point x="124" y="530" type="line"/>
      <point x="271" y="163" type="line"/>
      <point x="400" y="530" type="line"/>
      <point x="523" y="530" type="line"/>
      <point x="269" y="-171" type="line"/>
    </contour>
    <contour>
      <point x="180" y="-149" type="line"/>
      <point x="254" y="-149" type="line"/>
      <point x="492" y="508" type="line"/>
      <point x="416" y="508" type="line"/>
      <point x="272" y="100" type="line"/>
      <point x="109" y="508" type="line"/>
      <point x="27" y="508" type="line"/>
      <point x="239" y="12" type="line"/>
    </contour>
  </outline>
</glyph>
<glyph name="z" format="2">
  <advance width="504"/>
  <unicode hex="007A"/>
  <outline>
    <contour>
      <point x="30" y="0" type="line"/>
      <point x="30" y="80" type="line"/>
      <point x="305" y="430" type="line"/>
      <point x="33" y="430" type="line"/>
      <point x="33" y="530" type="line"/>
      <point x="457" y="530" type="line"/>
      <point x="457" y="450" type="line"/>
      <point x="182" y="100" type="line"/>
      <point x="469" y="100" type="line"/>
      <point x="469" y="0" type="line"/>
    </contour>
    <contour>
      <point x="53" y="22" type="line"/>
      <point x="446" y="22" type="line"/>
      <point x="446" y="78" type="line"/>
      <point x="136" y="78" type="line"/>
      <point x="434" y="458" type="line"/>
      <point x="434" y="508" type="line"/>
      <point x="56" y="508" type="line"/>
      <point x="56" y="452" type="line"/>
      <point x="351" y="452" type="line"/>
      <point x="53" y="72" type="line"/>
    </contour>
  </outline>
</glyph>
<glyph name="braceleft" format="2">
  <advance width="280"/>
  <unicode hex="007B"/>
  <outline>
    <contour>
      <point x="255" y="-138" type="line"/>
      <point x="216" y="-137"/>
      <point x="161" y="-121"/>
      <point x="143" y="-103" type="qcurve"/>
      <point x="123" y="-83"/>
      <point x="105" y="-17"/>
      <point x="105" y="32" type="qcurve"/>
      <point x="105" y="72" type="line"/>
      <point x="105" y="159"/>
      <point x="99" y="243"/>
      <point x="82" y="259" type="qcurve"/>
      <point x="72" y="269"/>
      <point x="42" y="277"/>
      <point x="20" y="280" type="qcurve"/>
      <point x="20" y="329" type="line"/>
      <point x="43" y="332"/>
      <point x="73" y="340"/>
      <point x="83" y="349" type="qcurve"/>
      <point x="100" y="366"/>
      <point x="105" y="464"/>
      <point x="105" y="574" type="qcurve"/>
      <point x="105" y="623"/>
      <point x="124" y="689"/>
      <point x="144" y="709" type="qcurve"/>
      <point x="161" y="726"/>
      <point x="216" y="743"/>
      <point x="255" y="744" type="qcurve"/>
      <point x="255" y="722" type="line"/>
      <point x="221" y="721"/>
      <point x="175" y="708"/>
      <point x="160" y="694" type="qcurve"/>
      <point x="143" y="677"/>
      <point x="128" y="618"/>
      <point x="128" y="574" type="qcurve"/>
      <point x="128" y="516" type="line"/>
      <point x="128" y="436"/>
      <point x="120" y="352"/>
      <point x="100" y="333" type="qcurve"/>
      <point x="91" y="324"/>
      <point x="63" y="313"/>
      <point x="43" y="310" type="qcurve"/>
      <point x="43" y="299" type="line"/>
      <point x="62" y="295"/>
      <point x="90" y="284"/>
      <point x="100" y="274" type="qcurve"/>
      <point x="119" y="255"/>
      <point x="128" y="172"/>
      <point x="128" y="97" type="qcurve"/>
      <point x="128" y="32" type="line"/>
      <point x="128" y="-12"/>
      <point x="142" y="-71"/>
      <point x="159" y="-88" type="qcurve"/>
      <point x="174" y="-103"/>
      <point x="221" y="-116"/>
      <point x="255" y="-116" type="qcurve"/>
    </contour>
  </outline>
</glyph>
<glyph name="bar" format="2">
  <advance width="203"/>
  <unicode hex="007C"/>
  <outline>
    <contour>
      <point x="90" y="-122" type="line"/>
      <point x="90" y="754" type="line"/>
      <point x="113" y="754" type="line"/>
      <point x="113" y="-122" type="line"/>
    </contour>
  </outline>
</glyph>
<glyph name="braceright" format="2">
  <advance width="291"/>
  <unicode hex="007D"/>
  <outline>
    <contour>
      <point x="30" y="-138" type="qcurve"/>
      <point x="30" y="-116" type="line"/>
      <point x="64" y="-116"/>
      <point x="111" y="-102"/>
      <point x="126" y="-87" type="qcurve"/>
      <point x="143" y="-71"/>
      <point x="157" y="-12"/>
      <point x="158" y="32" type="qcurve"/>
      <point x="158" y="50"/>
      <point x="157" y="83"/>
      <point x="157" y="98" type="qcurve"/>
      <point x="157" y="173"/>
      <point x="166" y="256"/>
      <point x="185" y="275" type="qcurve"/>
      <point x="195" y="284"/>
      <point x="224" y="295"/>
      <point x="243" y="299" type="qcurve"/>
      <point x="243" y="310" type="line"/>
      <point x="223" y="313"/>
      <point x="194" y="324"/>
      <point x="185" y="333" type="qcurve"/>
      <point x="166" y="352"/>
      <point x="157" y="436"/>
      <point x="157" y="514" type="qcurve"/>
      <point x="157" y="524"/>
      <point x="158" y="548"/>
      <point x="158" y="561" type="qcurve"/>
      <point x="158" y="611"/>
      <point x="143" y="675"/>
      <point x="125" y="693" type="qcurve"/>
      <point x="110" y="708"/>
      <point x="64" y="721"/>
      <point x="30" y="722" type="qcurve"/>
      <point x="30" y="744" type="line"/>
      <point x="69" y="744"/>
      <point x="124" y="726"/>
      <point x="142" y="708" type="qcurve"/>
      <point x="162" y="689"/>
      <point x="181" y="622"/>
      <point x="180" y="574" type="qcurve"/>
      <point x="181" y="564"/>
      <point x="180" y="546"/>
      <point x="180" y="538" type="qcurve"/>
      <point x="180" y="448"/>
      <point x="187" y="365"/>
      <point x="203" y="349" type="qcurve"/>
      <point x="212" y="339"/>
      <point x="243" y="332"/>
      <point x="266" y="329" type="qcurve"/>
      <point x="266" y="280" type="line"/>
      <point x="244" y="278"/>
      <point x="214" y="269"/>
      <point x="204" y="259" type="qcurve"/>
      <point x="188" y="243"/>
      <point x="180" y="163"/>
      <point x="180" y="81" type="qcurve"/>
      <point x="180" y="70"/>
      <point x="181" y="45"/>
      <point x="181" y="32" type="qcurve"/>
      <point x="181" y="-17"/>
      <point x="162" y="-82"/>
      <point x="142" y="-102" type="qcurve"/>
      <point x="124" y="-121"/>
      <point x="69" y="-138"/>
    </contour>
  </outline>
</glyph>
<glyph name="asciitilde" format="2">
  <advance width="515"/>
  <unicode hex="007E"/>
  <outline>
    <contour>
      <point x="33" y="200" type="line"/>
      <point x="34" y="240"/>
      <point x="56" y="305"/>
      <point x="76" y="325" type="qcurve"/>
      <point x="93" y="341"/>
      <point x="138" y="359"/>
      <point x="165" y="359" type="qcurve"/>
      <point x="194" y="359"/>
      <point x="258" y="337"/>
      <point x="314" y="314"/>
      <point x="359" y="302"/>
      <point x="370" y="313" type="qcurve"/>
      <point x="376" y="318"/>
      <point x="381" y="340"/>
      <point x="381" y="358" type="qcurve"/>
      <point x="482" y="358" type="line"/>
      <point x="482" y="316"/>
      <point x="460" y="254"/>
      <point x="440" y="234" type="qcurve"/>
      <point x="424" y="218"/>
      <point x="379" y="200"/>
      <point x="351" y="200" type="qcurve"/>
      <point x="327" y="200"/>
      <point x="275" y="217"/>
      <point x="226" y="236"/>
      <point x="182" y="253"/>
      <point x="167" y="253" type="qcurve"/>
      <point x="161" y="253"/>
      <point x="151" y="249"/>
      <point x="148" y="245" type="qcurve"/>
      <point x="141" y="239"/>
      <point x="134" y="216"/>
      <point x="134" y="200" type="qcurve"/>
    </contour>
    <contour>
      <point x="57" y="222" type="qcurve"/>
      <point x="113" y="222" type="line"/>
      <point x="115" y="235"/>
      <point x="124" y="255"/>
      <point x="131" y="262" type="qcurve"/>
      <point x="138" y="269"/>
      <point x="155" y="275"/>
      <point x="165" y="275" type="qcurve"/>
      <point x="184" y="275"/>
      <point x="231" y="258"/>
      <point x="281" y="239"/>
      <point x="331" y="222"/>
      <point x="353" y="222" type="qcurve"/>
      <point x="375" y="222"/>
      <point x="412" y="235"/>
      <point x="425" y="248" type="qcurve"/>
      <point x="439" y="262"/>
      <point x="456" y="307"/>
      <point x="458" y="336" type="qcurve"/>
      <point x="403" y="336" type="line"/>
      <point x="402" y="323"/>
      <point x="394" y="304"/>
      <point x="387" y="297" type="qcurve"/>
      <point x="380" y="291"/>
      <point x="362" y="284"/>
      <point x="351" y="284" type="qcurve"/>
      <point x="333" y="284"/>
      <point x="287" y="300"/>
      <point x="238" y="319"/>
      <point x="187" y="336"/>
      <point x="165" y="337" type="qcurve"/>
      <point x="143" y="337"/>
      <point x="107" y="323"/>
      <point x="94" y="310" type="qcurve"/>
      <point x="79" y="295"/>
      <point x="60" y="251"/>
    </contour>
  </outline>
</glyph>
<glyph name="exclamdown" format="2">
  <advance width="230"/>
  <unicode hex="00A1"/>
  <outline>
    <contour>
      <point x="44" y="440" type="line"/>
      <point x="44" y="578" type="line"/>
      <point x="186" y="578" type="line"/>
      <point x="186" y="440" type="line"/>
    </contour>
    <contour>
      <point x="67" y="462" type="line"/>
      <point x="163" y="462" type="line"/>
      <point x="163" y="556" type="line"/>
      <point x="67" y="556" type="line"/>
    </contour>
    <contour>
      <point x="49" y="-123" type="line"/>
      <point x="49" y="48" type="line"/>
      <point x="75" y="397" type="line"/>
      <point x="154" y="397" type="line"/>
      <point x="181" y="48" type="line"/>
      <point x="181" y="-123" type="line"/>
    </contour>
    <contour>
      <point x="72" y="-101" type="line"/>
      <point x="158" y="-101" type="line"/>
      <point x="158" y="47" type="line"/>
      <point x="133" y="375" type="line"/>
      <point x="96" y="375" type="line"/>
      <point x="71" y="47" type="line"/>
    </contour>
  </outline>
</glyph>
